<svg width="366" height="1171" viewBox="0 0 366 1171" fill="none" xmlns="http://www.w3.org/2000/svg">
<g clip-path="url(#clip0_953_521)">
<rect width="366" height="1171" rx="4.48995" fill="#F9EBEB"/>
<path opacity="0.1" d="M403.39 28.0066C403.39 28.0066 403.39 27.9647 403.39 27.9228C403.39 27.9228 403.39 27.881 403.39 27.8392C403.39 27.8392 403.39 27.7973 403.39 27.7555C403.39 27.7555 403.39 27.7136 403.39 27.6718C403.39 27.6718 403.39 27.6718 403.39 27.6299L363.945 -39.0334C363.945 -39.0334 363.945 -39.0334 363.945 -39.0753C363.945 -39.0753 363.945 -39.0752 363.945 -39.1171C363.945 -39.1171 363.945 -39.1171 363.902 -39.1589C363.902 -39.1589 363.903 -39.1589 363.86 -39.1589C363.86 -39.1589 363.86 -39.1589 363.774 -39.1589C363.774 -39.1589 363.731 -39.1589 363.688 -39.1589C363.688 -39.1589 363.688 -39.1589 363.645 -39.1589C363.645 -39.1589 363.559 -39.1589 363.517 -39.1589C363.517 -39.1589 363.474 -39.1589 363.431 -39.1589C363.431 -39.1589 363.431 -39.1589 363.388 -39.1589C363.388 -39.1589 363.388 -39.1589 363.345 -39.1589C363.345 -39.1589 363.345 -39.1589 363.302 -39.1589C363.302 -39.1589 363.302 -39.1589 363.259 -39.1171C363.259 -39.1171 363.216 -39.1171 363.174 -39.0334C363.174 -39.0334 363.174 -39.0334 363.174 -38.9915L323.729 27.6718C323.729 27.6718 323.729 27.6718 323.729 27.7136C323.729 27.7136 323.729 27.7136 323.729 27.7973C323.729 27.7973 323.729 27.8391 323.729 27.881C323.729 27.881 323.729 27.9229 323.729 27.9647C323.729 27.9647 323.729 27.9647 323.729 28.0066C323.729 28.0066 323.729 28.0065 323.729 28.0484C323.729 28.0484 323.729 28.0902 323.729 28.1321C323.729 28.1321 323.729 28.1321 323.729 28.1739C323.729 28.1739 323.729 28.2158 323.729 28.2576C323.729 28.2576 323.729 28.2576 323.729 28.2995C323.729 28.2995 323.728 28.2995 323.771 28.3413C323.771 28.3413 323.857 28.3832 323.9 28.425C323.9 28.425 323.9 28.425 323.943 28.425C323.943 28.425 323.943 28.425 323.986 28.425C324.029 28.425 324.072 28.425 324.114 28.425H403.005C403.005 28.425 403.176 28.425 403.262 28.3832C403.262 28.3832 403.305 28.3832 403.348 28.3832C403.39 28.3832 403.433 28.3413 403.476 28.2995C403.476 28.2995 403.519 28.2995 403.562 28.2576C403.562 28.2576 403.605 28.2158 403.648 28.1739C403.648 28.1739 403.648 28.1321 403.648 28.0902C403.648 28.0902 403.648 28.0902 403.648 28.0484C403.648 28.0484 403.648 28.0066 403.648 27.9647C403.648 27.9647 403.648 27.9647 403.648 27.9228L403.39 28.0066ZM384.44 24.3658L372.092 22.399H391.471L399.017 26.6256L384.44 24.3239V24.3658ZM362.573 -34.9742V-26.8976V-26.521L358.286 -19.2394L352.926 -10.1585L359.915 -28.0693L362.616 -35.016L362.573 -34.9742ZM339.635 12.23L334.319 21.1854L326.773 25.412L343.966 4.7811L339.592 12.1881L339.635 12.23ZM347.31 11.7696L349.754 -1.91452L360.687 -10.8281L347.31 11.7696ZM372.563 0.470798L365.875 -10.8281L376.808 -1.91452L379.252 11.7696L372.563 0.470798ZM363.259 -12.4601L371.32 1.1822L379.38 14.8245H347.138L355.199 1.1822L363.259 -12.4601ZM376.636 16.1637L363.259 20.9343L349.882 16.1637H376.594H376.636ZM362.573 -14.1759L360.258 -12.2927L351.726 -5.34602L362.616 -23.7171V-14.1759H362.573ZM345.252 15.0338L336.805 19.8044L347.696 1.43328L345.295 15.0338H345.252ZM381.267 15.0338L378.866 1.43328L389.756 19.8044L386.926 18.2142L381.31 15.0338H381.267ZM385.512 9.92838L382.51 4.86478L399.703 25.4957L392.157 21.2691L385.469 9.9702L385.512 9.92838ZM374.836 -5.3042L366.861 -11.7906L363.945 -14.1759V-23.7171L364.031 -23.5497L374.793 -5.34602L374.836 -5.3042ZM345.981 16.2473L346.581 16.4566L359.272 21.018H337.534L345.981 16.2473ZM373.935 18.6327L380.581 16.2473L387.998 20.4321L389.027 21.018H367.29L373.978 18.6327H373.935ZM373.678 -10.1167L371.577 -13.6319L363.988 -26.4791V-34.9742L373.078 -11.6232L373.678 -10.1167ZM327.544 26.6674L335.09 22.4408H354.47L342.551 24.3239L327.587 26.7093L327.544 26.6674ZM378.094 -2.62592L367.075 -30.9149L397.645 20.8088L378.051 -2.62592H378.094ZM348.425 -2.62592L328.831 20.8088L359.443 -30.9149L348.425 -2.62592ZM332.647 27.2533L363.259 22.4408L393.872 27.2533H332.689H332.647Z" fill="#E39A9B"/>
<path opacity="0.1" d="M420.576 573.275C420.576 573.275 420.576 573.359 420.576 573.401V573.484V573.568C420.576 573.568 420.576 573.652 420.533 573.693C420.533 573.693 420.533 573.735 420.533 573.777L369.04 660.862C369.04 660.862 369.04 660.862 368.998 660.904C368.998 660.904 368.998 660.946 368.955 660.988C368.955 660.988 368.955 660.988 368.912 661.03C368.912 661.03 368.912 661.071 368.869 661.113C368.869 661.113 368.869 661.113 368.826 661.113C368.826 661.113 368.783 661.113 368.74 661.155C368.74 661.155 368.697 661.155 368.655 661.155C368.655 661.155 368.655 661.155 368.612 661.155C368.569 661.155 368.526 661.155 368.44 661.155C368.44 661.155 368.44 661.155 368.397 661.155C368.397 661.155 368.312 661.155 368.269 661.155C368.269 661.155 368.269 661.155 368.226 661.155C368.226 661.155 368.183 661.155 368.14 661.155C368.14 661.155 368.097 661.155 368.054 661.113C368.054 661.113 368.011 661.113 367.969 661.071C367.969 661.071 367.926 661.03 367.883 660.988C367.883 660.988 367.84 660.946 367.797 660.904C367.797 660.904 367.797 660.862 367.754 660.82L316.261 573.735C316.261 573.735 316.261 573.693 316.261 573.652C316.261 573.652 316.261 573.61 316.218 573.568C316.218 573.568 316.218 573.526 316.218 573.484C316.218 573.484 316.218 573.401 316.218 573.359C316.218 573.359 316.218 573.317 316.218 573.275C316.218 573.275 316.218 573.275 316.218 573.233C316.218 573.233 316.218 573.233 316.218 573.149C316.218 573.149 316.218 573.066 316.218 573.024C316.218 573.024 316.218 573.024 316.218 572.982C316.218 572.982 316.218 572.982 316.218 572.94C316.218 572.94 316.218 572.857 316.261 572.857C316.261 572.857 316.261 572.815 316.261 572.773C316.261 572.773 316.261 572.773 316.261 572.731C316.261 572.731 316.304 572.689 316.347 572.647C316.39 572.647 316.433 572.564 316.518 572.564C316.518 572.564 316.518 572.564 316.561 572.564C316.561 572.564 316.561 572.564 316.604 572.564C316.604 572.564 316.647 572.564 316.69 572.564C316.733 572.564 316.819 572.564 316.861 572.564H419.89C419.89 572.564 420.105 572.564 420.19 572.605C420.19 572.605 420.233 572.605 420.276 572.647C420.319 572.647 420.405 572.731 420.448 572.773C420.448 572.773 420.491 572.815 420.533 572.857C420.533 572.857 420.619 572.94 420.619 572.982C420.619 572.982 420.619 573.066 420.662 573.066C420.662 573.066 420.662 573.066 420.662 573.108C420.662 573.108 420.662 573.149 420.662 573.191C420.662 573.191 420.662 573.233 420.662 573.275C420.662 573.275 420.662 573.317 420.662 573.359L420.576 573.275ZM395.795 578.004L379.674 580.556H404.97L414.788 575.033L395.752 578.046L395.795 578.004ZM367.197 655.464V644.876V644.374L361.58 634.875L354.549 623.032L363.638 646.425L367.154 655.506L367.197 655.464ZM337.313 593.822L330.41 582.105L320.592 576.581L343.058 603.489L337.356 593.822H337.313ZM347.26 594.45L350.433 612.319L364.71 623.953L347.26 594.45ZM380.274 609.18L371.527 623.953L385.805 612.319L388.977 594.45L380.231 609.222L380.274 609.18ZM368.14 626.087L378.687 608.301L389.235 590.516H347.131L357.679 608.301L368.226 626.087H368.14ZM385.59 588.675L368.14 582.398L350.69 588.675H385.59ZM367.197 628.305L364.153 625.836L353.005 616.755L367.197 640.775V628.305ZM344.645 590.14L333.583 583.904L347.774 607.925L344.602 590.14H344.645ZM391.636 590.14L388.463 607.925L402.655 583.904L398.967 585.997L391.593 590.14H391.636ZM397.167 596.877L393.222 603.531L415.689 576.623L405.87 582.147L397.167 596.877ZM383.275 616.755L372.856 625.208L369.04 628.305V640.775L369.169 640.524L383.232 616.755H383.275ZM345.545 588.591L346.36 588.298L362.909 582.356H334.483L345.545 588.591ZM382.075 585.495L390.735 588.591L400.425 583.151L401.797 582.398H373.371L382.075 585.536V585.495ZM381.689 623.032L378.987 627.635L369.04 644.416V655.506L380.917 625.041L381.689 623.074V623.032ZM321.449 574.991L331.267 580.515H356.564L341 578.046L321.406 574.949L321.449 574.991ZM387.477 613.281L373.114 650.191L413.073 582.649L387.52 613.281H387.477ZM348.761 613.281L323.164 582.649L363.124 650.191L348.718 613.281H348.761ZM328.181 574.237L368.14 580.556L408.1 574.237H328.181Z" fill="#E39A9B"/>
<path opacity="0.1" d="M446.537 323.297C446.537 323.297 446.537 323.339 446.537 323.381C446.537 323.465 446.537 323.507 446.537 323.59C446.537 323.632 446.537 323.716 446.537 323.758C446.537 323.799 446.537 323.883 446.537 323.925C446.537 324.009 446.494 324.051 446.451 324.092C446.451 324.092 446.451 324.176 446.451 324.218L358.772 472.442C358.772 472.442 358.729 472.526 358.686 472.526C358.686 472.526 358.643 472.61 358.6 472.652C358.6 472.652 358.557 472.693 358.514 472.735C358.514 472.735 358.429 472.819 358.386 472.861C358.386 472.861 358.3 472.861 358.3 472.903C358.257 472.903 358.214 472.944 358.171 472.986C358.171 472.986 358.171 472.986 358.129 472.986C358.086 472.986 358.043 472.986 357.957 473.028C357.957 473.028 357.957 473.028 357.914 473.028C357.914 473.028 357.914 473.028 357.871 473.028H357.786C357.786 473.028 357.743 473.028 357.7 473.028C357.614 473.028 357.528 473.028 357.443 473.028C357.443 473.028 357.4 473.028 357.357 473.028C357.271 473.028 357.228 473.028 357.142 473.028C357.142 473.028 357.1 473.028 357.057 473.028C357.014 473.028 356.971 472.986 356.928 472.986C356.928 472.986 356.928 472.986 356.885 472.986C356.842 472.986 356.799 472.944 356.757 472.903C356.757 472.903 356.671 472.861 356.628 472.819C356.585 472.819 356.542 472.735 356.499 472.693C356.456 472.652 356.414 472.61 356.371 472.568C356.371 472.526 356.328 472.484 356.285 472.442C356.285 472.442 356.285 472.442 356.242 472.359L268.562 324.092C268.562 324.092 268.562 324.009 268.562 323.967C268.562 323.925 268.52 323.883 268.477 323.841C268.477 323.799 268.477 323.758 268.477 323.716C268.477 323.632 268.477 323.59 268.477 323.507C268.477 323.465 268.477 323.423 268.477 323.381C268.477 323.381 268.477 323.339 268.477 323.297C268.477 323.297 268.477 323.297 268.477 323.255C268.477 323.255 268.477 323.172 268.477 323.13C268.477 323.046 268.477 323.004 268.477 322.962V322.879C268.477 322.879 268.477 322.837 268.52 322.795C268.52 322.753 268.562 322.67 268.605 322.628C268.605 322.628 268.605 322.544 268.691 322.502C268.691 322.502 268.691 322.46 268.734 322.418C268.734 322.418 268.777 322.418 268.82 322.377C268.863 322.335 268.905 322.293 268.948 322.251C269.034 322.167 269.12 322.126 269.206 322.084L269.291 322.042C269.291 322.042 269.334 322.042 269.377 322.042C269.377 322.042 269.42 322.042 269.463 322.042C269.506 322.042 269.549 322.042 269.592 322.042C269.677 322.042 269.806 322 269.934 322H445.337C445.337 322 445.68 322 445.851 322.084C445.894 322.084 445.937 322.126 446.023 322.167C446.108 322.209 446.237 322.293 446.323 322.335C446.366 322.335 446.408 322.418 446.451 322.46C446.494 322.502 446.58 322.586 446.623 322.67C446.623 322.67 446.623 322.67 446.623 322.711C446.623 322.753 446.709 322.837 446.709 322.879C446.709 322.879 446.709 322.921 446.751 322.962C446.751 323.004 446.751 323.046 446.751 323.088C446.751 323.13 446.751 323.172 446.751 323.214C446.751 323.255 446.751 323.297 446.751 323.339L446.537 323.297ZM404.348 331.416L376.908 335.726H419.955L436.719 326.268L404.348 331.374V331.416ZM355.685 463.32V445.325V444.446L346.124 428.251L334.161 408.039L349.682 447.836L355.685 463.278V463.32ZM304.749 358.324L292.958 338.404L276.194 328.947L314.482 374.77L304.749 358.282V358.324ZM321.728 359.37L327.13 389.793L351.44 409.587L321.728 359.37ZM377.937 384.479L363.059 409.587L387.369 389.793L392.772 359.37L377.894 384.479H377.937ZM357.271 413.27L375.193 382.972L393.115 352.674H321.428L339.349 382.972L357.271 413.27ZM386.984 349.578L357.271 338.906L327.559 349.578H386.984ZM355.685 417.078L350.497 412.851L331.503 397.368L355.685 438.253V417.036V417.078ZM317.226 352.088L298.403 341.501L322.585 382.386L317.226 352.088ZM397.274 352.088L391.914 382.386L416.096 341.501L409.793 345.058L397.274 352.13V352.088ZM406.706 363.513L400.018 374.812L438.305 328.989L421.541 338.446L406.706 363.555V363.513ZM383.039 397.368L365.332 411.805L358.857 417.078V438.295L359.115 437.876L383.082 397.368H383.039ZM318.812 349.41L320.184 348.908L348.396 338.781H300.033L318.855 349.368L318.812 349.41ZM380.981 344.137L395.73 349.41L412.194 340.12L414.509 338.823H366.146L380.981 344.137ZM380.381 408.039L375.75 415.864L358.857 444.446V463.32L379.094 411.428L380.424 408.039H380.381ZM277.781 326.31L294.545 335.768H337.591L311.095 331.583L277.781 326.31ZM390.199 391.425L365.717 454.28L433.76 339.283L390.242 391.425H390.199ZM324.3 391.425L280.739 339.283L348.782 454.322L324.3 391.425ZM289.228 324.971L357.271 335.726L425.314 324.971H289.228Z" fill="#E39A9B"/>
<path opacity="0.1" d="M247.891 788.687C247.891 788.687 247.891 788.729 247.891 788.771C247.891 788.771 247.891 788.813 247.891 788.855C247.891 788.855 247.891 788.855 247.891 788.896C247.891 788.896 247.891 788.938 247.891 788.98L216.592 841.917C216.592 841.917 216.592 841.917 216.592 841.959C216.592 841.959 216.592 841.959 216.55 841.959C216.55 841.959 216.55 841.959 216.507 841.959C216.507 841.959 216.464 841.959 216.421 841.959C216.421 841.959 216.378 841.959 216.335 841.959C216.335 841.959 216.335 841.959 216.292 841.959C216.292 841.959 216.292 841.959 216.249 841.959C216.249 841.959 216.249 841.959 216.207 841.917C216.207 841.917 216.207 841.917 216.164 841.876C216.164 841.876 216.164 841.876 216.164 841.834L184.865 788.896C184.865 788.896 184.865 788.896 184.865 788.855C184.865 788.855 184.865 788.855 184.865 788.813C184.865 788.813 184.865 788.771 184.865 788.729C184.865 788.729 184.865 788.729 184.865 788.687C184.865 788.687 184.865 788.645 184.865 788.603C184.865 788.603 184.865 788.603 184.865 788.562C184.865 788.562 184.865 788.562 184.908 788.52C184.908 788.52 184.951 788.478 184.994 788.478C184.994 788.478 184.994 788.478 185.036 788.478C185.036 788.478 185.122 788.478 185.165 788.478H247.806C247.806 788.478 247.934 788.478 247.977 788.478C247.977 788.478 247.977 788.478 248.02 788.478C248.02 788.478 248.106 788.478 248.106 788.562C248.106 788.562 248.106 788.562 248.149 788.603C248.149 788.603 248.149 788.645 248.191 788.687C248.191 788.687 248.191 788.687 248.191 788.729C248.191 788.729 248.191 788.729 248.191 788.771C248.191 788.771 248.191 788.771 248.191 788.813C248.191 788.813 248.191 788.813 248.191 788.855L247.891 788.687ZM232.842 791.575L223.067 793.123H238.459L244.418 789.733L232.842 791.575ZM215.478 838.653V832.251V831.916L212.048 826.141L207.803 818.943L213.334 833.171L215.478 838.695V838.653ZM197.256 801.2L193.054 794.086L187.094 790.696L200.772 807.058L197.299 801.158L197.256 801.2ZM203.344 801.576L205.273 812.457L213.934 819.529L203.344 801.576ZM223.41 810.532L218.093 819.487L226.754 812.415L228.683 801.534L223.367 810.49L223.41 810.532ZM216.035 820.784L222.423 809.946L228.812 799.107H203.215L209.604 809.946L215.992 820.784H216.035ZM226.625 798.061L216.035 794.253L205.445 798.061H226.668H226.625ZM215.478 822.165L213.634 820.659L206.86 815.135L215.478 829.74V822.165ZM201.715 798.94L194.983 795.174L203.601 809.778L201.672 798.982L201.715 798.94ZM230.312 798.94L228.383 809.737L237.001 795.132L234.772 796.387L230.312 798.898V798.94ZM233.7 803.041L231.299 807.058L244.976 790.696L239.016 794.086L233.7 803.041ZM225.21 815.135L218.865 820.282L216.55 822.165V829.74L216.635 829.614L225.167 815.177L225.21 815.135ZM202.315 798.019L202.787 797.852L212.862 794.253H195.584L202.315 798.019ZM224.481 796.136L229.755 798.019L235.629 794.713L236.444 794.253H219.165L224.439 796.136H224.481ZM224.267 818.943L222.595 821.747L216.55 831.958V838.695L223.753 820.157L224.224 818.943H224.267ZM187.652 789.733L193.611 793.123H209.004L199.528 791.616L187.609 789.733H187.652ZM227.783 813.001L219.036 835.431L243.304 794.378L227.74 813.001H227.783ZM204.244 813.001L188.681 794.378L212.991 835.431L204.244 813.001ZM191.725 789.273L216.035 793.123L240.345 789.273H191.768H191.725Z" fill="#E39A9B"/>
<path opacity="0.1" d="M209.503 236.209C209.503 236.209 209.503 236.251 209.503 236.293C209.503 236.293 209.503 236.335 209.503 236.377C209.503 236.377 209.503 236.377 209.503 236.419C209.503 236.419 209.503 236.46 209.503 236.502L178.204 289.439C178.204 289.439 178.204 289.439 178.204 289.481C178.204 289.481 178.204 289.481 178.161 289.481C178.161 289.481 178.161 289.481 178.118 289.481C178.118 289.481 178.075 289.481 178.032 289.481C178.032 289.481 177.989 289.481 177.947 289.481C177.947 289.481 177.947 289.481 177.904 289.481C177.904 289.481 177.904 289.481 177.861 289.481C177.861 289.481 177.861 289.481 177.818 289.439C177.818 289.439 177.818 289.439 177.775 289.398C177.775 289.398 177.775 289.398 177.775 289.356L146.476 236.419C146.476 236.419 146.476 236.418 146.476 236.377C146.476 236.377 146.476 236.377 146.476 236.335C146.476 236.335 146.476 236.293 146.476 236.251C146.476 236.251 146.476 236.251 146.476 236.209C146.476 236.209 146.476 236.167 146.476 236.126C146.476 236.126 146.476 236.126 146.476 236.084C146.476 236.084 146.476 236.084 146.519 236.042C146.519 236.042 146.562 236 146.605 236C146.605 236 146.605 236 146.648 236C146.648 236 146.733 236 146.776 236H209.417C209.417 236 209.546 236 209.588 236C209.588 236 209.588 236 209.631 236C209.631 236 209.717 236 209.717 236.084C209.717 236.084 209.717 236.084 209.76 236.126C209.76 236.126 209.76 236.167 209.803 236.209C209.803 236.209 209.803 236.209 209.803 236.251C209.803 236.251 209.803 236.251 209.803 236.293C209.803 236.293 209.803 236.293 209.803 236.335C209.803 236.335 209.803 236.335 209.803 236.377L209.503 236.209ZM194.454 239.097L184.678 240.645H200.07L206.03 237.255L194.454 239.097ZM177.089 286.175V279.773V279.438L173.659 273.663L169.414 266.465L174.945 280.693L177.089 286.217V286.175ZM158.867 248.722L154.665 241.608L148.706 238.218L162.383 254.58L158.91 248.68L158.867 248.722ZM164.955 249.098L166.885 259.979L175.546 267.051L164.955 249.098ZM185.021 258.054L179.704 267.009L188.365 259.937L190.295 249.056L184.978 258.012L185.021 258.054ZM177.646 268.306L184.035 257.468L190.423 246.629H164.827L171.215 257.468L177.604 268.306H177.646ZM188.237 245.583L177.646 241.775L167.056 245.583H188.279H188.237ZM177.089 269.687L175.245 268.181L168.471 262.657L177.089 277.262V269.687ZM163.326 246.462L156.595 242.696L165.213 257.3L163.283 246.504L163.326 246.462ZM191.924 246.462L189.994 257.259L198.612 242.654L196.383 243.909L191.924 246.42V246.462ZM195.311 250.563L192.91 254.58L206.587 238.218L200.627 241.608L195.311 250.563ZM186.822 262.657L180.476 267.804L178.161 269.687V277.262L178.247 277.136L186.779 262.699L186.822 262.657ZM163.926 245.541L164.398 245.374L174.474 241.775H157.195L163.926 245.541ZM186.093 243.658L191.366 245.541L197.24 242.235L198.055 241.775H180.776L186.05 243.658H186.093ZM185.878 266.465L184.206 269.269L178.161 279.48V286.217L185.364 267.679L185.836 266.465H185.878ZM149.263 237.255L155.223 240.645H170.615L161.14 239.139L149.22 237.255H149.263ZM189.394 260.523L180.648 282.953L204.915 241.901L189.351 260.523H189.394ZM165.856 260.523L150.292 241.901L174.602 282.953L165.856 260.523ZM153.336 236.795L177.646 240.645L201.957 236.795H153.379H153.336Z" fill="#E39A9B"/>
<path opacity="0.1" d="M-104.626 888.954C-104.626 888.954 -104.626 888.954 -104.626 888.912C-104.626 888.871 -104.626 888.787 -104.626 888.745C-104.626 888.703 -104.626 888.661 -104.626 888.619C-104.626 888.578 -104.626 888.536 -104.626 888.494C-104.626 888.452 -104.583 888.41 -104.54 888.368C-104.54 888.368 -104.54 888.326 -104.54 888.285L-34.525 769.939C-34.525 769.939 -34.4821 769.898 -34.4393 769.856C-34.4393 769.856 -34.4392 769.772 -34.3535 769.772C-34.3535 769.772 -34.3106 769.772 -34.2677 769.73C-34.2677 769.73 -34.2249 769.688 -34.182 769.647C-34.182 769.647 -34.1391 769.647 -34.0963 769.605C-34.0963 769.605 -34.0105 769.563 -33.9676 769.521C-33.9676 769.521 -33.9676 769.521 -33.9247 769.521C-33.9247 769.521 -33.839 769.521 -33.7961 769.479C-33.7961 769.479 -33.7961 769.479 -33.7533 769.479C-33.7533 769.479 -33.7104 769.479 -33.6675 769.479C-33.6675 769.479 -33.6675 769.479 -33.6246 769.479C-33.5389 769.479 -33.496 769.479 -33.4102 769.479C-33.4102 769.479 -33.4103 769.479 -33.3674 769.479C-33.3245 769.479 -33.2387 769.479 -33.1959 769.479C-33.1959 769.479 -33.153 769.479 -33.1101 769.479C-33.1101 769.479 -33.0243 769.479 -32.9815 769.521C-32.9815 769.521 -32.8957 769.521 -32.8528 769.563C-32.8528 769.563 -32.81 769.563 -32.7671 769.605L-32.6814 769.688C-32.6814 769.688 -32.5956 769.772 -32.5527 769.814C-32.5527 769.814 -32.5099 769.898 -32.467 769.939C-32.467 769.939 -32.467 769.939 -32.4241 769.981L37.5909 888.326C37.5909 888.326 37.5909 888.368 37.5909 888.41C37.5909 888.41 37.6338 888.494 37.6338 888.536C37.6338 888.536 37.6338 888.619 37.6338 888.661C37.6338 888.703 37.6338 888.787 37.6338 888.829V888.912C37.6338 888.912 37.6338 888.912 37.6338 888.954C37.6338 888.954 37.6338 888.996 37.6338 889.038C37.6338 889.08 37.6338 889.122 37.6338 889.205C37.6338 889.205 37.6338 889.247 37.6338 889.289C37.6338 889.289 37.6338 889.331 37.6338 889.373C37.6338 889.415 37.591 889.456 37.5481 889.498C37.5481 889.498 37.548 889.54 37.5052 889.582C37.5052 889.582 37.5052 889.624 37.4623 889.666C37.4623 889.666 37.4623 889.666 37.4195 889.666C37.4195 889.666 37.3337 889.749 37.2908 889.791C37.2051 889.833 37.1622 889.875 37.0765 889.917C37.0765 889.917 37.0336 889.917 36.9907 889.959C36.9907 889.959 36.9478 889.959 36.9049 889.959C36.9049 889.959 36.9049 889.959 36.8621 889.959C36.8621 889.959 36.7763 889.959 36.7334 889.959C36.6477 889.959 36.562 889.959 36.4762 889.959H-103.554C-103.554 889.959 -103.854 889.959 -103.983 889.875C-104.026 889.875 -104.068 889.875 -104.111 889.833C-104.197 889.833 -104.283 889.749 -104.368 889.707C-104.368 889.707 -104.454 889.624 -104.497 889.582C-104.54 889.54 -104.583 889.498 -104.626 889.415C-104.626 889.415 -104.626 889.415 -104.626 889.373C-104.626 889.331 -104.669 889.289 -104.712 889.247C-104.712 889.247 -104.712 889.205 -104.712 889.163V889.08C-104.712 889.08 -104.712 888.996 -104.712 888.954V888.87L-104.626 888.954ZM-70.9688 882.51L-49.0596 879.036H-83.4456L-96.8226 886.569L-70.9688 882.51ZM-32.124 777.179V791.533V792.244L-24.4922 805.175L-14.9739 821.287L-27.3648 789.482L-32.1669 777.137L-32.124 777.179ZM8.56447 861L17.9541 876.902L31.3312 884.435L0.76123 847.86L8.52162 861H8.56447ZM-5.02694 860.163L-9.3573 835.85L-28.7797 820.031L-5.06979 860.121L-5.02694 860.163ZM-49.8743 840.118L-37.9979 820.073L-57.4203 835.891L-61.7507 860.205L-49.8743 840.16V840.118ZM-33.3674 817.144L-47.6877 841.332L-62.0079 865.519H-4.7697L-19.09 841.332L-33.4102 817.144H-33.3674ZM-57.0773 867.989L-33.3674 876.484L-9.65746 867.989H-57.1202H-57.0773ZM-32.124 814.089L-27.9651 817.478L-12.7873 829.823L-32.0811 797.182V814.089H-32.124ZM-1.42544 865.98L13.5808 874.433L-5.71295 841.792L-1.42544 865.98ZM-65.3093 865.98L-61.0218 841.792L-80.3156 874.433L-75.2992 871.587L-65.3093 865.938V865.98ZM-72.8553 856.857L-67.5389 847.818L-98.1088 884.435L-84.7318 876.902L-72.8982 856.857H-72.8553ZM-53.9475 829.823L-39.7987 818.315L-34.6537 814.131V797.182L-34.8251 797.517L-53.9475 829.823ZM-2.66879 868.114L-3.74067 868.491L-26.2501 876.567H12.3804L-2.62594 868.114H-2.66879ZM-52.3182 872.341L-64.0659 868.114L-77.2286 875.521L-79.0722 876.567H-40.4418L-52.2753 872.341H-52.3182ZM-51.8465 821.328L-48.1593 815.093L-34.6537 792.286V777.221L-50.7747 818.65L-51.8465 821.37V821.328ZM30.0878 886.569L16.7108 879.036H-17.6751L3.46238 882.384L30.0878 886.569ZM-59.6927 834.594L-40.1417 784.419L-94.4644 876.233L-59.6927 834.594ZM-7.04207 834.594L27.7296 876.233L-26.5931 784.419L-7.04207 834.636V834.594ZM20.9554 887.615L-33.3674 879.036L-87.6901 887.615H20.9554Z" fill="#E39A9B"/>
<path opacity="0.1" d="M120.982 507.513C120.982 507.513 120.982 507.513 120.982 507.471V507.387C120.982 507.387 120.982 507.303 120.982 507.262C120.982 507.262 120.982 507.262 120.982 507.22C120.982 507.22 120.982 507.136 121.025 507.136C121.025 507.136 121.025 507.052 121.068 507.01L171.789 440.933C171.789 440.933 171.789 440.933 171.832 440.891C171.875 440.849 171.918 440.808 171.96 440.766C171.96 440.766 172.003 440.724 172.046 440.682C172.089 440.682 172.175 440.64 172.261 440.598C172.261 440.598 172.303 440.598 172.346 440.598C172.389 440.598 172.432 440.598 172.518 440.598C172.561 440.598 172.646 440.598 172.689 440.598C172.689 440.598 172.732 440.598 172.775 440.598C172.861 440.598 172.904 440.64 172.989 440.682C172.989 440.682 173.032 440.724 173.075 440.766C173.118 440.766 173.161 440.849 173.204 440.891C173.204 440.891 173.204 440.891 173.247 440.933L223.968 507.01C223.968 507.01 224.011 507.094 224.011 507.136C224.011 507.136 224.011 507.22 224.054 507.22C224.054 507.22 224.054 507.22 224.054 507.262C224.054 507.262 224.054 507.345 224.054 507.387V507.471C224.054 507.471 224.054 507.471 224.054 507.513C224.054 507.555 224.054 507.513 224.054 507.555V507.638C224.054 507.638 224.054 507.722 224.054 507.764C224.054 507.764 224.054 507.764 224.054 507.806C224.054 507.806 224.054 507.889 224.011 507.889C224.011 507.889 224.011 507.973 223.968 508.015L173.247 574.092C173.161 574.176 173.118 574.26 172.989 574.302C172.989 574.302 172.947 574.302 172.904 574.302C172.861 574.302 172.775 574.343 172.732 574.343C172.646 574.343 172.561 574.343 172.475 574.343C172.389 574.343 172.303 574.343 172.218 574.343C172.175 574.343 172.089 574.343 172.046 574.302C172.046 574.302 172.003 574.302 171.96 574.302C171.875 574.26 171.789 574.176 171.703 574.092L120.982 508.015C120.982 508.015 120.939 507.931 120.939 507.889C120.939 507.889 120.939 507.806 120.896 507.806C120.896 507.806 120.896 507.806 120.896 507.764C120.896 507.764 120.896 507.68 120.896 507.638V507.555C120.896 507.555 120.896 507.555 120.896 507.513H120.982ZM184.737 546.389L191.083 533.207L173.89 540.405V568.778L184.694 546.389H184.737ZM160.899 468.636L154.553 481.818L171.746 474.62V446.248L160.942 468.636H160.899ZM148.808 507.513L172.818 537.936L196.828 507.513L172.818 477.089L148.808 507.513ZM149.451 503.161L168.016 479.642L169.345 477.968L153.267 484.706L149.451 503.202V503.161ZM196.185 503.161L192.369 484.664L176.291 477.926L196.185 503.161ZM196.185 511.823L176.291 537.057L192.369 530.32L196.185 511.823ZM149.451 511.823L153.267 530.32L169.345 537.057L149.451 511.823ZM199.1 506.425H220.409L195.027 486.631L199.1 506.425ZM199.1 508.559L195.027 528.353L220.409 508.559H199.1ZM146.493 508.559H125.184L150.566 528.353L146.493 508.559ZM146.493 506.425L150.566 486.631L125.184 506.425H146.493ZM173.89 446.248V474.62L191.083 481.818L184.737 468.636L173.933 446.248H173.89ZM171.703 568.778V540.405L154.51 533.207L160.856 546.389L171.66 568.778H171.703ZM145.635 487.761L151.423 483.241L156.826 472.11L167.244 450.558L128.228 501.403L145.678 487.761H145.635ZM188.853 472.068L194.256 483.199L200.044 487.719L217.494 501.361L178.477 450.516L188.896 472.068H188.853ZM200.001 527.265L194.213 531.784L188.21 544.171L178.435 564.467L217.451 513.622L200.001 527.265ZM157.383 544.171L151.38 531.784L145.592 527.265L128.142 513.622L167.158 564.467L157.383 544.171Z" fill="#E39A9B"/>
<path opacity="0.1" d="M147.511 142.794C147.511 142.794 147.511 142.794 147.511 142.753C147.511 142.753 147.511 142.711 147.511 142.669C147.511 142.669 147.511 142.627 147.511 142.585C147.511 142.585 147.511 142.543 147.511 142.502C147.511 142.502 147.511 142.46 147.468 142.418L111.11 95.0463C111.11 95.0463 111.025 95.0045 111.025 94.9626C111.025 94.9626 111.024 94.9626 110.982 94.9208C110.939 94.9208 110.896 94.9208 110.853 94.8789C110.853 94.8789 110.81 94.8789 110.767 94.8789C110.767 94.8789 110.681 94.8789 110.639 94.8789C110.639 94.8789 110.553 94.8789 110.51 94.8789C110.51 94.8789 110.467 94.8789 110.424 94.8789C110.381 94.8789 110.338 94.8789 110.296 94.9208C110.296 94.9208 110.253 94.9208 110.21 94.9626C110.21 94.9626 110.124 95.0045 110.124 95.0463L73.766 142.418C73.766 142.418 73.766 142.46 73.7231 142.502C73.7231 142.502 73.7231 142.543 73.7231 142.585C73.7231 142.585 73.7231 142.627 73.7231 142.669C73.7231 142.669 73.7231 142.711 73.7231 142.753C73.7231 142.753 73.7231 142.753 73.7231 142.794C73.7231 142.836 73.7231 142.794 73.7231 142.836C73.7231 142.836 73.7231 142.878 73.7231 142.92C73.7231 142.92 73.7231 142.962 73.7231 143.004C73.7231 143.004 73.7231 143.046 73.7231 143.087C73.7231 143.087 73.7231 143.129 73.766 143.171L110.124 190.543C110.167 190.584 110.21 190.668 110.296 190.71C110.296 190.71 110.296 190.71 110.339 190.71C110.339 190.71 110.424 190.71 110.467 190.752C110.51 190.752 110.596 190.752 110.639 190.752C110.681 190.752 110.767 190.752 110.81 190.752C110.81 190.752 110.896 190.752 110.939 190.71C110.939 190.71 110.939 190.71 110.982 190.71C111.024 190.71 111.11 190.626 111.153 190.543L147.511 143.171C147.511 143.171 147.511 143.129 147.554 143.087C147.554 143.087 147.554 143.046 147.554 143.004C147.554 143.004 147.554 142.962 147.554 142.92C147.554 142.92 147.554 142.878 147.554 142.836C147.554 142.836 147.554 142.836 147.554 142.794H147.511ZM101.806 170.665L97.2616 161.207L109.567 166.355V186.693L101.806 170.623V170.665ZM118.914 114.966L123.458 124.423L111.153 119.276V98.9381L118.914 115.008V114.966ZM127.574 142.794L110.381 164.597L93.1885 142.794L110.381 120.992L127.574 142.794ZM127.103 139.698L113.769 122.833L112.825 121.62L124.359 126.432L127.103 139.698ZM93.6172 139.698L96.3612 126.432L107.895 121.62L93.6172 139.698ZM93.6172 145.891L107.895 163.969L96.3612 159.157L93.6172 145.891ZM127.103 145.891L124.359 159.157L112.825 163.969L127.103 145.891ZM91.5163 142.041H76.2528L94.4318 127.855L91.5163 142.041ZM91.5163 143.59L94.4318 157.776L76.2528 143.59H91.5163ZM129.204 143.59H144.467L126.288 157.776L129.204 143.59ZM129.204 142.041L126.288 127.855L144.467 142.041H129.204ZM109.567 98.8963V119.234L97.2616 124.382L101.806 114.924L109.567 98.8545V98.8963ZM111.153 186.735V166.397L123.458 161.249L118.914 170.707L111.153 186.776V186.735ZM129.847 128.65L125.688 125.428L121.829 117.435L114.369 101.993L142.366 138.442L129.847 128.65ZM98.8908 117.435L95.0321 125.428L90.8732 128.65L78.3536 138.442L106.351 101.993L98.8908 117.435ZM90.8732 156.981L95.0321 160.203L99.3196 169.117L106.351 183.638L78.3536 147.188L90.8732 156.981ZM121.4 169.117L125.688 160.203L129.847 156.981L142.366 147.188L114.369 183.638L121.4 169.117Z" fill="#E39A9B"/>
<path opacity="0.1" d="M90.2305 -8.10801C90.2305 -8.10801 90.2305 -8.10799 90.2305 -8.14984C90.2305 -8.14984 90.2305 -8.1917 90.2305 -8.23355C90.2305 -8.23355 90.2305 -8.27539 90.2305 -8.31723C90.2305 -8.31723 90.2305 -8.3591 90.2305 -8.40095C90.2305 -8.40095 90.2305 -8.44278 90.1876 -8.48463L53.8295 -55.8562C53.8295 -55.8562 53.7437 -55.898 53.7437 -55.9399C53.7437 -55.9399 53.7437 -55.9399 53.7009 -55.9817C53.658 -55.9817 53.6151 -55.9817 53.5722 -56.0236C53.5722 -56.0236 53.5294 -56.0236 53.4865 -56.0236C53.4865 -56.0236 53.4007 -56.0236 53.3579 -56.0236C53.3579 -56.0236 53.2721 -56.0236 53.2292 -56.0236C53.2292 -56.0236 53.1864 -56.0236 53.1435 -56.0236C53.1006 -56.0236 53.0577 -56.0236 53.0149 -55.9817C53.0149 -55.9817 52.972 -55.9817 52.9291 -55.9399C52.9291 -55.9399 52.8434 -55.898 52.8434 -55.8562L16.4853 -8.48463C16.4853 -8.48463 16.4853 -8.44279 16.4424 -8.40095C16.4424 -8.40095 16.4424 -8.35908 16.4424 -8.31723C16.4424 -8.31723 16.4424 -8.2754 16.4424 -8.23355C16.4424 -8.23355 16.4424 -8.19169 16.4424 -8.14984C16.4424 -8.14984 16.4424 -8.14986 16.4424 -8.10801C16.4424 -8.06617 16.4424 -8.10801 16.4424 -8.06616C16.4424 -8.06616 16.4424 -8.02433 16.4424 -7.98248C16.4424 -7.98248 16.4424 -7.94061 16.4424 -7.89877C16.4424 -7.89877 16.4424 -7.85693 16.4424 -7.81508C16.4424 -7.81508 16.4424 -7.77322 16.4853 -7.73137L52.8434 39.6402C52.8862 39.682 52.9291 39.7657 53.0149 39.8076C53.0149 39.8076 53.0149 39.8076 53.0577 39.8076C53.0577 39.8076 53.1435 39.8075 53.1864 39.8494C53.2292 39.8494 53.315 39.8494 53.3579 39.8494C53.4007 39.8494 53.4865 39.8494 53.5294 39.8494C53.5294 39.8494 53.6151 39.8494 53.658 39.8076C53.658 39.8076 53.658 39.8076 53.7009 39.8076C53.7437 39.8076 53.8295 39.7239 53.8724 39.6402L90.2305 -7.73137C90.2305 -7.73137 90.2305 -7.77324 90.2734 -7.81508C90.2734 -7.81508 90.2734 -7.85691 90.2734 -7.89877C90.2734 -7.89877 90.2734 -7.94063 90.2734 -7.98248C90.2734 -7.98248 90.2734 -8.02431 90.2734 -8.06616C90.2734 -8.06616 90.2734 -8.06617 90.2734 -8.10801H90.2305ZM44.5256 19.7207L39.9808 10.2631L52.286 15.4104V35.7483L44.5256 19.6788V19.7207ZM61.6328 -35.9785L66.1775 -26.521L53.8724 -31.6682V-52.0062L61.6328 -35.9367V-35.9785ZM70.2935 -8.10801L53.1006 13.6946L35.9077 -8.10801L53.1006 -29.9106L70.2935 -8.10801ZM69.8219 -11.2047L56.4877 -28.0693L55.5445 -29.2829L67.0779 -24.4704L69.8219 -11.2047ZM36.3364 -11.2466L39.0804 -24.5123L50.6139 -29.3248L36.3364 -11.2466ZM36.3364 -5.01126L50.6139 13.0669L39.0804 8.25443L36.3364 -5.01126ZM69.8219 -5.01126L67.0779 8.25443L55.5445 13.0669L69.8219 -5.01126ZM34.2356 -8.9031H18.972L37.1511 -23.0895L34.2356 -8.9031ZM34.2356 -7.35476L37.1511 6.8316L18.972 -7.35476H34.2356ZM71.9228 -7.35476H87.1863L69.0073 6.8316L71.9228 -7.35476ZM71.9228 -8.9031L69.0073 -23.0895L87.1863 -8.9031H71.9228ZM52.286 -52.048V-31.7101L39.9808 -26.5628L44.5256 -36.0204L52.286 -52.0899V-52.048ZM53.8724 35.7902V15.4522L66.1775 10.305L61.6328 19.7625L53.8724 35.832V35.7902ZM72.5659 -22.2944L68.407 -25.5166L64.5483 -33.5095L57.088 -48.9513L85.0854 -12.502L72.5659 -22.2944ZM41.6101 -33.5095L37.7513 -25.5166L33.5924 -22.2944L21.0729 -12.502L49.0704 -48.9513L41.6101 -33.5095ZM33.5924 6.03651L37.7513 9.25877L42.0388 18.1723L49.0704 32.6934L21.0729 -3.75586L33.5924 6.03651ZM64.1195 18.1723L68.407 9.25877L72.5659 6.03651L85.0854 -3.75586L57.088 32.6934L64.1195 18.1723Z" fill="#E39A9B"/>
<path opacity="0.1" d="M333.599 707.084C333.599 707.084 333.599 707.042 333.599 707C333.599 707 333.599 706.959 333.599 706.917C333.599 706.917 333.599 706.917 333.599 706.875C333.599 706.875 333.599 706.833 333.599 706.791L364.426 666.659C364.426 666.659 364.469 666.617 364.512 666.576C364.512 666.576 364.512 666.576 364.555 666.534C364.555 666.534 364.641 666.534 364.684 666.492C364.684 666.492 364.684 666.492 364.727 666.492H364.812H364.898C364.898 666.492 364.898 666.492 364.941 666.492C364.941 666.492 365.027 666.492 365.07 666.534C365.07 666.534 365.07 666.534 365.112 666.576C365.112 666.576 365.155 666.617 365.198 666.659L396.025 706.791C396.025 706.791 396.025 706.833 396.025 706.875C396.025 706.875 396.025 706.875 396.025 706.917C396.025 706.917 396.025 706.959 396.025 707C396.025 707 396.025 707.042 396.025 707.084C396.025 707.084 396.025 707.126 396.025 707.168C396.025 707.168 396.025 707.21 396.025 707.252C396.025 707.252 396.025 707.252 396.025 707.293C396.025 707.293 396.025 707.335 396.025 707.377L365.198 747.509C365.198 747.551 365.112 747.593 365.07 747.635C365.07 747.635 365.07 747.635 365.027 747.635H364.941C364.898 747.635 364.855 747.635 364.812 747.635C364.769 747.635 364.727 747.635 364.684 747.635H364.598C364.598 747.635 364.598 747.635 364.555 747.635C364.512 747.635 364.469 747.551 364.426 747.509L333.599 707.377C333.599 707.377 333.599 707.335 333.599 707.293C333.599 707.293 333.599 707.293 333.599 707.252C333.599 707.252 333.599 707.21 333.599 707.168C333.599 707.168 333.599 707.126 333.599 707.084ZM372.315 730.686L376.174 722.693L365.756 727.045V744.287L372.315 730.686ZM357.867 683.482L354.008 691.475L364.426 687.123V669.882L357.867 683.482ZM350.535 707.084L365.112 725.539L379.69 707.084L365.112 688.629L350.535 707.084ZM350.921 704.448L362.197 690.136L363.012 689.09L353.236 693.191L350.921 704.406V704.448ZM379.304 704.448L376.989 693.233L367.213 689.132L379.304 704.448ZM379.304 709.721L367.213 725.037L376.989 720.936L379.304 709.721ZM350.921 709.721L353.236 720.936L363.012 725.037L350.921 709.721ZM381.062 706.415H394.01L378.575 694.362L381.062 706.415ZM381.062 707.712L378.575 719.764L394.01 707.712H381.062ZM349.12 707.712H336.172L351.607 719.764L349.12 707.712ZM349.12 706.415L351.607 694.362L336.172 706.415H349.12ZM365.756 669.882V687.123L376.174 691.475L372.315 683.482L365.756 669.882ZM364.426 744.287V727.045L354.008 722.693L357.867 730.686L364.426 744.287ZM348.563 695.074L352.078 692.354L355.337 685.574L361.64 672.476L337.93 703.36L348.52 695.074H348.563ZM374.802 685.574L378.061 692.354L381.576 695.074L392.167 703.36L368.457 672.476L374.759 685.574H374.802ZM381.619 719.094L378.104 721.815L374.459 729.347L368.5 741.65L392.21 710.767L381.619 719.053V719.094ZM355.723 729.347L352.078 721.815L348.563 719.094L337.972 710.809L361.682 741.692L355.723 729.389V729.347Z" fill="#E39A9B"/>
<path opacity="0.1" d="M-5.97108 627.323C-5.97108 627.323 -5.97108 627.281 -5.97108 627.239C-5.97108 627.239 -5.97108 627.197 -5.97108 627.155C-5.97108 627.155 -5.97108 627.155 -5.97108 627.113C-5.97108 627.113 -5.97108 627.071 -5.97108 627.03L24.8561 586.898C24.8561 586.898 24.899 586.856 24.9419 586.814C24.9419 586.814 24.9419 586.814 24.9848 586.772C24.9848 586.772 25.0705 586.772 25.1134 586.73C25.1134 586.73 25.1134 586.73 25.1563 586.73H25.242H25.3278C25.3278 586.73 25.3277 586.73 25.3706 586.73C25.3706 586.73 25.4564 586.73 25.4993 586.772C25.4993 586.772 25.4993 586.772 25.5422 586.814C25.5422 586.814 25.5851 586.856 25.6279 586.898L56.4551 627.03C56.4551 627.03 56.4551 627.071 56.4551 627.113C56.4551 627.113 56.4551 627.113 56.4551 627.155C56.4551 627.155 56.4551 627.197 56.4551 627.239C56.4551 627.239 56.4551 627.281 56.4551 627.323C56.4551 627.323 56.4551 627.364 56.4551 627.406C56.4551 627.406 56.4551 627.448 56.4551 627.49C56.4551 627.49 56.4551 627.49 56.4551 627.532C56.4551 627.532 56.4551 627.574 56.4551 627.616L25.6279 667.747C25.6279 667.789 25.5422 667.831 25.4993 667.873C25.4993 667.873 25.4993 667.873 25.4564 667.873H25.3706C25.3277 667.873 25.2849 667.873 25.242 667.873C25.1991 667.873 25.1563 667.873 25.1134 667.873H25.0277C25.0277 667.873 25.0276 667.873 24.9848 667.873C24.9419 667.873 24.899 667.789 24.8561 667.747L-5.97108 627.616C-5.97108 627.616 -5.97108 627.574 -5.97108 627.532C-5.97108 627.532 -5.97108 627.532 -5.97108 627.49C-5.97108 627.49 -5.97108 627.448 -5.97108 627.406C-5.97108 627.406 -5.97108 627.364 -5.97108 627.323ZM32.7451 650.925L36.6039 642.932L26.1853 647.284V664.525L32.7451 650.925ZM18.2534 603.721L14.3946 611.713L24.8133 607.361V590.12L18.2534 603.721ZM10.9217 627.323L25.4993 645.777L40.0768 627.323L25.4993 608.868L10.9217 627.323ZM11.3076 624.686L22.5838 610.374L23.3984 609.328L13.6229 613.429L11.3076 624.644V624.686ZM39.691 624.686L37.3757 613.471L27.6001 609.37L39.691 624.686ZM39.691 629.917L27.6001 645.233L37.3757 641.132L39.691 629.917ZM11.3076 629.917L13.6229 641.132L23.3984 645.233L11.3076 629.917ZM41.4488 626.653H54.3971L38.9621 614.601L41.4488 626.653ZM41.4488 627.95L38.9621 640.002L54.3971 627.95H41.4488ZM9.50684 627.95H-3.44139L11.9936 640.002L9.50684 627.95ZM9.50684 626.653L11.9936 614.601L-3.44139 626.653H9.50684ZM26.1424 590.12V607.361L36.561 611.713L32.7023 603.721L26.1424 590.12ZM24.8133 664.525V647.284L14.3946 642.932L18.2534 650.925L24.8133 664.525ZM8.99236 615.312L12.5081 612.592L15.7666 605.813L22.0693 592.715L-1.64065 623.598L8.94951 615.312H8.99236ZM35.2319 605.813L38.4905 612.592L42.0062 615.312L52.5963 623.598L28.8864 592.715L35.1891 605.813H35.2319ZM42.0062 639.291L38.4905 642.011L34.8461 649.544L28.8864 661.847L52.5963 630.963L42.0062 639.249V639.291ZM16.1096 649.586L12.4652 642.053L8.94951 639.333L-1.64065 631.047L22.0693 661.931L16.1096 649.627V649.586Z" fill="#E39A9B"/>
<path opacity="0.1" d="M-17.5233 286.592C-17.5233 286.592 -17.5233 286.55 -17.5233 286.509C-17.5233 286.509 -17.5233 286.467 -17.5233 286.425C-17.5233 286.425 -17.5233 286.425 -17.5233 286.383C-17.5233 286.383 -17.5233 286.341 -17.5233 286.299L13.3039 246.167C13.3039 246.167 13.3468 246.126 13.3897 246.084C13.3897 246.084 13.3896 246.084 13.4325 246.042C13.4325 246.042 13.5183 246.042 13.5611 246C13.5611 246 13.5612 246 13.6041 246H13.6898H13.7755C13.7755 246 13.7755 246 13.8184 246C13.8184 246 13.9042 246 13.9471 246.042C13.9471 246.042 13.947 246.042 13.9899 246.084C13.9899 246.084 14.0328 246.126 14.0757 246.167L44.9028 286.299C44.9028 286.299 44.9028 286.341 44.9028 286.383C44.9028 286.383 44.9028 286.383 44.9028 286.425C44.9028 286.425 44.9028 286.467 44.9028 286.509C44.9028 286.509 44.9028 286.55 44.9028 286.592C44.9028 286.592 44.9028 286.634 44.9028 286.676C44.9028 286.676 44.9028 286.718 44.9028 286.76C44.9028 286.76 44.9028 286.76 44.9028 286.801C44.9028 286.801 44.9028 286.843 44.9028 286.885L14.0757 327.017C14.0757 327.059 13.9899 327.101 13.9471 327.143C13.9471 327.143 13.947 327.143 13.9041 327.143H13.8184C13.7755 327.143 13.7326 327.143 13.6898 327.143C13.6469 327.143 13.604 327.143 13.5611 327.143H13.4754C13.4754 327.143 13.4754 327.143 13.4325 327.143C13.3896 327.143 13.3468 327.059 13.3039 327.017L-17.5233 286.885C-17.5233 286.885 -17.5233 286.843 -17.5233 286.801C-17.5233 286.801 -17.5233 286.801 -17.5233 286.76C-17.5233 286.76 -17.5233 286.718 -17.5233 286.676C-17.5233 286.676 -17.5233 286.634 -17.5233 286.592ZM21.1929 310.194L25.0517 302.201L14.633 306.554V323.795L21.1929 310.194ZM6.70116 262.99L2.84236 270.983L13.261 266.631V249.39L6.70116 262.99ZM-0.630516 286.592L13.9471 305.047L28.5246 286.592L13.9471 268.137L-0.630516 286.592ZM-0.244656 283.956L11.0315 269.644L11.8462 268.598L2.07064 272.699L-0.244656 283.914V283.956ZM28.1387 283.956L25.8234 272.741L16.0479 268.64L28.1387 283.956ZM28.1387 289.187L16.0479 304.503L25.8234 300.402L28.1387 289.187ZM-0.244656 289.187L2.07064 300.402L11.8462 304.503L-0.244656 289.187ZM29.8965 285.923H42.8448L27.4098 273.871L29.8965 285.923ZM29.8965 287.22L27.4098 299.272L42.8448 287.22H29.8965ZM-2.0454 287.22H-14.9936L0.44136 299.272L-2.0454 287.22ZM-2.0454 285.923L0.44136 273.871L-14.9936 285.923H-2.0454ZM14.5902 249.39V266.631L25.0088 270.983L21.15 262.99L14.5902 249.39ZM13.261 323.795V306.554L2.84236 302.201L6.70116 310.194L13.261 323.795ZM-2.55988 274.582L0.955841 271.862L4.21439 265.083L10.517 251.984L-13.1929 282.868L-2.60274 274.582H-2.55988ZM23.6797 265.083L26.9382 271.862L30.4539 274.582L41.0441 282.868L17.3342 251.984L23.6368 265.083H23.6797ZM30.4539 298.561L26.9382 301.281L23.2938 308.813L17.3342 321.117L41.0441 290.233L30.4539 298.519V298.561ZM4.5574 308.855L0.912991 301.323L-2.60274 298.602L-13.1929 290.317L10.517 321.2L4.5574 308.897V308.855Z" fill="#E39A9B"/>
<path opacity="0.1" d="M31.7165 429.634C31.7165 429.634 31.7165 429.55 31.7165 429.509L33.9889 418.796C33.9889 418.796 33.9889 418.754 33.9889 418.712C33.9889 418.712 33.9889 418.712 33.9889 418.67L41.1061 404.777C41.1061 404.777 41.1061 404.735 41.1061 404.693L48.2663 396.323C48.2663 396.323 48.2663 396.323 48.3091 396.282L56.0267 390.339C56.0267 390.339 56.0266 390.339 56.0695 390.339C56.0695 390.339 56.0696 390.339 56.1124 390.339C56.1124 390.339 56.1124 390.339 56.1553 390.339C56.1553 390.339 56.1982 390.339 56.2411 390.339C56.2411 390.339 56.241 390.339 56.2839 390.339C56.2839 390.339 56.3268 390.339 56.3697 390.339C56.3697 390.339 56.4125 390.339 56.4554 390.339L64.1729 396.282C64.1729 396.282 64.173 396.282 64.2158 396.323L71.376 404.693C71.376 404.693 71.376 404.735 71.376 404.777L78.4932 418.67C78.4932 418.67 78.4932 418.67 78.4932 418.712C78.4932 418.712 78.4932 418.754 78.4932 418.796L80.7656 429.509C80.7656 429.509 80.7656 429.592 80.7656 429.634L78.922 438.673C78.922 438.673 78.922 438.673 78.922 438.715C78.922 438.757 78.9219 438.841 78.8362 438.883L73.5626 446.582C73.5626 446.582 73.5626 446.624 73.4768 446.666L65.5878 451.813C65.5878 451.813 65.4592 451.855 65.4163 451.897L56.1124 453.697C56.1124 453.697 56.0267 453.697 55.9838 453.697C55.9409 453.697 55.898 453.697 55.8551 453.697L46.5512 451.897C46.4655 451.897 46.4226 451.897 46.3798 451.813L38.4908 446.666C38.4908 446.666 38.4479 446.624 38.405 446.582L33.1314 438.883C33.1314 438.883 33.0885 438.757 33.0456 438.715L31.2019 429.634H31.7165ZM34.975 438.841L38.9624 444.657L39.3053 440.138L39.6055 436.288H39.5197L35.0178 438.841H34.975ZM64.3873 397.579L62.3293 401.178L69.6181 403.73L64.3873 397.621V397.579ZM43.5071 403.73L50.7959 401.178L48.7379 397.579L43.5071 403.689V403.73ZM55.9838 451.813V442.523L52.4252 443.821L49.5525 444.867L50.2385 445.62L55.9409 451.813H55.9838ZM42.2637 405.363L41.7064 418.628L48.3949 414.736L49.3382 409.966L50.8387 402.308L44.1932 404.651L42.2209 405.321L42.2637 405.363ZM61.1717 402.81L60.4856 403.689L57.3558 407.622L59.4138 409.631L63.3154 413.397L61.2145 402.81H61.1717ZM55.7694 407.664L51.9106 402.852L49.8098 413.439L53.1111 410.217L55.7265 407.664H55.7694ZM63.7013 415.448L56.5411 408.501H56.4983L49.381 415.448L48.009 418.921L44.9649 426.789L45.8653 430.429L47.1944 435.828V435.911L56.5411 441.059L60.4428 438.883L65.845 435.911V435.828L67.0027 431.141L68.0746 426.83L65.0304 418.963L63.6584 415.49L63.7013 415.448ZM47.5803 437.376L48.9951 443.862L55.212 441.561L47.5803 437.334V437.376ZM57.956 441.603L64.1729 443.904L65.5878 437.418L57.956 441.644V441.603ZM69.4037 426.747L73.1767 434.447L80.0367 429.509L72.2763 420.721L72.0191 421.223L69.4466 426.705L69.4037 426.747ZM68.9321 428.421L68.289 431.015L67.1742 435.577L72.062 434.865L69.6181 429.885L68.9321 428.462V428.421ZM41.0632 434.823L45.951 435.535L44.1932 428.379L43.5071 429.802L41.0632 434.781V434.823ZM41.149 421.223L40.8918 420.721L33.1314 429.509L39.9914 434.447L43.7644 426.747L41.1918 421.265L41.149 421.223ZM41.7921 419.884L44.3218 425.24L47.1086 418.084L47.7517 416.452L42.4353 419.549L41.7921 419.926V419.884ZM52.2966 401.387L55.9838 406.032V393.31L52.2966 401.387ZM57.1414 393.31V406.032L60.8287 401.387L57.1414 393.31ZM70.8614 405.363L68.9321 404.693L62.2435 402.35L63.7442 410.008L64.6875 414.778L71.376 418.67L70.8186 405.404L70.8614 405.363ZM65.3734 416.452L65.5449 416.871L68.8034 425.282L71.333 419.926L70.6899 419.549L65.3734 416.452ZM72.4049 435.953L67.6029 436.665L66.9169 436.748L66.7883 437.292L65.2877 444.197L73.0909 445.662L72.6622 439.552L72.4049 435.953ZM57.1414 451.813L63.5727 444.867L60.6572 443.821L57.1414 442.523V451.813ZM46.3369 437.292L46.2082 436.748L41.9207 436.121L40.7202 435.953L40.463 439.552L40.0343 445.662L47.8375 444.197L46.3369 437.292ZM37.2473 418.628L40.5059 419.047V417.875L40.9775 407.622L35.4466 418.419L37.2045 418.628H37.2473ZM51.3104 399.755L51.5676 400.215L55.0834 392.515L49.5954 396.742L51.3104 399.755ZM72.6193 419.047L75.8779 418.628L77.6357 418.419L72.1048 407.622L72.5765 419.047H72.6193ZM73.6483 436.33H73.5626L73.8627 440.138L74.2057 444.657L78.1931 438.841L73.6912 436.33H73.6483ZM64.2158 445.871L62.3722 447.88L58.1704 452.399L65.1591 451.06L64.2158 445.913V445.871ZM50.5815 447.671L48.9094 445.871L47.9661 451.018L54.9548 452.357L50.5815 447.671ZM39.9056 420.093L35.0178 419.465L33.3028 427.542L39.9056 420.093ZM58.0418 392.515L61.5575 400.215L63.5298 396.742L58.0418 392.515ZM78.1073 419.465L73.2196 420.093L79.8224 427.542L78.1073 419.465ZM73.9913 435.242L78.1073 437.543L78.579 437.794L79.9938 430.931L73.9913 435.242ZM70.0897 446.248L65.2877 445.369L66.2738 450.558L72.2335 446.666L70.1325 446.29L70.0897 446.248ZM46.8514 450.516L47.8375 445.327L43.0355 446.206L40.9346 446.582L46.8942 450.474L46.8514 450.516ZM34.5463 437.753L35.0178 437.502L39.1339 435.2L33.1314 430.89L34.5463 437.753Z" fill="#E39A9B"/>
<path opacity="0.1" d="M237.162 -14.8037C237.162 -14.8037 237.162 -14.8456 237.162 -14.8874L235.404 -23.1733C235.404 -23.1733 235.404 -23.2151 235.404 -23.257L229.916 -33.97C229.916 -33.97 229.916 -33.97 229.916 -34.0118L224.385 -40.4982C224.385 -40.4982 224.385 -40.4982 224.385 -40.5401L218.425 -45.1014C218.425 -45.1014 218.425 -45.1014 218.382 -45.1014C218.382 -45.1014 218.382 -45.1014 218.34 -45.1014C218.34 -45.1014 218.34 -45.1014 218.297 -45.1014C218.297 -45.1014 218.297 -45.1014 218.254 -45.1014C218.254 -45.1014 218.254 -45.1014 218.211 -45.1014C218.211 -45.1014 218.211 -45.1014 218.168 -45.1014L212.208 -40.5401C212.208 -40.5401 212.208 -40.5401 212.208 -40.4982L206.678 -34.0118C206.678 -34.0118 206.678 -34.0118 206.678 -33.97L201.19 -23.257C201.19 -23.257 201.19 -23.2151 201.19 -23.1733L199.432 -14.8874C199.432 -14.8874 199.432 -14.8456 199.432 -14.8037L200.847 -7.8152C200.847 -7.77335 200.847 -7.73151 200.889 -7.68966L204.963 -1.74727C204.963 -1.74727 204.963 -1.74729 205.005 -1.70544L211.094 2.2701C211.094 2.2701 211.179 2.31196 211.222 2.31196L218.382 3.69291C218.382 3.69291 218.425 3.69291 218.468 3.69291C218.511 3.69291 218.511 3.69291 218.554 3.69291L225.714 2.31196C225.757 2.31196 225.8 2.31195 225.843 2.2701L231.931 -1.70544C231.931 -1.70544 231.931 -1.70542 231.974 -1.74727L236.047 -7.68966C236.047 -7.68966 236.047 -7.77335 236.09 -7.8152L237.505 -14.8037H237.162ZM234.675 -7.6478L231.588 -3.1701L231.331 -6.64347L231.116 -9.61465H231.159L234.632 -7.6478H234.675ZM211.908 -39.5357L213.495 -36.7738L207.878 -34.8069L211.908 -39.5357ZM228.072 -34.8069L222.456 -36.7738L224.042 -39.5357L228.072 -34.8069ZM218.425 2.35378V-4.84402L221.169 -3.83965L223.356 -3.04457L222.799 -2.4587L218.382 2.31196L218.425 2.35378ZM229.015 -33.5097L229.444 -23.257L224.256 -26.27L223.527 -29.9526L222.37 -35.8531L227.515 -34.0537L229.015 -33.5097ZM214.395 -35.4765L214.952 -34.8069L217.396 -31.7521L215.81 -30.2037L212.809 -27.2744L214.438 -35.4765H214.395ZM218.554 -31.7521L221.512 -35.4765L223.142 -27.2744L220.569 -29.7434L218.554 -31.7102V-31.7521ZM212.423 -25.726L217.954 -31.0825L223.442 -25.726L224.471 -23.0477L226.829 -16.9798L226.143 -14.176L225.114 -10.0331L217.911 -6.01575L214.91 -7.68966L210.708 -9.99126V-10.075L209.807 -13.7157L208.993 -17.0635L211.351 -23.1314L212.38 -25.8097L212.423 -25.726ZM224.942 -8.77768L223.828 -3.75597L219.026 -5.51357L224.899 -8.77768H224.942ZM216.925 -5.55542L212.123 -3.79783L211.008 -8.81953L216.882 -5.55542H216.925ZM208.05 -17.0217L205.134 -11.0793L199.86 -14.8874L205.863 -21.6668L206.034 -21.2901L208.05 -17.0217ZM208.435 -15.6825L208.907 -13.6739L209.765 -10.1587L205.992 -10.7445L207.878 -14.5945L208.435 -15.6825ZM229.959 -10.7445L226.186 -10.1587L227.558 -15.6825L228.115 -14.5945L230.002 -10.7445H229.959ZM229.873 -21.2483L230.045 -21.6249L236.047 -14.8456L230.773 -11.0375L227.858 -16.9798L229.873 -21.2483ZM229.358 -22.2945L227.429 -18.1516L225.285 -23.6755L224.771 -24.9309L228.887 -22.5456L229.358 -22.2526V-22.2945ZM221.255 -36.5645L218.425 -32.9656V-42.7998L221.255 -36.5645ZM217.525 -42.7998V-32.9656L214.695 -36.5645L217.525 -42.7998ZM206.892 -33.5097L208.393 -34.0118L213.538 -35.8113L212.38 -29.9108L211.651 -26.2282L206.463 -23.2151L206.892 -33.4678V-33.5097ZM211.179 -24.9727L211.051 -24.6798L208.521 -18.1934L206.592 -22.3363L207.063 -22.6293L211.179 -25.0146V-24.9727ZM205.734 -9.90758L209.464 -9.36354L210.022 -9.27986L210.108 -8.86139L211.265 -3.54672L205.22 -2.41685L205.563 -7.14562L205.777 -9.90758H205.734ZM217.525 2.35378L212.551 -3.00271L214.781 -3.83965L217.525 -4.84402V2.35378ZM225.843 -8.86139L225.928 -9.27986L229.23 -9.78204L230.173 -9.90758L230.387 -7.14562L230.73 -2.41685L224.685 -3.54672L225.843 -8.86139ZM232.917 -23.2988L230.387 -22.964V-23.8847L230.002 -31.8357L234.289 -23.5081L232.917 -23.3407V-23.2988ZM222.027 -37.8618L221.812 -37.527L219.111 -43.4694L223.356 -40.2053L222.027 -37.8618ZM205.563 -22.964L203.033 -23.2988L201.661 -23.4662L205.949 -31.7939L205.563 -22.964ZM204.748 -9.57279H204.791L204.577 -6.64347L204.319 -3.1701L201.232 -7.6478L204.705 -9.57279H204.748ZM212.037 -2.2076L213.452 -0.659252L216.667 2.81411L211.265 1.76792L211.994 -2.2076H212.037ZM222.584 -0.826614L223.87 -2.2076L224.599 1.76792L219.197 2.81411L222.584 -0.826614ZM230.859 -22.1271L234.632 -22.6293L235.961 -16.3939L230.859 -22.1689V-22.1271ZM216.796 -43.4275L214.095 -37.4852L212.551 -40.1634L216.796 -43.4275ZM201.318 -22.6293L205.091 -22.1271L199.989 -16.3521L201.318 -22.5874V-22.6293ZM204.491 -10.4516L201.318 -8.694L200.975 -8.48475L199.903 -13.7994L204.534 -10.4516H204.491ZM207.492 -1.91467L211.179 -2.58424L210.451 1.3913L205.863 -1.62173L207.492 -1.91467ZM225.457 1.3913L224.728 -2.58424L228.415 -1.91467L230.045 -1.62173L225.457 1.3913ZM234.975 -8.48475L234.632 -8.694L231.459 -10.4516L236.09 -13.7994L235.018 -8.48475H234.975Z" fill="#E39A9B"/>
<path opacity="0.1" d="M132.386 683.608C132.386 683.566 132.386 683.524 132.386 683.482L135.13 670.677C135.13 670.677 135.13 670.593 135.173 670.593C135.173 670.593 135.173 670.551 135.173 670.509L143.662 653.896C143.662 653.896 143.662 653.854 143.705 653.812L152.237 643.81C152.237 643.81 152.237 643.769 152.28 643.727L161.541 636.655C161.541 636.655 161.541 636.655 161.584 636.655C161.584 636.655 161.627 636.655 161.669 636.655C161.669 636.655 161.669 636.655 161.712 636.655C161.712 636.655 161.712 636.655 161.755 636.655C161.755 636.655 161.798 636.655 161.841 636.655H161.927C161.927 636.655 161.97 636.655 162.012 636.655C162.012 636.655 162.055 636.655 162.098 636.655C162.098 636.655 162.141 636.655 162.184 636.655C162.184 636.655 162.184 636.655 162.227 636.655L171.488 643.727C171.488 643.727 171.488 643.769 171.531 643.81L180.063 653.812C180.063 653.812 180.063 653.854 180.106 653.896L188.595 670.509V670.551C188.595 670.551 188.595 670.635 188.638 670.635L191.382 683.44C191.382 683.44 191.382 683.524 191.382 683.566L189.195 694.404C189.195 694.404 189.195 694.404 189.195 694.446C189.195 694.53 189.195 694.572 189.109 694.655L182.807 703.82C182.807 703.82 182.764 703.862 182.721 703.904L173.331 710.055C173.246 710.097 173.203 710.139 173.117 710.139L162.012 712.273C162.012 712.273 161.927 712.273 161.884 712.273C161.841 712.273 161.798 712.273 161.755 712.273L150.65 710.139C150.565 710.139 150.479 710.097 150.436 710.055L141.046 703.904C141.046 703.904 141.004 703.862 140.961 703.82L134.658 694.655C134.658 694.655 134.615 694.53 134.572 694.446C134.572 694.446 134.572 694.446 134.572 694.404L132.386 683.566V683.608ZM136.287 694.655L141.046 701.602L141.432 696.204L141.775 691.642H141.69L136.287 694.655ZM171.445 645.359L169.001 649.627L177.705 652.682L171.445 645.359ZM146.492 652.682L155.195 649.627L152.751 645.359L146.492 652.682ZM161.369 710.139V699.049L157.125 700.598L153.695 701.853L154.552 702.774L161.369 710.139ZM144.991 654.649L144.305 670.509L152.28 665.864L153.394 660.173L155.195 651.05L147.263 653.812L144.948 654.649H144.991ZM167.586 651.594L166.772 652.64L162.999 657.369L165.442 659.754L170.073 664.274L167.543 651.636L167.586 651.594ZM161.155 657.369L156.567 651.594L154.038 664.232L157.982 660.382L161.112 657.327L161.155 657.369ZM170.63 666.701L162.098 658.415H162.055L153.566 666.701L151.937 670.844L148.292 680.218L149.364 684.528L150.951 690.973C150.951 690.973 150.951 690.973 150.951 691.015V691.098L162.098 697.25L166.772 694.655L173.246 691.098V690.973L174.618 685.365L175.904 680.218L172.26 670.844L170.63 666.701ZM151.336 692.898L153.009 700.64L160.426 697.92L151.294 692.898H151.336ZM163.727 697.92L171.145 700.64L172.817 692.898L163.685 697.92H163.727ZM177.405 680.176L181.906 689.341L190.096 683.44L180.792 672.978L180.492 673.606L177.405 680.176ZM176.847 682.227L176.075 685.323L174.746 690.764L180.577 689.885L177.662 683.942L176.847 682.227ZM143.576 689.843L149.407 690.722L147.306 682.185L146.492 683.901L143.576 689.843ZM143.662 673.606L143.362 672.978L134.058 683.44L142.247 689.341L146.749 680.176L143.662 673.606ZM144.477 672.016L147.478 678.419L150.822 669.84L151.594 667.873L145.248 671.556L144.519 671.974L144.477 672.016ZM156.996 649.92L161.412 655.444V640.253L156.996 649.878V649.92ZM162.784 640.295V655.486L167.2 649.962L162.784 640.337V640.295ZM179.162 654.649L176.847 653.854L168.872 651.05L170.673 660.173L171.788 665.864L179.763 670.509L179.077 654.649H179.162ZM172.603 667.873L172.774 668.375L176.676 678.419L179.677 672.016L178.948 671.597L172.603 667.915V667.873ZM181.006 691.182L175.261 692.019L174.446 692.145L174.318 692.772L172.517 701.016L181.864 702.774L181.349 695.492L181.049 691.182H181.006ZM162.784 710.139L170.459 701.853L166.986 700.598L162.784 699.049V710.139ZM149.879 692.814L149.75 692.186L144.648 691.433L143.19 691.224L142.89 695.534L142.376 702.816L151.722 701.058L149.922 692.814H149.879ZM138.988 670.467L142.89 670.97V669.547L143.447 657.285L136.845 670.175L138.946 670.426L138.988 670.467ZM155.796 647.953L156.096 648.497L160.297 639.333L153.737 644.355L155.796 647.953ZM181.263 670.97L185.165 670.467L187.266 670.216L180.663 657.327L181.22 671.011L181.263 670.97ZM182.507 691.684H182.421L182.764 696.204L183.15 701.602L187.909 694.655L182.507 691.684ZM171.231 703.067L169.001 705.452L164.028 710.85L172.388 709.218L171.231 703.067ZM154.938 705.201L152.923 703.067L151.765 709.218L160.126 710.85L154.895 705.243L154.938 705.201ZM142.204 672.267L136.373 671.514L134.315 681.139L142.204 672.225V672.267ZM163.856 639.333L168.058 648.497L170.416 644.355L163.856 639.333ZM187.823 671.514L181.992 672.267L189.881 681.18L187.823 671.556V671.514ZM182.893 690.303L187.823 693.023L188.381 693.316L190.053 685.114L182.893 690.261V690.303ZM178.262 703.485L172.517 702.439L173.674 708.633L180.792 703.987L178.262 703.527V703.485ZM150.479 708.591L151.637 702.397L145.891 703.443L143.362 703.904L150.479 708.549V708.591ZM135.773 693.358L136.33 693.065L141.261 690.345L134.101 685.198L135.773 693.4V693.358Z" fill="#E39A9B"/>
<path opacity="0.1" d="M62.6723 821.119C62.6723 821.119 62.6723 821.077 62.6723 821.035L64.4301 812.749C64.4301 812.749 64.4301 812.708 64.4301 812.666L69.9182 801.953C69.9182 801.953 69.9182 801.953 69.9182 801.911L75.4491 795.425C75.4491 795.425 75.4491 795.425 75.4491 795.383L81.4087 790.821C81.4087 790.821 81.4087 790.821 81.4515 790.821C81.4515 790.821 81.4516 790.821 81.4945 790.821C81.4945 790.821 81.4944 790.821 81.5373 790.821C81.5373 790.821 81.5373 790.821 81.5802 790.821C81.5802 790.821 81.5802 790.821 81.6231 790.821C81.6231 790.821 81.6231 790.821 81.6659 790.821L87.6256 795.383C87.6256 795.383 87.6256 795.383 87.6256 795.425L93.1565 801.911C93.1565 801.911 93.1565 801.911 93.1565 801.953L98.6445 812.666C98.6445 812.666 98.6445 812.708 98.6445 812.749L100.402 821.035C100.402 821.035 100.402 821.077 100.402 821.119L98.9875 828.108C98.9875 828.149 98.9875 828.191 98.9446 828.233L94.8715 834.175C94.8715 834.175 94.8715 834.175 94.8286 834.217L88.7404 838.193C88.6975 838.193 88.6546 838.235 88.6117 838.235L81.4515 839.616C81.4515 839.616 81.4087 839.616 81.3658 839.616C81.323 839.616 81.323 839.616 81.2801 839.616L74.1199 838.235C74.0771 838.235 74.0342 838.235 73.9913 838.193L67.9031 834.217C67.9031 834.217 67.903 834.217 67.8601 834.175L63.787 828.233C63.787 828.233 63.787 828.149 63.7442 828.108L62.3293 821.119H62.6723ZM65.1591 828.233L68.246 832.711L68.5033 829.237L68.7176 826.266H68.6748L65.2019 828.233H65.1591ZM87.9257 796.345L86.3393 799.107L91.956 801.074L87.9257 796.345ZM71.7618 801.074L77.3784 799.107L75.7921 796.345L71.7618 801.074ZM81.4087 838.235V831.037L78.6647 832.041L76.4781 832.836L77.0354 833.422L81.4515 838.193L81.4087 838.235ZM70.8185 802.371L70.3898 812.624L75.5777 809.611L76.3065 805.928L77.4642 800.028L72.3192 801.827L70.8185 802.371ZM85.439 800.404L84.8816 801.074L82.4377 804.129L84.0241 805.677L87.0253 808.607L85.3961 800.404H85.439ZM81.2801 804.129L78.3217 800.404L76.6924 808.607L79.2649 806.138L81.2801 804.171V804.129ZM87.4112 810.155L81.8803 804.798L76.3923 810.155L75.3633 812.833L73.0051 818.901L73.6912 821.705L74.7202 825.848L81.9232 829.865L84.9245 828.191L89.1262 825.89V825.806L90.0266 822.165L90.8412 818.817L88.4831 812.749L87.4541 810.071L87.4112 810.155ZM74.8917 827.103L76.0065 832.125L80.8084 830.367L74.9346 827.103H74.8917ZM82.9094 830.367L87.7113 832.125L88.8261 827.103L82.9522 830.367H82.9094ZM91.7845 818.859L94.7 824.802L99.9736 820.993L93.9711 814.214L93.7996 814.591L91.7845 818.859ZM91.3986 820.198L90.927 822.207L90.0695 825.722L93.8425 825.136L91.956 821.286L91.3986 820.198ZM69.8753 825.136L73.6483 825.722L72.2763 820.198L71.7189 821.286L69.8324 825.136H69.8753ZM69.961 814.633L69.7895 814.256L63.787 821.035L69.0606 824.843L71.9762 818.901L69.961 814.633ZM70.4755 813.586L72.4049 817.729L74.5487 812.205L75.0632 810.95L70.9472 813.335L70.4755 813.628V813.586ZM78.5789 799.316L81.4087 802.915V793.081L78.5789 799.316ZM82.3091 793.081V802.915L85.1388 799.316L82.3091 793.081ZM92.9421 802.371L91.4415 801.869L86.2965 800.07L87.4541 805.97L88.183 809.653L93.3708 812.666L92.9421 802.413V802.371ZM88.6546 810.908L88.7832 811.201L91.3128 817.687L93.2422 813.545L92.7706 813.252L88.6546 810.866V810.908ZM94.0998 825.973L90.3696 826.517L89.8122 826.601L89.7265 827.019L88.5688 832.334L94.6142 833.464L94.2712 828.735L94.0568 825.973H94.0998ZM82.3091 838.235L87.2826 832.878L85.0531 832.041L82.3091 831.037V838.235ZM73.9913 827.019L73.9056 826.601L70.6041 826.099L69.6609 825.973L69.4466 828.735L69.1036 833.464L75.1489 832.334L73.9913 827.019ZM66.9169 812.582L69.4466 812.917V811.996L69.8324 804.045L65.5449 812.373L66.9169 812.54V812.582ZM77.8072 798.019L78.0216 798.354L80.7227 792.411L76.4781 795.676L77.8072 798.019ZM94.2712 812.917L96.8008 812.582L98.1729 812.415L93.8854 804.087L94.2712 812.917ZM95.0859 826.308H95.043L95.2573 829.237L95.5146 832.711L98.6016 828.233L95.1287 826.308H95.0859ZM87.7971 833.673L86.3822 835.222L83.1666 838.695L88.5688 837.649L87.84 833.673H87.7971ZM77.2498 835.054L75.9635 833.673L75.2347 837.649L80.637 838.695L77.2498 835.054ZM68.9749 813.754L65.2019 813.252L63.8728 819.487L68.9749 813.712V813.754ZM83.038 792.453L85.7391 798.396L87.2826 795.717L83.038 792.453ZM98.5159 813.252L94.7429 813.754L99.845 819.529L98.5159 813.293V813.252ZM95.3431 825.429L98.5159 827.187L98.8589 827.396L99.9308 822.081L95.3003 825.429H95.3431ZM92.3419 833.966L88.6546 833.297L89.3835 837.272L93.9711 834.259L92.3419 833.966ZM74.3772 837.272L75.106 833.297L71.4188 833.966L69.7895 834.259L74.3772 837.272ZM64.8589 827.396L65.2019 827.187L68.3747 825.429L63.7442 822.081L64.816 827.396H64.8589Z" fill="#E39A9B"/>
<path opacity="0.1" d="M188.21 364.77C188.21 364.77 188.21 364.729 188.21 364.687L189.968 356.401C189.968 356.401 189.968 356.359 189.968 356.317L195.456 345.604C195.456 345.604 195.456 345.604 195.456 345.562L200.987 339.076C200.987 339.076 200.987 339.076 200.987 339.034L206.947 334.473C206.947 334.473 206.947 334.473 206.99 334.473C206.99 334.473 206.99 334.473 207.032 334.473C207.032 334.473 207.032 334.473 207.075 334.473C207.075 334.473 207.075 334.473 207.118 334.473C207.118 334.473 207.118 334.473 207.161 334.473C207.161 334.473 207.161 334.473 207.204 334.473L213.164 339.034C213.164 339.034 213.164 339.034 213.164 339.076L218.695 345.562C218.695 345.562 218.695 345.562 218.695 345.604L224.183 356.317C224.183 356.317 224.183 356.359 224.183 356.401L225.94 364.687C225.94 364.687 225.94 364.729 225.94 364.77L224.526 371.759C224.526 371.801 224.526 371.843 224.483 371.884L220.41 377.827C220.41 377.827 220.41 377.827 220.367 377.869L214.278 381.844C214.236 381.844 214.193 381.886 214.15 381.886L206.99 383.267C206.99 383.267 206.947 383.267 206.904 383.267C206.861 383.267 206.861 383.267 206.818 383.267L199.658 381.886C199.615 381.886 199.572 381.886 199.529 381.844L193.441 377.869C193.441 377.869 193.441 377.869 193.398 377.827L189.325 371.884C189.325 371.884 189.325 371.801 189.282 371.759L187.867 364.77H188.21ZM190.74 371.884L193.827 376.362L194.084 372.889L194.299 369.918H194.256L190.783 371.884H190.74ZM213.464 340.038L211.877 342.8L217.494 344.767L213.464 340.038ZM197.343 344.767L202.959 342.8L201.373 340.038L197.343 344.767ZM206.99 381.928V374.73L204.246 375.734L202.059 376.53L202.616 377.115L207.032 381.886L206.99 381.928ZM196.357 346.023L195.928 356.275L201.116 353.262L201.845 349.58L203.002 343.679L197.857 345.479L196.357 346.023ZM210.977 344.056L210.42 344.725L207.976 347.78L209.562 349.329L212.563 352.258L210.934 344.056H210.977ZM206.818 347.822L203.86 344.098L202.23 352.3L204.803 349.831L206.818 347.864V347.822ZM212.949 353.806L207.418 348.45L201.93 353.806L200.901 356.485L198.543 362.552L199.229 365.356L200.258 369.499L207.461 373.517L210.463 371.843L214.664 369.541V369.457L215.565 365.817L216.379 362.469L214.021 356.401L212.992 353.723L212.949 353.806ZM200.473 370.755L201.587 375.776L206.389 374.019L200.515 370.755H200.473ZM208.49 374.019L213.292 375.776L214.407 370.755L208.533 374.019H208.49ZM217.322 362.552L220.238 368.495L225.512 364.687L219.509 357.907L219.338 358.284L217.322 362.552ZM216.979 363.85L216.508 365.858L215.65 369.374L219.423 368.788L217.537 364.938L216.979 363.85ZM195.456 368.83L199.229 369.415L197.857 363.892L197.3 364.98L195.413 368.83H195.456ZM195.499 358.284L195.328 357.907L189.325 364.687L194.599 368.495L197.514 362.552L195.499 358.284ZM196.014 357.28L197.943 361.423L200.087 355.899L200.601 354.643L196.485 357.029L196.014 357.321V357.28ZM204.117 342.968L206.947 346.567V336.732L204.117 342.968ZM207.89 336.732V346.567L210.72 342.968L207.89 336.732ZM218.48 346.023L216.979 345.52L211.834 343.721L212.992 349.622L213.721 353.304L218.909 356.317L218.48 346.064V346.023ZM214.235 354.601L214.364 354.894L216.894 361.381L218.823 357.238L218.352 356.945L214.235 354.56V354.601ZM219.638 369.667L215.908 370.211L215.35 370.294L215.265 370.713L214.107 376.027L220.152 377.157L219.809 372.428L219.595 369.667H219.638ZM207.89 381.928L212.864 376.571L210.634 375.734L207.89 374.73V381.928ZM199.529 370.713L199.444 370.294L196.142 369.792L195.199 369.667L194.985 372.428L194.642 377.157L200.687 376.027L199.529 370.713ZM192.498 356.275L195.027 356.61V355.689L195.413 347.738L191.126 356.066L192.498 356.233V356.275ZM203.345 341.712L203.56 342.047L206.261 336.105L202.016 339.369L203.345 341.712ZM219.852 356.61L222.382 356.275L223.754 356.108L219.466 347.78L219.852 356.61ZM220.624 369.959H220.581L220.795 372.889L221.053 376.362L224.14 371.884L220.667 369.959H220.624ZM213.335 377.325L211.92 378.873L208.705 382.346L214.107 381.3L213.378 377.325H213.335ZM202.788 378.747L201.502 377.367L200.773 381.342L206.175 382.388L202.788 378.747ZM194.556 357.405L190.783 356.903L189.454 363.138L194.556 357.363V357.405ZM208.576 336.105L211.277 342.047L212.821 339.369L208.576 336.105ZM224.054 356.945L220.281 357.447L225.383 363.222L224.054 356.987V356.945ZM220.881 369.123L224.054 370.88L224.397 371.089L225.469 365.775L220.838 369.123H220.881ZM217.88 377.618L214.193 376.948L214.921 380.924L219.509 377.911L217.88 377.618ZM199.915 380.924L200.644 376.948L196.957 377.618L195.328 377.911L199.915 380.924ZM190.397 371.089L190.74 370.88L193.913 369.123L189.282 365.775L190.354 371.089H190.397Z" fill="#E39A9B"/>
<path opacity="0.1" d="M16.5719 159.492C16.5719 159.492 16.5719 159.45 16.5719 159.408L14.814 151.122C14.814 151.122 14.814 151.08 14.814 151.039L9.32601 140.326C9.32601 140.326 9.32601 140.326 9.32601 140.284L3.79511 133.797C3.79511 133.797 3.79511 133.797 3.79511 133.755L-2.16453 129.194C-2.16453 129.194 -2.16453 129.194 -2.2074 129.194C-2.2074 129.194 -2.2074 129.194 -2.25028 129.194C-2.25028 129.194 -2.25027 129.194 -2.29315 129.194C-2.29315 129.194 -2.29315 129.194 -2.33602 129.194C-2.33602 129.194 -2.33602 129.194 -2.3789 129.194C-2.3789 129.194 -2.3789 129.194 -2.42178 129.194L-8.38141 133.755C-8.38141 133.755 -8.38141 133.755 -8.38141 133.797L-13.9123 140.284C-13.9123 140.284 -13.9123 140.284 -13.9123 140.326L-19.4003 151.039C-19.4003 151.039 -19.4003 151.08 -19.4003 151.122L-21.1582 159.408C-21.1582 159.408 -21.1582 159.45 -21.1582 159.492L-19.7433 166.48C-19.7433 166.522 -19.7433 166.564 -19.7004 166.606L-15.6273 172.548C-15.6273 172.548 -15.6273 172.548 -15.5844 172.59L-9.49617 176.566C-9.49617 176.566 -9.41042 176.607 -9.36755 176.607L-2.2074 177.988C-2.2074 177.988 -2.16453 177.988 -2.12165 177.988C-2.07878 177.988 -2.07877 177.988 -2.0359 177.988L5.12425 176.607C5.16712 176.607 5.20999 176.607 5.25287 176.566L11.3411 172.59C11.3411 172.59 11.3411 172.59 11.384 172.548L15.4571 166.606C15.4571 166.606 15.4571 166.522 15.5 166.48L16.9149 159.492H16.5719ZM14.0851 166.606L10.9981 171.084L10.7409 167.61L10.5265 164.639H10.5694L14.0423 166.606H14.0851ZM-8.68155 134.76L-7.09516 137.522L-12.7118 139.489L-8.68155 134.76ZM7.48237 139.489L1.86573 137.522L3.45212 134.76L7.48237 139.489ZM-2.16453 176.649V169.452L0.579477 170.456L2.80899 171.251L2.2516 171.837L-2.16453 176.607V176.649ZM8.42563 140.744L8.85438 150.997L3.66649 147.984L2.93761 144.301L1.77999 138.401L6.92499 140.2L8.42563 140.744ZM-6.19479 138.777L-5.63741 139.447L-3.19353 142.502L-4.77991 144.05L-7.78116 146.979L-6.15191 138.777H-6.19479ZM-2.0359 142.502L0.922487 138.777L2.55173 146.979L-0.020771 144.51L-2.0359 142.543V142.502ZM-8.16704 148.528L-2.63616 143.171L2.85187 148.528L3.88086 151.206L6.23899 157.274L5.55299 160.078L4.524 164.221L-2.67902 168.238L-5.68028 166.564L-9.88204 164.262V164.179L-10.7824 160.538L-11.597 157.19L-9.23892 151.122L-8.20992 148.444L-8.16704 148.528ZM4.30963 165.476L3.19486 170.498L-1.60715 168.74L4.26674 165.476H4.30963ZM-3.70803 168.74L-8.51004 170.498L-9.62479 165.476L-3.70803 168.74ZM-12.5403 157.274L-15.4558 163.216L-20.7295 159.408L-14.7269 152.629L-14.5554 153.005L-12.5403 157.274ZM-12.1973 158.571L-11.7257 160.58L-10.8682 164.095L-14.6412 163.509L-12.7547 159.659L-12.1973 158.571ZM9.36887 163.509L5.59587 164.095L6.96788 158.571L7.52526 159.659L9.41176 163.509H9.36887ZM9.28314 153.005L9.45463 152.629L15.4571 159.408L10.1835 163.216L7.268 157.274L9.28314 153.005ZM8.76862 152.001L6.83924 156.144L4.69548 150.62L4.18099 149.365L8.297 151.75L8.76862 152.043V152.001ZM0.66523 137.689L-2.16453 141.288V131.454L0.66523 137.689ZM-3.0649 131.454V141.288L-5.89466 137.689L-3.0649 131.454ZM-13.6979 140.744L-12.1973 140.242L-7.05229 138.442L-8.20992 144.343L-8.93879 148.026L-14.1267 151.039L-13.6979 140.786V140.744ZM-9.41042 149.323L-9.53904 149.616L-12.0687 156.102L-13.9981 151.959L-13.5264 151.666L-9.41042 149.281V149.323ZM-14.8556 164.388L-11.1254 164.932L-10.568 165.016L-10.4823 165.434L-9.32467 170.749L-15.3701 171.879L-15.0271 167.15L-14.8127 164.388H-14.8556ZM-3.0649 176.649L-8.03841 171.293L-5.80891 170.456L-3.0649 169.452V176.649ZM5.25287 165.434L5.33862 165.016L8.64 164.513L9.58326 164.388L9.79763 167.15L10.1406 171.879L4.09524 170.749L5.25287 165.434ZM12.3273 150.997L9.79763 151.331V150.411L9.41176 142.46L13.6993 150.787L12.3273 150.955V150.997ZM1.43698 136.434L1.22261 136.769L-1.47853 130.826L2.76612 134.09L1.43698 136.434ZM-15.0271 151.331L-17.5567 150.997L-18.9287 150.829L-14.6412 142.502L-15.0271 151.331ZM-15.8417 164.681H-15.7988L-16.0132 167.61L-16.2704 171.084L-19.3574 166.606L-15.8846 164.681H-15.8417ZM-8.55292 172.046L-7.13804 173.594L-3.92241 177.068L-9.32467 176.022L-8.59579 172.046H-8.55292ZM1.99436 173.469L3.28061 172.088L4.00948 176.063L-1.39277 177.11L1.99436 173.469ZM10.2264 152.127L13.9994 151.624L15.3285 157.86L10.2264 152.085V152.127ZM-3.79378 130.826L-6.49491 136.769L-8.03841 134.09L-3.79378 130.826ZM-19.2717 151.666L-15.4987 152.168L-20.6008 157.943L-19.2717 151.708V151.666ZM-16.0989 163.844L-19.2717 165.602L-19.6147 165.811L-20.6866 160.496L-16.0561 163.844H-16.0989ZM-13.0977 172.339L-9.41042 171.669L-10.1393 175.645L-14.7269 172.632L-13.0977 172.339ZM4.86699 175.645L4.13812 171.669L7.82538 172.339L9.45463 172.632L4.86699 175.645ZM14.3853 165.769L14.0423 165.56L10.8695 163.802L15.5 160.454L14.4281 165.769H14.3853Z" fill="#E39A9B"/>
<path opacity="0.1" d="M319.536 811.368C319.536 811.368 319.536 811.327 319.536 811.285L321.294 802.999C321.294 802.999 321.294 802.957 321.294 802.915L326.782 792.202C326.782 792.202 326.782 792.202 326.782 792.16L332.313 785.674C332.313 785.674 332.313 785.674 332.313 785.632L338.273 781.071C338.273 781.071 338.273 781.071 338.316 781.071C338.316 781.071 338.316 781.071 338.359 781.071C338.359 781.071 338.359 781.071 338.402 781.071C338.402 781.071 338.402 781.071 338.444 781.071C338.444 781.071 338.444 781.071 338.487 781.071C338.487 781.071 338.487 781.071 338.53 781.071L344.49 785.632C344.49 785.632 344.49 785.632 344.49 785.674L350.021 792.16C350.021 792.16 350.021 792.16 350.021 792.202L355.509 802.915C355.509 802.915 355.509 802.957 355.509 802.999L357.267 811.285C357.267 811.285 357.267 811.327 357.267 811.368L355.852 818.357C355.852 818.399 355.852 818.441 355.809 818.483L351.736 824.425C351.736 824.425 351.736 824.425 351.693 824.467L345.605 828.442C345.562 828.442 345.519 828.484 345.476 828.484L338.316 829.865C338.316 829.865 338.273 829.865 338.23 829.865C338.187 829.865 338.187 829.865 338.144 829.865L330.984 828.484C330.941 828.484 330.898 828.484 330.856 828.442L324.767 824.467C324.767 824.467 324.767 824.467 324.724 824.425L320.651 818.483C320.651 818.483 320.651 818.399 320.608 818.357L319.194 811.368H319.536ZM322.023 818.483L325.11 822.96L325.368 819.487L325.582 816.516H325.539L322.066 818.483H322.023ZM344.79 786.595L343.204 789.357L348.82 791.323L344.79 786.595ZM328.626 791.365L334.243 789.398L332.656 786.637L328.626 791.365ZM338.273 828.484V821.286L335.529 822.291L333.342 823.086L333.9 823.672L338.316 828.442L338.273 828.484ZM327.683 792.621L327.254 802.873L332.442 799.86L333.171 796.178L334.328 790.277L329.183 792.077L327.683 792.621ZM342.303 790.654L341.746 791.323L339.302 794.378L340.888 795.927L343.89 798.856L342.26 790.654H342.303ZM338.144 794.378L335.186 790.654L333.557 798.856L336.129 796.387L338.144 794.42V794.378ZM344.275 800.404L338.745 795.048L333.257 800.404L332.228 803.083L329.869 809.151L330.555 811.954L331.584 816.097L338.787 820.115L341.789 818.441L345.99 816.139V816.055L346.891 812.415L347.705 809.067L345.347 802.999L344.318 800.321L344.275 800.404ZM331.756 817.353L332.871 822.374L337.673 820.617L331.799 817.353H331.756ZM339.774 820.617L344.576 822.374L345.69 817.353L339.816 820.617H339.774ZM348.649 809.151L351.564 815.093L356.838 811.285L350.835 804.505L350.664 804.882L348.649 809.151ZM348.263 810.448L347.791 812.457L346.934 815.972L350.707 815.386L348.82 811.536L348.263 810.448ZM326.74 815.386L330.513 815.972L329.141 810.448L328.583 811.536L326.697 815.386H326.74ZM326.825 804.882L326.654 804.505L320.651 811.285L325.925 815.093L328.84 809.151L326.825 804.882ZM327.34 803.836L329.269 807.979L331.413 802.455L331.927 801.2L327.811 803.585L327.34 803.878V803.836ZM335.443 789.566L338.273 793.165V783.331L335.443 789.566ZM339.173 783.331V793.165L342.003 789.566L339.173 783.331ZM349.806 792.621L348.306 792.119L343.161 790.319L344.318 796.22L345.047 799.902L350.235 802.915L349.806 792.663V792.621ZM345.519 801.2L345.647 801.492L348.177 807.979L350.106 803.836L349.635 803.543L345.519 801.158V801.2ZM350.964 816.265L347.234 816.809L346.676 816.892L346.591 817.311L345.433 822.626L351.478 823.755L351.135 819.027L350.921 816.265H350.964ZM339.173 828.484L344.147 823.128L341.917 822.291L339.173 821.286V828.484ZM330.856 817.311L330.77 816.892L327.468 816.39L326.525 816.265L326.311 819.027L325.968 823.755L332.013 822.626L330.856 817.311ZM323.781 802.873L326.311 803.208V802.288L326.697 794.336L322.409 802.664L323.781 802.832V802.873ZM334.671 788.269L334.886 788.603L337.587 782.661L333.342 785.925L334.671 788.269ZM351.135 803.166L353.665 802.832L355.037 802.664L350.75 794.336L351.135 803.166ZM351.95 816.558H351.907L352.122 819.487L352.379 822.96L355.466 818.483L351.993 816.558H351.95ZM344.661 823.923L343.246 825.471L340.031 828.945L345.433 827.898L344.704 823.923H344.661ZM334.114 825.304L332.828 823.923L332.099 827.898L337.501 828.945L334.114 825.304ZM325.882 804.003L322.109 803.501L320.78 809.736L325.882 803.961V804.003ZM339.902 782.703L342.603 788.645L344.147 785.967L339.902 782.703ZM355.38 803.543L351.607 804.045L356.709 809.82L355.38 803.585V803.543ZM352.207 815.679L355.38 817.436L355.723 817.646L356.795 812.331L352.164 815.679H352.207ZM349.206 824.216L345.519 823.546L346.248 827.522L350.835 824.509L349.206 824.216ZM331.241 827.522L331.97 823.546L328.283 824.216L326.654 824.509L331.241 827.522ZM321.723 817.646L322.066 817.436L325.239 815.679L320.608 812.331L321.68 817.646H321.723Z" fill="#E39A9B"/>
<path opacity="0.1" d="M246.005 599.201C246.005 599.201 246.005 599.159 246.005 599.117L247.763 590.831C247.763 590.831 247.763 590.789 247.763 590.748L253.251 580.035C253.251 580.035 253.251 580.035 253.251 579.993L258.782 573.506C258.782 573.506 258.782 573.506 258.782 573.464L264.742 568.903C264.742 568.903 264.742 568.903 264.785 568.903C264.785 568.903 264.785 568.903 264.827 568.903C264.827 568.903 264.827 568.903 264.87 568.903C264.87 568.903 264.87 568.903 264.913 568.903C264.913 568.903 264.913 568.903 264.956 568.903C264.956 568.903 264.956 568.903 264.999 568.903L270.959 573.464C270.959 573.464 270.959 573.464 270.959 573.506L276.489 579.993C276.489 579.993 276.489 579.993 276.489 580.035L281.977 590.748C281.977 590.748 281.977 590.789 281.977 590.831L283.735 599.117C283.735 599.117 283.735 599.159 283.735 599.201L282.32 606.189C282.32 606.231 282.32 606.273 282.278 606.315L278.204 612.257C278.204 612.257 278.204 612.257 278.162 612.299L272.073 616.275C272.03 616.275 271.988 616.316 271.945 616.316L264.785 617.697C264.785 617.697 264.742 617.697 264.699 617.697C264.656 617.697 264.656 617.697 264.613 617.697L257.453 616.316C257.41 616.316 257.367 616.316 257.324 616.275L251.236 612.299C251.236 612.299 251.236 612.299 251.193 612.257L247.12 606.315C247.12 606.315 247.12 606.231 247.077 606.189L245.662 599.201H246.005ZM248.535 606.315L251.622 610.793L251.879 607.319L252.093 604.348H252.051L248.578 606.315H248.535ZM271.302 574.427L269.715 577.189L275.332 579.156L271.302 574.427ZM255.138 579.198L260.754 577.231L259.168 574.469L255.138 579.198ZM264.785 616.358V609.161L262.041 610.165L259.854 610.96L260.411 611.546L264.827 616.316L264.785 616.358ZM254.151 580.453L253.723 590.706L258.911 587.693L259.64 584.01L260.797 578.11L255.652 579.909L254.151 580.453ZM268.815 578.486L268.257 579.156L265.814 582.211L267.4 583.759L270.401 586.688L268.772 578.486H268.815ZM264.613 582.211L261.655 578.486L260.025 586.688L262.598 584.219L264.613 582.252V582.211ZM270.744 588.237L265.213 582.88L259.725 588.237L258.696 590.915L256.338 596.983L257.024 599.787L258.053 603.93L265.256 607.947L268.257 606.273L272.459 603.971V603.888L273.36 600.247L274.174 596.899L271.816 590.831L270.787 588.153L270.744 588.237ZM258.268 605.185L259.382 610.207L264.184 608.449L258.31 605.185H258.268ZM266.285 608.449L271.087 610.207L272.202 605.185L266.328 608.449H266.285ZM275.117 596.983L278.033 602.925L283.307 599.117L277.304 592.338L277.133 592.714L275.117 596.983ZM274.774 598.28L274.303 600.289L273.445 603.804L277.218 603.218L275.332 599.368L274.774 598.28ZM253.251 603.218L257.024 603.804L255.652 598.28L255.095 599.368L253.208 603.218H253.251ZM253.337 592.714L253.165 592.338L247.163 599.117L252.437 602.925L255.352 596.983L253.337 592.714ZM253.809 591.668L255.738 595.811L257.882 590.287L258.396 589.032L254.28 591.417L253.809 591.71V591.668ZM261.912 577.398L264.742 580.997V571.163L261.912 577.398ZM265.685 571.163V580.997L268.515 577.398L265.685 571.163ZM276.275 580.453L274.774 579.951L269.629 578.151L270.787 584.052L271.516 587.735L276.704 590.748L276.275 580.495V580.453ZM272.03 589.032L272.159 589.325L274.689 595.811L276.618 591.668L276.146 591.375L272.03 588.99V589.032ZM277.476 604.097L273.745 604.641L273.188 604.725L273.102 605.143L271.945 610.458L277.99 611.588L277.647 606.859L277.433 604.097H277.476ZM265.685 616.358L270.658 611.002L268.429 610.165L265.685 609.161V616.358ZM257.324 605.143L257.238 604.725L253.937 604.222L252.994 604.097L252.78 606.859L252.437 611.588L258.482 610.458L257.324 605.143ZM250.293 590.706L252.822 591.04V590.12L253.208 582.169L248.921 590.496L250.293 590.664V590.706ZM261.14 576.101L261.355 576.436L264.056 570.493L259.811 573.757L261.14 576.101ZM277.647 590.999L280.177 590.664L281.549 590.496L277.261 582.169L277.647 590.999ZM278.419 604.39H278.376L278.59 607.319L278.848 610.793L281.935 606.315L278.462 604.39H278.419ZM271.13 611.755L269.715 613.303L266.5 616.777L271.902 615.731L271.173 611.755H271.13ZM260.626 613.136L259.339 611.755L258.611 615.731L264.013 616.777L260.626 613.136ZM252.351 591.836L248.578 591.333L247.249 597.569L252.351 591.794V591.836ZM266.371 570.535L269.072 576.478L270.616 573.799L266.371 570.535ZM281.892 591.375L278.119 591.877L283.221 597.652L281.892 591.417V591.375ZM278.719 603.511L281.892 605.269L282.235 605.478L283.307 600.163L278.676 603.511H278.719ZM275.675 612.048L271.988 611.378L272.716 615.354L277.304 612.341L275.675 612.048ZM257.71 615.354L258.439 611.378L254.752 612.048L253.123 612.341L257.71 615.354ZM248.235 605.478L248.578 605.269L251.75 603.511L247.12 600.163L248.192 605.478H248.235Z" fill="#E39A9B"/>
<path opacity="0.1" d="M486.696 183.219C486.696 183.219 486.696 183.219 486.696 183.178C486.696 183.052 486.696 182.968 486.696 182.843C486.696 182.843 486.696 182.801 486.696 182.759L479.365 148.235C479.365 148.235 479.279 148.067 479.236 147.942C479.236 147.9 479.236 147.816 479.236 147.774L456.341 103.081C456.341 103.081 456.298 102.997 456.255 102.997C456.255 102.914 456.169 102.872 456.127 102.788C456.127 102.788 456.127 102.788 456.127 102.746L433.145 75.7965C433.145 75.7965 433.06 75.7546 433.017 75.7128C432.974 75.6709 432.931 75.5873 432.845 75.5454L407.935 56.4629C407.935 56.4629 407.892 56.4628 407.849 56.421C407.806 56.421 407.763 56.3373 407.72 56.3373C407.678 56.3373 407.592 56.2955 407.549 56.2536C407.549 56.2536 407.463 56.2118 407.42 56.1699C407.42 56.1699 407.335 56.1699 407.292 56.1699C407.292 56.1699 407.249 56.1699 407.206 56.1699C407.206 56.1699 407.163 56.1699 407.12 56.1699C407.077 56.1699 406.992 56.1699 406.949 56.1699C406.863 56.1699 406.777 56.1699 406.691 56.1699C406.606 56.1699 406.563 56.1699 406.477 56.1699C406.477 56.1699 406.477 56.1699 406.434 56.1699C406.434 56.1699 406.391 56.1699 406.348 56.1699C406.263 56.1699 406.177 56.2118 406.091 56.2536C406.005 56.2536 405.963 56.2955 405.877 56.3373C405.834 56.3373 405.791 56.3791 405.748 56.421C405.748 56.421 405.705 56.421 405.662 56.4629L380.752 75.5454C380.752 75.5454 380.623 75.6709 380.581 75.7128C380.581 75.7128 380.495 75.7546 380.452 75.7965L357.471 102.746C357.471 102.746 357.471 102.746 357.471 102.788C357.428 102.872 357.385 102.914 357.342 102.997C357.342 102.997 357.299 103.081 357.256 103.081L334.361 147.774C334.361 147.774 334.361 147.9 334.361 147.942C334.361 148.026 334.275 148.109 334.233 148.235L326.901 182.759C326.901 182.759 326.901 182.801 326.901 182.843C326.901 182.968 326.901 183.052 326.901 183.178C326.901 183.178 326.901 183.178 326.901 183.219C326.901 183.219 326.901 183.261 326.901 183.303C326.901 183.303 326.901 183.345 326.901 183.387C326.901 183.387 326.901 183.429 326.901 183.47L332.861 212.638C332.861 212.68 332.903 212.722 332.903 212.764C332.946 212.931 333.032 213.14 333.118 213.308L350.053 238.04C350.053 238.04 350.053 238.04 350.096 238.04C350.139 238.124 350.225 238.207 350.311 238.291C350.311 238.291 350.311 238.333 350.354 238.375C350.354 238.375 350.439 238.375 350.439 238.416C350.439 238.416 350.525 238.5 350.568 238.5L375.907 255.03C375.907 255.03 376.293 255.239 376.507 255.281C376.507 255.281 376.507 255.281 376.593 255.281L406.52 261.098C406.52 261.098 406.777 261.098 406.906 261.098C407.034 261.098 407.163 261.098 407.292 261.098L437.219 255.281C437.219 255.281 437.219 255.281 437.304 255.281C437.519 255.239 437.733 255.156 437.905 255.03L463.244 238.5C463.244 238.5 463.329 238.416 463.372 238.416C463.372 238.416 463.458 238.416 463.458 238.375C463.458 238.375 463.458 238.333 463.501 238.291C463.587 238.207 463.672 238.124 463.715 238.04L480.651 213.308C480.651 213.308 480.823 212.973 480.865 212.764C480.865 212.722 480.908 212.68 480.908 212.638L486.868 183.429C486.868 183.429 486.868 183.387 486.868 183.345C486.868 183.345 486.868 183.303 486.868 183.261C486.868 183.261 486.868 183.219 486.868 183.178L486.696 183.219ZM476.192 212.931L463.415 231.595L462.343 217.116L461.443 204.771L461.7 204.896L476.192 212.931ZM381.481 80.1486L388.041 91.6986L364.631 99.9007L381.438 80.1905L381.481 80.1486ZM448.709 99.8589L425.299 91.6567L431.859 80.1068L448.666 99.817L448.709 99.8589ZM408.578 254.653V224.732L420.069 228.959L429.244 232.349L426.971 234.776L408.535 254.653H408.578ZM452.739 105.174L454.54 147.942L433.017 135.429L429.973 120.113L425.085 95.5067L446.48 102.997L452.782 105.215L452.739 105.174ZM391.814 97.0132L394.043 99.8589L404.162 112.581L397.559 118.983L385.04 131.119L391.814 97.0132ZM409.178 112.539L421.526 96.9714L428.301 131.077L417.625 120.741L409.135 112.539H409.178ZM383.668 137.605L406.691 115.301L406.863 115.468L429.715 137.605L434.046 148.779L443.907 174.097L441.034 185.73L436.79 203.055C436.79 203.055 436.79 203.139 436.79 203.181V203.432L406.734 220.003L394.172 213.057L376.722 203.432L376.636 203.139C376.636 203.139 376.636 203.139 376.636 203.097L372.906 187.99L369.476 174.138L379.337 148.821L383.668 137.647V137.605ZM435.675 208.202L431.13 229.084L411.15 221.719L435.718 208.161L435.675 208.202ZM402.275 221.761L382.296 229.126L377.751 208.244L402.318 221.803L402.275 221.761ZM365.403 173.971L353.312 198.703L331.274 182.843L356.313 154.637L357.085 156.27L365.403 173.971ZM366.903 179.411L368.961 187.697L372.563 202.344L356.828 200L364.674 183.931L366.903 179.369V179.411ZM456.555 200.042L440.82 202.386L446.48 179.411L448.709 183.973L456.555 200.042ZM456.298 156.228L457.07 154.596L482.109 182.801L460.071 198.661L447.98 173.929L456.298 156.228ZM454.154 151.959L446.051 169.2L437.09 146.101L435.032 140.828L452.182 150.787L454.197 151.959H454.154ZM420.454 92.41L408.578 107.35V66.4644L420.454 92.4518V92.41ZM404.805 66.4644V107.35L392.929 92.41L404.805 66.4226V66.4644ZM360.601 105.174L366.775 102.997L388.255 95.4649L383.367 120.071L380.323 135.388L358.8 147.9L360.601 105.132V105.174ZM378.351 140.87L377.837 142.167L367.289 169.242L359.186 152.001L361.201 150.829L378.351 140.87ZM355.756 203.599L371.191 205.901L373.42 206.236L373.806 207.951L378.651 230.131L353.483 234.818L354.941 215.149L355.799 203.599H355.756ZM404.805 254.653L384.139 232.349L393.486 228.917L404.848 224.732V254.653H404.805ZM439.577 207.951L439.963 206.236L453.768 204.185L457.67 203.599L458.528 215.149L459.985 234.818L434.818 230.131L439.662 207.951H439.577ZM468.903 147.816L458.356 149.155L458.185 145.347L456.812 112.329L474.606 147.105L468.903 147.816ZM423.627 87.1372L422.77 88.6019L411.451 63.8699L429.115 77.4285L423.584 87.1372H423.627ZM355.027 149.155L344.48 147.816L338.777 147.105L356.57 112.329L355.027 149.155ZM351.683 204.896L351.94 204.771L351.04 217.116L349.968 231.595L337.191 212.931L351.683 204.896ZM382.038 235.571L387.998 242.015L401.461 256.537L378.951 252.142L382.038 235.571ZM425.942 241.346L431.345 235.529L434.432 252.101L411.922 256.495L425.985 241.346H425.942ZM460.285 152.629L476.021 150.62L481.551 176.607L460.285 152.629ZM401.889 63.8699L390.57 88.6019L384.182 77.4285L401.847 63.8699H401.889ZM337.362 150.62L353.098 152.629L331.832 176.607L337.362 150.62ZM350.611 201.298L337.32 208.663L335.819 209.5L331.317 187.446L350.568 201.339L350.611 201.298ZM363.13 236.743L378.565 233.855L375.478 250.51L356.313 237.998L363.13 236.743ZM437.947 250.51L434.86 233.855L450.295 236.743L457.113 237.998L437.947 250.51ZM477.564 209.458L476.063 208.621L462.772 201.256L482.023 187.362L477.521 209.416L477.564 209.458Z" fill="#E39A9B"/>
<path opacity="0.1" d="M284.754 127.52C284.754 127.478 284.754 127.437 284.754 127.395L282.01 114.548C282.01 114.548 282.01 114.464 281.967 114.464C281.967 114.464 281.967 114.422 281.967 114.38L273.478 97.7666C273.478 97.7666 273.478 97.7248 273.435 97.6829L264.903 87.6813C264.903 87.6813 264.903 87.6395 264.86 87.5977L255.599 80.5254C255.599 80.5254 255.599 80.5254 255.556 80.5254C255.556 80.5254 255.513 80.5254 255.47 80.5254C255.47 80.5254 255.47 80.5254 255.427 80.5254C255.427 80.5254 255.427 80.5254 255.385 80.5254C255.385 80.5254 255.342 80.5254 255.299 80.5254H255.213C255.213 80.5254 255.17 80.5254 255.127 80.5254C255.127 80.5254 255.084 80.5254 255.041 80.5254C255.041 80.5254 254.999 80.5254 254.956 80.5254C254.956 80.5254 254.956 80.5254 254.913 80.5254L245.652 87.5977C245.652 87.5977 245.652 87.6395 245.609 87.6813L237.077 97.6829C237.077 97.6829 237.077 97.7248 237.034 97.7666L228.545 114.38V114.422C228.545 114.422 228.545 114.506 228.502 114.506L225.758 127.353C225.758 127.353 225.758 127.437 225.758 127.478L227.944 138.317C227.944 138.317 227.944 138.317 227.944 138.359C227.944 138.443 227.944 138.484 228.03 138.568L234.333 147.775C234.333 147.775 234.376 147.816 234.419 147.858L243.851 154.01C243.851 154.01 243.98 154.094 244.065 154.094L255.17 156.27C255.17 156.27 255.256 156.27 255.299 156.27C255.342 156.27 255.385 156.27 255.427 156.27L266.532 154.094C266.618 154.094 266.704 154.052 266.746 154.01L276.179 147.858C276.179 147.858 276.222 147.816 276.265 147.775L282.567 138.568C282.567 138.568 282.61 138.443 282.653 138.359C282.653 138.359 282.653 138.359 282.653 138.317L284.84 127.478L284.754 127.52ZM280.852 138.568L276.093 145.515L275.707 140.116L275.364 135.555H275.45L280.852 138.568ZM245.652 89.2716L248.096 93.54L239.392 96.5949L245.652 89.2716ZM270.648 96.5949L261.944 93.54L264.388 89.2716L270.648 96.5949ZM255.728 154.052V142.962L259.972 144.51L263.402 145.766L262.545 146.687L255.685 154.052H255.728ZM272.149 98.5618L272.835 114.422L264.817 109.777L263.702 104.086L261.902 94.9629L269.833 97.7248L272.149 98.5618ZM249.511 95.5069L250.325 96.553L254.098 101.282L251.654 103.667L247.024 108.187L249.553 95.5069H249.511ZM255.942 101.282L260.53 95.5069L263.059 108.187L259.115 104.337L255.985 101.282H255.942ZM246.466 110.614L255.041 102.328H255.084L263.574 110.614L265.203 114.757L268.847 124.131L267.775 128.441L266.189 134.885C266.189 134.885 266.189 134.885 266.189 134.927V135.011L255.041 141.163L250.368 138.568L243.894 135.011V134.885L242.522 129.278L241.236 124.131L244.88 114.757L246.509 110.614H246.466ZM265.803 136.811L264.131 144.552L256.714 141.832L265.846 136.811H265.803ZM253.369 141.832L245.952 144.552L244.28 136.811L253.412 141.832H253.369ZM239.692 124.089L235.19 133.253L227.001 127.353L236.305 116.891L236.605 117.519L239.692 124.089ZM240.25 126.139L241.021 129.236L242.35 134.676L236.519 133.797L239.435 127.855L240.25 126.139ZM273.564 133.797L267.733 134.676L269.833 126.139L270.648 127.855L273.564 133.797ZM273.435 117.519L273.735 116.891L283.039 127.353L274.85 133.253L270.348 124.089L273.435 117.519ZM272.663 115.929L269.662 122.331L266.318 113.752L265.546 111.786L271.934 115.468L272.663 115.887V115.929ZM260.144 93.8329L255.728 99.3568V84.1661L260.144 93.7911V93.8329ZM254.313 84.1661V99.3568L249.896 93.8329L254.313 84.208V84.1661ZM237.934 98.5618L240.25 97.7666L248.224 94.9629L246.424 104.086L245.309 109.777L237.291 114.422L237.977 98.5618H237.934ZM244.494 111.786L244.323 112.288L240.421 122.331L237.42 115.929L238.149 115.51L244.494 111.827V111.786ZM236.134 135.095L241.879 135.932L242.693 136.057L242.822 136.685L244.623 144.929L235.276 146.687L235.791 139.405L236.091 135.095H236.134ZM254.313 154.052L246.638 145.766L250.111 144.51L254.313 142.962V154.052ZM267.218 136.727L267.347 136.099L272.492 135.346L273.949 135.137L274.25 139.447L274.764 146.728L265.417 144.971L267.218 136.727ZM278.151 114.38L274.25 114.882V113.46L273.692 101.198L280.295 114.087L278.151 114.338V114.38ZM261.301 91.8243L261.001 92.3683L256.799 83.2036L263.359 88.2254L261.301 91.8243ZM235.833 114.882L231.932 114.38L229.788 114.129L236.391 101.24L235.833 114.924V114.882ZM234.59 135.597H234.676L234.333 140.116L233.947 145.515L229.188 138.568L234.59 135.597ZM245.866 146.979L248.096 149.365L253.112 154.763L244.751 153.131L245.909 146.979H245.866ZM262.159 149.114L264.174 146.938L265.332 153.089L256.971 154.721L262.202 149.114H262.159ZM274.936 116.18L280.767 115.426L282.825 125.051L274.936 116.138V116.18ZM253.241 83.2036L249.039 92.3683L246.681 88.2254L253.241 83.2036ZM229.274 115.426L235.105 116.18L227.216 125.093L229.274 115.468V115.426ZM234.204 134.216L229.274 136.936L228.716 137.229L227.044 129.027L234.204 134.174V134.216ZM238.835 147.398L244.58 146.352L243.422 152.545L236.305 147.9L238.835 147.44V147.398ZM266.618 152.503L265.46 146.31L271.205 147.356L273.735 147.816L266.618 152.462V152.503ZM281.324 137.271L280.767 136.978L275.836 134.258L282.996 129.111L281.324 137.313V137.271Z" fill="#E39A9B"/>
</g>
<defs>
<clipPath id="clip0_953_521">
<rect width="366" height="1171" rx="4.48995" fill="white"/>
</clipPath>
</defs>
</svg>
