<svg width="535" height="196" viewBox="0 0 535 196" fill="none" xmlns="http://www.w3.org/2000/svg">
<g filter="url(#filter0_dddd_198_508)">
<path opacity="0.65" d="M67.8533 48.3406C36.7428 48.3702 13.5371 52.1994 13.541 56.8954C13.547 61.5952 36.6483 68.5819 67.7607 68.5524C98.8691 68.5229 122.187 61.4908 122.183 56.793C122.177 52.0969 98.9657 48.3111 67.8533 48.3406ZM112.811 58.2662C111.521 61.2544 94.0354 61.9595 67.8691 61.9852C41.7048 62.0089 23.9118 61.0299 22.6178 58.0456C22.5724 57.9412 22.5489 57.8368 22.5489 57.7304C22.545 54.5985 40.7829 53.072 67.8592 53.0464C94.9356 53.0207 113.176 54.5118 113.179 57.6457C113.179 57.7501 112.854 58.1638 112.811 58.2662Z" fill="#CCD4DF"/>
<path d="M77.2549 42.152H58.1807L48.6436 58.6707L58.1807 75.1895H77.2549L86.792 58.6707L77.2549 42.152Z" fill="#BCBCE6"/>
<path d="M77.2548 42.1521L74.203 32.893H60.2121L58.1807 42.1521H77.2548Z" fill="#CBCAE5"/>
<path d="M77.2548 75.1895L74.2734 84.235C74.2314 84.3625 74.1123 84.4485 73.9782 84.4485H60.4621C60.3161 84.4485 60.1898 84.3469 60.1585 84.2043L58.1807 75.1895L77.2548 75.1895Z" fill="#BBB6D6"/>
<path d="M58.2442 42.0905L48.9287 40.1077L41.6587 52.1457L48.6432 58.6708L58.2442 42.0905Z" fill="#D5D1E8"/>
<path d="M86.7811 58.7382L93.2408 66.0399L86.1907 78.1247L77.2549 75.1895L86.7811 58.7382Z" fill="#B4B2D8"/>
<path d="M58.1805 75.1895L48.6049 77.2263C48.4641 77.265 48.3154 77.2005 48.2474 77.0713L41.9566 65.1085C41.8942 64.9897 41.915 64.8443 42.0082 64.7478L48.6434 58.6707L58.1805 75.1895Z" fill="#BABADB"/>
<path d="M77.2549 42.1521L87.2614 40.951C87.3938 40.9289 87.5254 40.9942 87.5878 41.1129L93.8786 53.0757C93.9466 53.2049 93.9154 53.3641 93.8038 53.4581C93.8038 53.4581 86.8843 59.1229 86.7919 58.9472L77.2549 42.1521Z" fill="#C6C3E5"/>
<path d="M58.1803 42.1521L60.2117 32.893L48.9287 40.1077L58.1803 42.1521Z" fill="#D5D5ED"/>
<path d="M74.2026 32.893L87.4619 40.9866L77.2545 42.1521L74.2026 32.893Z" fill="#C3C5E5"/>
<path d="M58.1804 75.1895L60.3214 84.413L48.394 77.2092L58.1804 75.1895Z" fill="#C0C2E2"/>
<path d="M74.084 84.4486L86.1903 78.1247L77.2545 75.1895L74.084 84.4486Z" fill="#C0C2E2"/>
<path d="M48.6432 58.6708L41.9247 65.0047L41.6587 52.1457L48.6432 58.6708Z" fill="#C0C3E2"/>
<path d="M86.8511 58.8238L93.9115 53.2593L93.1604 66.1498L86.8511 58.8238Z" fill="#C3C0E2"/>
<path d="M48.6436 58.6707H86.8514L77.2549 42.152H58.1807L48.6436 58.6707Z" fill="#C0C3E2"/>
<g opacity="0.5">
<path d="M77.2549 42.152H58.1807L48.6436 58.6707L58.1807 75.1895H77.2549L86.792 58.6707L77.2549 42.152Z" fill="#00AA30" fill-opacity="0.85"/>
<path d="M77.2548 42.1521L74.203 32.893H60.2121L58.1807 42.1521H77.2548Z" fill="#00AA30" fill-opacity="0.85"/>
<path d="M77.2548 75.1895L74.2734 84.235C74.2314 84.3625 74.1123 84.4485 73.9782 84.4485H60.4621C60.3161 84.4485 60.1898 84.3469 60.1585 84.2043L58.1807 75.1895L77.2548 75.1895Z" fill="#00AA30" fill-opacity="0.85"/>
<path d="M58.2442 42.0905L48.9287 40.1077L41.6587 52.1457L48.6432 58.6708L58.2442 42.0905Z" fill="#00AA30" fill-opacity="0.85"/>
<path d="M86.7811 58.7382L93.2408 66.0399L86.1907 78.1247L77.2549 75.1895L86.7811 58.7382Z" fill="#00AA30" fill-opacity="0.85"/>
<path d="M58.1805 75.1895L48.6049 77.2263C48.4641 77.265 48.3154 77.2005 48.2474 77.0713L41.9566 65.1085C41.8942 64.9897 41.915 64.8443 42.0082 64.7478L48.6434 58.6707L58.1805 75.1895Z" fill="#00AA30" fill-opacity="0.85"/>
<path d="M77.2549 42.1521L87.2614 40.951C87.3938 40.9289 87.5254 40.9942 87.5878 41.1129L93.8786 53.0757C93.9466 53.2049 93.9154 53.3641 93.8038 53.4581C93.8038 53.4581 86.8843 59.1229 86.7919 58.9472L77.2549 42.1521Z" fill="#00AA30" fill-opacity="0.85"/>
<path d="M58.1803 42.1521L60.2117 32.893L48.9287 40.1077L58.1803 42.1521Z" fill="#00AA30" fill-opacity="0.85"/>
<path d="M74.2026 32.893L87.4619 40.9866L77.2545 42.1521L74.2026 32.893Z" fill="#00AA30" fill-opacity="0.85"/>
<path d="M58.1804 75.1895L60.3214 84.413L48.394 77.2092L58.1804 75.1895Z" fill="#00AA30" fill-opacity="0.85"/>
<path d="M74.084 84.4486L86.1903 78.1247L77.2545 75.1895L74.084 84.4486Z" fill="#00AA30" fill-opacity="0.85"/>
<path d="M48.6432 58.6708L41.9247 65.0047L41.6587 52.1457L48.6432 58.6708Z" fill="#00AA30" fill-opacity="0.85"/>
<path d="M86.8511 58.8238L93.9115 53.2593L93.1604 66.1498L86.8511 58.8238Z" fill="#00AA30" fill-opacity="0.85"/>
<path d="M48.6436 58.6707H86.8514L77.2549 42.152H58.1807L48.6436 58.6707Z" fill="#00AA30" fill-opacity="0.85"/>
</g>
<path d="M76.2717 40.7941L76.9358 38.2455C76.978 38.0837 77.2077 38.0837 77.2499 38.2455L77.9139 40.7941C77.9181 40.81 77.9241 40.8255 77.9324 40.8397C78.0144 40.9808 78.1318 41.0981 78.2729 41.1801C78.2869 41.1882 78.3021 41.1942 78.3177 41.1984L80.8127 41.8626C80.9734 41.9054 80.9734 42.1335 80.8127 42.1762L78.3177 42.8405C78.3021 42.8446 78.2869 42.8506 78.2729 42.8587C78.1319 42.9407 78.0145 43.0579 77.9325 43.1989C77.9241 43.2132 77.9181 43.2289 77.9139 43.2449L77.25 45.8158C77.208 45.9781 76.9776 45.9781 76.9357 45.8158L76.2717 43.2449C76.2675 43.2289 76.2615 43.2132 76.2531 43.1989C76.1708 43.0575 76.053 42.9399 75.9113 42.8579C75.8982 42.8503 75.884 42.8446 75.8695 42.8404L73.5463 42.1754C73.3895 42.1305 73.3895 41.9082 73.5463 41.8633L75.8695 41.1982C75.884 41.1941 75.8983 41.1883 75.9113 41.1808C76.053 41.0987 76.1709 40.9811 76.2532 40.8396C76.2616 40.8255 76.2676 40.81 76.2717 40.7941Z" fill="white"/>
<path d="M52.606 65.8183L52.8318 64.9516C52.8462 64.8965 52.9243 64.8965 52.9386 64.9516L53.1645 65.8183C53.1659 65.8237 53.168 65.829 53.1707 65.8338C53.1986 65.8818 53.2386 65.9217 53.2866 65.9496C53.2913 65.9523 53.2965 65.9543 53.3018 65.9557L54.1503 66.1817C54.205 66.1962 54.205 66.2738 54.1503 66.2883L53.3018 66.5142C53.2965 66.5156 53.2913 66.5177 53.2866 66.5204C53.2386 66.5483 53.1987 66.5882 53.1708 66.6361C53.168 66.641 53.1659 66.6463 53.1645 66.6517L52.9387 67.5261C52.9244 67.5813 52.8461 67.5813 52.8318 67.5261L52.606 66.6517C52.6046 66.6463 52.6025 66.641 52.5997 66.6361C52.5717 66.588 52.5316 66.548 52.4834 66.5202C52.479 66.5176 52.4742 66.5156 52.4692 66.5142L51.6792 66.2881C51.6258 66.2728 51.6258 66.1972 51.6792 66.182L52.4692 65.9558C52.4741 65.9544 52.479 65.9524 52.4834 65.9498C52.5317 65.9219 52.5717 65.8819 52.5998 65.8338C52.6025 65.829 52.6046 65.8237 52.606 65.8183Z" fill="white"/>
<path opacity="0.65" d="M223.373 67.0627C179.64 67.104 147.019 71.8944 147.025 77.7644C147.031 83.6382 179.506 92.3682 223.239 92.3269C266.968 92.2855 299.748 83.4944 299.742 77.6206C299.737 71.7507 267.107 67.0212 223.373 67.0627ZM286.569 79.4642C284.754 83.1988 260.174 84.0833 223.393 84.1168C186.613 84.1523 161.603 82.931 159.781 79.2002C159.72 79.0703 159.686 78.9402 159.686 78.8082C159.683 74.8923 185.319 72.9816 223.379 72.9462C261.44 72.9107 287.083 74.7702 287.087 78.688C287.087 78.8201 286.63 79.3343 286.569 79.4642Z" fill="#CCD4DF"/>
<path d="M235.362 59.5039H211.519L199.598 80.1523L211.519 100.801H235.362L247.283 80.1523L235.362 59.5039Z" fill="#BCBCE6"/>
<path d="M235.361 59.5038L231.546 47.93H214.058L211.519 59.5038H235.361Z" fill="#CBCAE5"/>
<path d="M235.361 100.801L231.634 112.108C231.582 112.267 231.433 112.374 231.265 112.374H214.37C214.188 112.374 214.03 112.247 213.991 112.069L211.519 100.801L235.361 100.801Z" fill="#BBB6D6"/>
<path d="M211.599 59.4269L199.954 56.9484L190.867 71.9959L199.597 80.1522L211.599 59.4269Z" fill="#D5D1E8"/>
<path d="M247.269 80.2366L255.344 89.3637L246.531 104.47L235.361 100.801L247.269 80.2366Z" fill="#B4B2D8"/>
<path d="M211.519 100.801L199.549 103.347C199.373 103.395 199.187 103.314 199.103 103.153L191.239 88.1994C191.161 88.0509 191.187 87.8691 191.303 87.7485L199.597 80.1522L211.519 100.801Z" fill="#BABADB"/>
<path d="M235.361 59.5039L247.87 58.0025C248.035 57.9749 248.199 58.0565 248.277 58.2049L256.141 73.1585C256.226 73.3199 256.187 73.5189 256.047 73.6364C256.047 73.6364 247.398 80.7174 247.283 80.4979L235.361 59.5039Z" fill="#C6C3E5"/>
<path d="M211.519 59.5038L214.058 47.93L199.955 56.9484L211.519 59.5038Z" fill="#D5D5ED"/>
<path d="M231.547 47.93L248.121 58.047L235.362 59.5038L231.547 47.93Z" fill="#C3C5E5"/>
<path d="M211.519 100.801L214.195 112.33L199.286 103.325L211.519 100.801Z" fill="#C0C2E2"/>
<path d="M231.398 112.375L246.531 104.47L235.362 100.801L231.398 112.375Z" fill="#C0C2E2"/>
<path d="M199.597 80.1522L191.199 88.0697L190.867 71.9958L199.597 80.1522Z" fill="#C0C3E2"/>
<path d="M247.357 80.3435L256.183 73.3879L255.244 89.501L247.357 80.3435Z" fill="#C3C0E2"/>
<path d="M199.598 80.1523H247.357L235.362 59.5039H211.519L199.598 80.1523Z" fill="#C0C3E2"/>
<g opacity="0.5">
<path d="M235.362 59.5039H211.519L199.598 80.1523L211.519 100.801H235.362L247.283 80.1523L235.362 59.5039Z" fill="#00AA30" fill-opacity="0.85"/>
<path d="M235.361 59.5038L231.546 47.93H214.058L211.519 59.5038H235.361Z" fill="#00AA30" fill-opacity="0.85"/>
<path d="M235.361 100.801L231.634 112.108C231.582 112.267 231.433 112.374 231.265 112.374H214.37C214.188 112.374 214.03 112.247 213.991 112.069L211.519 100.801L235.361 100.801Z" fill="#00AA30" fill-opacity="0.85"/>
<path d="M211.599 59.4269L199.954 56.9484L190.867 71.9959L199.597 80.1522L211.599 59.4269Z" fill="#00AA30" fill-opacity="0.85"/>
<path d="M247.269 80.2366L255.344 89.3637L246.531 104.47L235.361 100.801L247.269 80.2366Z" fill="#00AA30" fill-opacity="0.85"/>
<path d="M211.519 100.801L199.549 103.347C199.373 103.395 199.187 103.314 199.103 103.153L191.239 88.1994C191.161 88.0509 191.187 87.8691 191.303 87.7485L199.597 80.1522L211.519 100.801Z" fill="#00AA30" fill-opacity="0.85"/>
<path d="M235.361 59.5039L247.87 58.0025C248.035 57.9749 248.199 58.0565 248.277 58.2049L256.141 73.1585C256.226 73.3199 256.187 73.5189 256.047 73.6364C256.047 73.6364 247.398 80.7174 247.283 80.4979L235.361 59.5039Z" fill="#00AA30" fill-opacity="0.85"/>
<path d="M211.519 59.5038L214.058 47.93L199.955 56.9484L211.519 59.5038Z" fill="#00AA30" fill-opacity="0.85"/>
<path d="M231.547 47.93L248.121 58.047L235.362 59.5038L231.547 47.93Z" fill="#00AA30" fill-opacity="0.85"/>
<path d="M211.519 100.801L214.195 112.33L199.286 103.325L211.519 100.801Z" fill="#00AA30" fill-opacity="0.85"/>
<path d="M231.398 112.375L246.531 104.47L235.362 100.801L231.398 112.375Z" fill="#00AA30" fill-opacity="0.85"/>
<path d="M199.597 80.1522L191.199 88.0697L190.867 71.9958L199.597 80.1522Z" fill="#00AA30" fill-opacity="0.85"/>
<path d="M247.357 80.3435L256.183 73.3879L255.244 89.501L247.357 80.3435Z" fill="#00AA30" fill-opacity="0.85"/>
<path d="M199.598 80.1523H247.357L235.362 59.5039H211.519L199.598 80.1523Z" fill="#00AA30" fill-opacity="0.85"/>
</g>
<path d="M234.133 57.8063L234.963 54.6206C235.016 54.4183 235.303 54.4183 235.356 54.6206L236.186 57.8063C236.191 57.8262 236.198 57.8456 236.209 57.8633C236.311 58.0397 236.458 58.1863 236.634 58.2889C236.652 58.299 236.671 58.3065 236.69 58.3116L239.809 59.1419C240.01 59.1954 240.01 59.4805 239.809 59.534L236.69 60.3643C236.671 60.3695 236.652 60.377 236.634 60.3871C236.458 60.4895 236.311 60.6361 236.209 60.8124C236.198 60.8302 236.191 60.8498 236.186 60.8698L235.356 64.0835C235.303 64.2863 235.015 64.2863 234.963 64.0835L234.133 60.8698C234.128 60.8498 234.12 60.8302 234.11 60.8124C234.007 60.6355 233.859 60.4886 233.682 60.3861C233.666 60.3766 233.648 60.3694 233.63 60.3642L230.726 59.5329C230.53 59.4768 230.53 59.199 230.726 59.1428L233.63 58.3115C233.648 58.3063 233.666 58.2991 233.682 58.2897C233.859 58.1871 234.007 58.0401 234.11 57.8631C234.12 57.8456 234.128 57.8262 234.133 57.8063Z" fill="white"/>
<path d="M204.55 89.0866L204.832 88.0031C204.85 87.9343 204.948 87.9343 204.966 88.0031L205.248 89.0866C205.25 89.0933 205.252 89.0999 205.256 89.1059C205.291 89.1659 205.341 89.2158 205.401 89.2506C205.407 89.2541 205.413 89.2566 205.42 89.2584L206.48 89.5408C206.549 89.559 206.549 89.6559 206.48 89.6741L205.42 89.9565C205.413 89.9582 205.407 89.9608 205.401 89.9642C205.341 89.9991 205.291 90.0489 205.256 90.1089C205.252 90.1149 205.25 90.1216 205.248 90.1284L204.966 91.2213C204.948 91.2903 204.85 91.2903 204.832 91.2213L204.55 90.1284C204.548 90.1216 204.546 90.1149 204.542 90.1089C204.507 90.0487 204.457 89.9987 204.397 89.9639C204.391 89.9607 204.385 89.9582 204.379 89.9565L203.391 89.6738C203.325 89.6547 203.325 89.5602 203.391 89.5411L204.379 89.2584C204.385 89.2567 204.391 89.2542 204.397 89.251C204.457 89.2161 204.507 89.1661 204.542 89.1059C204.546 89.0999 204.548 89.0933 204.55 89.0866Z" fill="white"/>
<path opacity="0.65" d="M419.197 93.4769C360.66 93.532 316.994 99.067 317 105.841C317.006 112.621 360.473 122.692 419.01 122.637C477.544 122.582 521.422 112.426 521.416 105.648C521.41 98.874 477.735 93.4218 419.197 93.4769ZM503.781 107.779C501.352 112.089 468.451 113.113 419.219 113.161C369.987 113.208 336.511 111.802 334.076 107.496C333.991 107.348 333.948 107.194 333.946 107.043C333.942 102.522 368.257 100.314 419.203 100.267C470.149 100.217 504.47 102.363 504.474 106.881C504.474 107.035 503.863 107.63 503.781 107.779ZM510.494 105.703C509.396 103.647 503.198 101.963 492.908 100.678C504.551 101.744 511.455 103.194 511.457 105.041C511.457 105.264 511.083 105.485 510.494 105.703Z" fill="#CCD4DF"/>
<path d="M432.942 79.1608L434.017 75.0357C434.085 74.7737 434.457 74.7737 434.526 75.0357L435.6 79.1608C435.607 79.1864 435.617 79.2116 435.63 79.2345C435.763 79.4629 435.953 79.6528 436.182 79.7855C436.204 79.7986 436.229 79.8083 436.254 79.815L440.292 80.8902C440.553 80.9595 440.553 81.3287 440.292 81.3979L436.254 82.4731C436.229 82.4798 436.204 82.4895 436.182 82.5027C435.953 82.6354 435.763 82.8251 435.631 83.0534C435.617 83.0765 435.607 83.1019 435.601 83.1278L434.526 87.2891C434.458 87.5518 434.085 87.5518 434.017 87.2891L432.942 83.1278C432.936 83.102 432.926 83.0766 432.912 83.0534C432.779 82.8245 432.588 82.6342 432.359 82.5014C432.338 82.4892 432.315 82.4799 432.291 82.4731L428.531 81.3967C428.277 81.324 428.277 80.9643 428.531 80.8917L432.291 79.8152C432.315 79.8086 432.338 79.7992 432.359 79.7869C432.589 79.6541 432.779 79.4637 432.913 79.2347C432.926 79.2116 432.936 79.1865 432.942 79.1608Z" fill="white"/>
<path d="M394.638 119.664L395.003 118.262C395.027 118.173 395.153 118.173 395.176 118.262L395.542 119.664C395.544 119.673 395.547 119.682 395.552 119.69C395.597 119.767 395.662 119.832 395.739 119.877C395.747 119.881 395.756 119.885 395.764 119.887L397.137 120.253C397.226 120.276 397.226 120.402 397.137 120.425L395.764 120.791C395.755 120.793 395.747 120.796 395.739 120.801C395.662 120.846 395.597 120.911 395.552 120.988C395.547 120.996 395.544 121.005 395.542 121.014L395.177 122.429C395.153 122.518 395.027 122.518 395.003 122.429L394.638 121.014C394.636 121.005 394.632 120.996 394.628 120.988C394.583 120.91 394.518 120.846 394.44 120.801C394.433 120.796 394.425 120.793 394.417 120.791L393.138 120.425C393.052 120.4 393.052 120.278 393.138 120.253L394.417 119.887C394.425 119.885 394.433 119.882 394.44 119.877C394.518 119.832 394.583 119.767 394.628 119.69C394.632 119.682 394.636 119.673 394.638 119.664Z" fill="white"/>
<path d="M434.327 81.6385H403.332L387.834 108.481L403.332 135.324H434.327L449.825 108.481L434.327 81.6385Z" fill="#BCBCE6"/>
<path d="M434.328 81.6386L429.368 66.5926H406.633L403.332 81.6386H434.328Z" fill="#CBCAE5"/>
<path d="M434.328 135.324L429.483 150.023C429.414 150.23 429.221 150.37 429.003 150.37H407.039C406.802 150.37 406.597 150.205 406.546 149.973L403.332 135.324L434.328 135.324Z" fill="#BBB6D6"/>
<path d="M403.436 81.5385L388.298 78.3165L376.484 97.8782L387.834 108.481L403.436 81.5385Z" fill="#D5D1E8"/>
<path d="M449.807 108.591L460.304 120.456L448.848 140.094L434.327 135.324L449.807 108.591Z" fill="#B4B2D8"/>
<path d="M403.332 135.324L387.772 138.634C387.543 138.697 387.301 138.592 387.191 138.382L376.968 118.943C376.867 118.75 376.901 118.513 377.052 118.357L387.834 108.481L403.332 135.324Z" fill="#BABADB"/>
<path d="M434.327 81.6386L450.588 79.6868C450.803 79.6509 451.017 79.757 451.118 79.9499L461.341 99.3896C461.451 99.5995 461.401 99.8581 461.219 100.011C461.219 100.011 449.975 109.216 449.825 108.931L434.327 81.6386Z" fill="#C6C3E5"/>
<path d="M403.332 81.6386L406.633 66.5926L388.298 78.3165L403.332 81.6386Z" fill="#D5D5ED"/>
<path d="M429.367 66.5926L450.913 79.7446L434.326 81.6386L429.367 66.5926Z" fill="#C3C5E5"/>
<path d="M403.333 135.324L406.812 150.313L387.43 138.606L403.333 135.324Z" fill="#C0C2E2"/>
<path d="M429.176 150.37L448.849 140.094L434.328 135.324L429.176 150.37Z" fill="#C0C2E2"/>
<path d="M387.834 108.481L376.917 118.774L376.484 97.8781L387.834 108.481Z" fill="#C0C3E2"/>
<path d="M449.922 108.73L461.395 99.6879L460.174 120.635L449.922 108.73Z" fill="#C3C0E2"/>
<path d="M387.834 108.481H449.922L434.327 81.6385H403.332L387.834 108.481Z" fill="#C0C3E2"/>
<g opacity="0.5">
<path d="M434.327 81.6385H403.332L387.834 108.481L403.332 135.324H434.327L449.825 108.481L434.327 81.6385Z" fill="#00AA30" fill-opacity="0.85"/>
<path d="M434.328 81.6386L429.368 66.5926H406.633L403.332 81.6386H434.328Z" fill="#00AA30" fill-opacity="0.85"/>
<path d="M434.328 135.324L429.483 150.023C429.414 150.23 429.221 150.37 429.003 150.37H407.039C406.802 150.37 406.597 150.205 406.546 149.973L403.332 135.324L434.328 135.324Z" fill="#00AA30" fill-opacity="0.85"/>
<path d="M403.436 81.5385L388.298 78.3165L376.484 97.8782L387.834 108.481L403.436 81.5385Z" fill="#00AA30" fill-opacity="0.85"/>
<path d="M449.807 108.591L460.304 120.456L448.848 140.094L434.327 135.324L449.807 108.591Z" fill="#00AA30" fill-opacity="0.85"/>
<path d="M403.332 135.324L387.772 138.634C387.543 138.697 387.301 138.592 387.191 138.382L376.968 118.943C376.867 118.75 376.901 118.513 377.052 118.357L387.834 108.481L403.332 135.324Z" fill="#00AA30" fill-opacity="0.85"/>
<path d="M434.327 81.6386L450.588 79.6868C450.803 79.6509 451.017 79.757 451.118 79.9499L461.341 99.3896C461.451 99.5995 461.401 99.8581 461.219 100.011C461.219 100.011 449.975 109.216 449.825 108.931L434.327 81.6386Z" fill="#00AA30" fill-opacity="0.85"/>
<path d="M403.332 81.6386L406.633 66.5926L388.298 78.3165L403.332 81.6386Z" fill="#00AA30" fill-opacity="0.85"/>
<path d="M429.367 66.5926L450.913 79.7446L434.326 81.6386L429.367 66.5926Z" fill="#00AA30" fill-opacity="0.85"/>
<path d="M403.333 135.324L406.812 150.313L387.43 138.606L403.333 135.324Z" fill="#00AA30" fill-opacity="0.85"/>
<path d="M429.176 150.37L448.849 140.094L434.328 135.324L429.176 150.37Z" fill="#00AA30" fill-opacity="0.85"/>
<path d="M387.834 108.481L376.917 118.774L376.484 97.8781L387.834 108.481Z" fill="#00AA30" fill-opacity="0.85"/>
<path d="M449.922 108.73L461.395 99.6879L460.174 120.635L449.922 108.73Z" fill="#00AA30" fill-opacity="0.85"/>
<path d="M387.834 108.481H449.922L434.327 81.6385H403.332L387.834 108.481Z" fill="#00AA30" fill-opacity="0.85"/>
</g>
<path d="M432.73 79.4318L433.809 75.2903C433.878 75.0273 434.251 75.0273 434.32 75.2903L435.399 79.4318C435.406 79.4576 435.415 79.4828 435.429 79.5058C435.562 79.7351 435.753 79.9258 435.982 80.0591C436.005 80.0722 436.03 80.082 436.055 80.0887L440.109 81.1681C440.37 81.2376 440.37 81.6082 440.109 81.6777L436.055 82.7571C436.03 82.7639 436.005 82.7736 435.982 82.7867C435.753 82.9199 435.562 83.1105 435.429 83.3396C435.415 83.3628 435.406 83.3882 435.399 83.4143L434.32 87.5921C434.252 87.8558 433.877 87.8558 433.809 87.5921L432.73 83.4143C432.723 83.3883 432.714 83.3629 432.7 83.3396C432.566 83.1097 432.375 82.9187 432.145 82.7854C432.123 82.7731 432.1 82.7638 432.077 82.757L428.301 81.6763C428.047 81.6033 428.047 81.2422 428.301 81.1692L432.077 80.0885C432.1 80.0817 432.123 80.0724 432.145 80.0601C432.375 79.9268 432.566 79.7356 432.7 79.5056C432.714 79.4828 432.724 79.4576 432.73 79.4318Z" fill="white"/>
<path d="M394.272 120.096L394.639 118.688C394.663 118.598 394.79 118.598 394.813 118.688L395.18 120.096C395.182 120.105 395.185 120.113 395.19 120.121C395.235 120.199 395.3 120.264 395.378 120.309C395.386 120.314 395.394 120.317 395.403 120.319L396.782 120.687C396.871 120.71 396.871 120.836 396.782 120.86L395.403 121.227C395.394 121.229 395.386 121.233 395.378 121.237C395.3 121.282 395.235 121.347 395.19 121.425C395.185 121.433 395.182 121.442 395.18 121.45L394.813 122.871C394.79 122.961 394.662 122.961 394.639 122.871L394.272 121.45C394.27 121.442 394.267 121.433 394.262 121.425C394.217 121.347 394.151 121.282 394.073 121.237C394.066 121.232 394.058 121.229 394.05 121.227L392.766 120.859C392.679 120.835 392.679 120.712 392.766 120.687L394.05 120.319C394.058 120.317 394.066 120.314 394.073 120.31C394.151 120.265 394.217 120.199 394.262 120.121C394.267 120.113 394.27 120.105 394.272 120.096Z" fill="white"/>
</g>
<defs>
<filter id="filter0_dddd_198_508" x="-4.67858" y="-2.07022" width="552.135" height="221.615" filterUnits="userSpaceOnUse" color-interpolation-filters="sRGB">
<feFlood flood-opacity="0" result="BackgroundImageFix"/>
<feColorMatrix in="SourceAlpha" type="matrix" values="0 0 0 0 0 0 0 0 0 0 0 0 0 0 0 0 0 0 127 0" result="hardAlpha"/>
<feOffset dy="2.07022"/>
<feGaussianBlur stdDeviation="2.07022"/>
<feColorMatrix type="matrix" values="0 0 0 0 0 0 0 0 0 0 0 0 0 0 0 0 0 0 0.1 0"/>
<feBlend mode="normal" in2="BackgroundImageFix" result="effect1_dropShadow_198_508"/>
<feColorMatrix in="SourceAlpha" type="matrix" values="0 0 0 0 0 0 0 0 0 0 0 0 0 0 0 0 0 0 127 0" result="hardAlpha"/>
<feOffset dy="8.28087"/>
<feGaussianBlur stdDeviation="4.14044"/>
<feColorMatrix type="matrix" values="0 0 0 0 0 0 0 0 0 0 0 0 0 0 0 0 0 0 0.09 0"/>
<feBlend mode="normal" in2="effect1_dropShadow_198_508" result="effect2_dropShadow_198_508"/>
<feColorMatrix in="SourceAlpha" type="matrix" values="0 0 0 0 0 0 0 0 0 0 0 0 0 0 0 0 0 0 127 0" result="hardAlpha"/>
<feOffset dy="18.632"/>
<feGaussianBlur stdDeviation="5.6931"/>
<feColorMatrix type="matrix" values="0 0 0 0 0 0 0 0 0 0 0 0 0 0 0 0 0 0 0.05 0"/>
<feBlend mode="normal" in2="effect2_dropShadow_198_508" result="effect3_dropShadow_198_508"/>
<feColorMatrix in="SourceAlpha" type="matrix" values="0 0 0 0 0 0 0 0 0 0 0 0 0 0 0 0 0 0 127 0" result="hardAlpha"/>
<feOffset dy="32.0884"/>
<feGaussianBlur stdDeviation="6.72821"/>
<feColorMatrix type="matrix" values="0 0 0 0 0 0 0 0 0 0 0 0 0 0 0 0 0 0 0.01 0"/>
<feBlend mode="normal" in2="effect3_dropShadow_198_508" result="effect4_dropShadow_198_508"/>
<feBlend mode="normal" in="SourceGraphic" in2="effect4_dropShadow_198_508" result="shape"/>
</filter>
</defs>
</svg>
