<svg width="414" height="384" viewBox="0 0 414 384" fill="none" xmlns="http://www.w3.org/2000/svg">
<g filter="url(#filter0_dddd_210_26)">
<path d="M109.665 115.612L90.2207 96.1651V68.665L109.665 49.218H137.168L156.612 68.665V96.1651L137.168 115.612H109.665Z" fill="#9CD0FF"/>
<path d="M112.53 108.698L97.1343 93.3029V71.5273L112.53 56.132H134.303L149.698 71.5273V93.3029L134.303 108.698H112.53Z" fill="#8FC2FF"/>
<path d="M100.877 136.83L109.665 115.612H137.168L145.955 136.83H100.877Z" fill="#4D84F4"/>
<path d="M109.665 115.612L90.2204 96.165L69 104.955L100.877 136.83L109.665 115.612Z" fill="#5C9EFF"/>
<path d="M145.955 136.83L137.167 115.612L156.612 96.165L177.832 104.955L145.955 136.83Z" fill="#4E6CEA"/>
<path d="M156.612 96.1651V68.665L177.833 59.8749V104.955L156.612 96.1651Z" fill="#6497E8"/>
<path d="M90.2204 96.1651V68.665L69 59.8749V104.955L90.2204 96.1651Z" fill="#7DB2FF"/>
<path d="M156.612 68.665L137.167 49.218L145.955 28L177.832 59.8748L156.612 68.665Z" fill="#64A3FF"/>
<path d="M109.665 49.218L100.877 28H145.955L137.168 49.218H109.665Z" fill="#78ACFF"/>
<path d="M90.2204 68.665L109.665 49.218L100.877 28L69 59.8748L90.2204 68.665Z" fill="#88BEFF"/>
<path opacity="0.32" d="M100.882 136.818L69.0146 104.95V59.8796L100.882 28.012H145.951L177.818 59.8796V104.95L145.951 136.818H100.882Z" fill="#CAB2D3"/>
<path d="M20.4204 57.7824C20.6644 57.7824 20.665 57.4031 20.4204 57.4031C20.1764 57.4031 20.1761 57.7824 20.4204 57.7824Z" fill="#626BA0"/>
<path d="M305.784 115.612L286.337 96.1651V68.665L305.784 49.218H333.284L352.731 68.665V96.1651L333.284 115.612H305.784Z" fill="#9CD0FF"/>
<path d="M308.649 108.698L293.251 93.3027V71.5272L308.649 56.1318H330.422L345.817 71.5272V93.3027L330.422 108.698H308.649Z" fill="#8FC2FF"/>
<path d="M296.994 136.83L305.784 115.612H333.284L342.075 136.83H296.994Z" fill="#4D84F4"/>
<path d="M305.784 115.612L286.337 96.165L265.119 104.955L296.994 136.83L305.784 115.612Z" fill="#5C9EFF"/>
<path d="M342.074 136.83L333.284 115.612L352.731 96.165L373.952 104.955L342.074 136.83Z" fill="#4E6CEA"/>
<path d="M352.731 96.1651V68.665L373.952 59.8749V104.955L352.731 96.1651Z" fill="#6497E8"/>
<path d="M286.337 96.1651V68.665L265.119 59.8749V104.955L286.337 96.1651Z" fill="#7DB2FF"/>
<path d="M352.731 68.665L333.284 49.218L342.074 28L373.952 59.8748L352.731 68.665Z" fill="#64A3FF"/>
<path d="M305.784 49.218L296.994 28H342.075L333.284 49.218H305.784Z" fill="#78ACFF"/>
<path d="M286.337 68.665L305.784 49.218L296.994 28L265.119 59.8748L286.337 68.665Z" fill="#88BEFF"/>
<path opacity="0.32" d="M297.001 136.818L265.131 104.95V59.8796L297.001 28.012H342.069L373.937 59.8796V104.95L342.069 136.818H297.001Z" fill="#CAB2D3"/>
<path d="M302.706 42.8973C305.211 40.3926 306.727 37.8477 306.092 37.2131C305.458 36.5785 302.913 38.0946 300.408 40.5993C297.904 43.1039 296.387 45.6488 297.022 46.2834C297.657 46.918 300.202 45.402 302.706 42.8973Z" fill="white"/>
<path d="M20.4204 245.228C20.6644 245.228 20.665 244.849 20.4204 244.849C20.1764 244.849 20.1761 245.228 20.4204 245.228Z" fill="#626BA0"/>
<path d="M110.409 293.612L90.9624 274.165V246.665L110.409 227.218H137.909L157.356 246.665V274.165L137.909 293.612H110.409Z" fill="#9CD0FF"/>
<path d="M113.274 286.698L97.876 271.303V249.527L113.274 234.132H135.047L150.442 249.527V271.303L135.047 286.698H113.274Z" fill="#8FC2FF"/>
<path d="M101.619 314.83L110.409 293.612H137.909L146.7 314.83H101.619Z" fill="#4D84F4"/>
<path d="M110.409 293.612L90.9621 274.165L69.7441 282.955L101.619 314.83L110.409 293.612Z" fill="#5C9EFF"/>
<path d="M146.699 314.83L137.909 293.612L157.356 274.165L178.577 282.955L146.699 314.83Z" fill="#4E6CEA"/>
<path d="M157.356 274.165V246.665L178.577 237.875V282.955L157.356 274.165Z" fill="#6497E8"/>
<path d="M90.9621 274.165V246.665L69.7441 237.875V282.955L90.9621 274.165Z" fill="#7DB2FF"/>
<path d="M157.356 246.665L137.909 227.218L146.699 206L178.577 237.875L157.356 246.665Z" fill="#64A3FF"/>
<path d="M110.409 227.218L101.619 206H146.7L137.909 227.218H110.409Z" fill="#78ACFF"/>
<path d="M90.9621 246.665L110.409 227.218L101.619 206L69.7441 237.875L90.9621 246.665Z" fill="#88BEFF"/>
<path opacity="0.32" d="M101.626 314.818L69.7563 282.95V237.88L101.626 206.012H146.695L178.562 237.88V282.95L146.695 314.818H101.626Z" fill="#CAB2D3"/>
<path d="M107.755 219.198C110.259 216.694 111.775 214.149 111.141 213.514C110.506 212.879 107.961 214.395 105.457 216.9C102.952 219.405 101.436 221.95 102.07 222.584C102.705 223.219 105.25 221.703 107.755 219.198Z" fill="white"/>
<path d="M143.987 286.691C144.979 285.613 143.67 282.795 141.064 280.396C138.458 277.997 135.542 276.925 134.55 278.003C133.558 279.08 134.866 281.898 137.472 284.297C140.078 286.697 142.995 287.768 143.987 286.691Z" fill="white"/>
<path d="M305.312 293.612L285.867 274.165V246.665L305.312 227.218H332.814L352.259 246.665V274.165L332.814 293.612H305.312Z" fill="#9CD0FF"/>
<path d="M308.176 286.698L292.78 271.303V249.527L308.176 234.132H329.949L345.344 249.527V271.303L329.949 286.698H308.176Z" fill="#8FC2FF"/>
<path d="M296.523 314.83L305.311 293.612H332.814L341.601 314.83H296.523Z" fill="#4D84F4"/>
<path d="M305.311 293.612L285.867 274.165L264.646 282.955L296.524 314.83L305.311 293.612Z" fill="#5C9EFF"/>
<path d="M341.601 314.83L332.813 293.612L352.258 274.165L373.478 282.955L341.601 314.83Z" fill="#4E6CEA"/>
<path d="M352.259 274.165V246.665L373.479 237.875V282.955L352.259 274.165Z" fill="#6497E8"/>
<path d="M285.867 274.165V246.665L264.646 237.875V282.955L285.867 274.165Z" fill="#7DB2FF"/>
<path d="M352.258 246.665L332.813 227.218L341.601 206L373.478 237.875L352.258 246.665Z" fill="#64A3FF"/>
<path d="M305.311 227.218L296.523 206H341.601L332.814 227.218H305.311Z" fill="#78ACFF"/>
<path d="M285.867 246.665L305.311 227.218L296.524 206L264.646 237.875L285.867 246.665Z" fill="#88BEFF"/>
<path opacity="0.32" d="M296.529 314.818L264.661 282.95V237.88L296.529 206.012H341.597L373.465 237.88V282.95L341.597 314.818H296.529Z" fill="#CAB2D3"/>
<path d="M303.82 222.153C306.324 219.648 307.84 217.103 307.206 216.469C306.571 215.834 304.026 217.35 301.521 219.855C299.017 222.36 297.501 224.905 298.135 225.539C298.77 226.174 301.315 224.658 303.82 222.153Z" fill="white"/>
<path d="M334.611 294.374C335.531 293.453 334.411 290.84 332.108 288.538C329.805 286.235 327.192 285.114 326.271 286.035C325.351 286.955 326.471 289.568 328.774 291.871C331.077 294.174 333.69 295.295 334.611 294.374Z" fill="white"/>
<path d="M354.01 249.669C355.009 248.67 354.949 246.99 353.875 245.916C352.801 244.842 351.121 244.782 350.121 245.781C349.122 246.78 349.183 248.46 350.257 249.534C351.331 250.608 353.011 250.668 354.01 249.669Z" fill="white"/>
<path d="M95.14 13V6.64C95.14 6.28 95.088 5.992 94.984 5.776C94.888 5.552 94.66 5.44 94.3 5.44H94.18V5.08H99.208C99.488 5.08 99.7 5.128 99.844 5.224C99.988 5.312 100.088 5.432 100.144 5.584C100.2 5.728 100.228 5.88 100.228 6.04V7.06H99.868C99.868 6.54 99.736 6.172 99.472 5.956C99.216 5.732 98.848 5.62 98.368 5.62H96.7V8.68H99.34V9.22H96.7V13H95.14ZM101.609 13V6.64C101.609 6.28 101.557 5.992 101.453 5.776C101.357 5.552 101.129 5.44 100.769 5.44H100.649V5.08H102.089C102.369 5.08 102.585 5.128 102.737 5.224C102.897 5.32 103.009 5.48 103.073 5.704C103.137 5.928 103.169 6.24 103.169 6.64V12.46H107.309V13H101.609ZM114.849 13.048C114.585 13.048 114.305 13.016 114.009 12.952C113.721 12.88 113.441 12.732 113.169 12.508C112.905 12.284 112.677 11.944 112.485 11.488L112.209 10.816H109.017L108.033 13H107.409L110.949 5.08H111.489L114.177 11.488C114.321 11.84 114.497 12.12 114.705 12.328C114.913 12.536 115.153 12.656 115.425 12.688V12.988C115.361 13.004 115.269 13.016 115.149 13.024C115.037 13.04 114.937 13.048 114.849 13.048ZM109.269 10.276H111.981L110.661 7.144L109.269 10.276ZM117.679 13.108L115.087 6.484C114.903 6.028 114.719 5.712 114.535 5.536C114.351 5.36 114.139 5.256 113.899 5.224V4.984C113.931 4.984 114.011 4.98 114.139 4.972C114.259 4.964 114.347 4.96 114.403 4.96C114.683 4.96 114.971 4.992 115.267 5.056C115.563 5.112 115.843 5.248 116.107 5.464C116.371 5.68 116.595 6.02 116.779 6.484L118.399 10.624L119.479 7.552L119.059 6.484C118.875 6.028 118.675 5.712 118.459 5.536C118.251 5.36 118.027 5.256 117.787 5.224V4.984C117.819 4.984 117.891 4.98 118.003 4.972C118.115 4.964 118.199 4.96 118.255 4.96C118.535 4.96 118.823 4.992 119.119 5.056C119.415 5.12 119.695 5.26 119.959 5.476C120.223 5.684 120.447 6.02 120.631 6.484L122.347 10.852L124.399 5.08H124.975L122.131 13.108H121.651L119.803 8.404L118.159 13.108H117.679ZM126.37 13V6.64C126.37 6.28 126.318 5.992 126.214 5.776C126.118 5.552 125.89 5.44 125.53 5.44H125.41V5.08H126.85C127.13 5.08 127.346 5.128 127.498 5.224C127.658 5.32 127.77 5.48 127.834 5.704C127.898 5.928 127.93 6.24 127.93 6.64V12.46H132.07V13H126.37ZM133.015 13V6.64C133.015 6.28 132.963 5.992 132.859 5.776C132.763 5.552 132.535 5.44 132.175 5.44H132.055V5.08H137.347C137.627 5.08 137.839 5.128 137.983 5.224C138.127 5.312 138.227 5.432 138.283 5.584C138.339 5.728 138.367 5.88 138.367 6.04V7.06H138.007C138.007 6.548 137.875 6.18 137.611 5.956C137.355 5.732 136.987 5.62 136.507 5.62H134.575V8.62H137.695V9.16H134.575V12.46H136.627C137.067 12.46 137.439 12.364 137.743 12.172C138.055 11.972 138.315 11.612 138.523 11.092L138.847 11.212L138.499 12.16C138.411 12.416 138.295 12.62 138.151 12.772C138.015 12.924 137.783 13 137.455 13H133.015ZM142.346 13.204C142.018 13.204 141.694 13.172 141.374 13.108C141.054 13.044 140.762 12.952 140.498 12.832C140.234 12.704 140.022 12.552 139.862 12.376C139.71 12.192 139.634 11.988 139.634 11.764V10.36H139.97C140.098 11.192 140.354 11.784 140.738 12.136C141.13 12.488 141.662 12.664 142.334 12.664C142.638 12.664 142.902 12.62 143.126 12.532C143.358 12.444 143.534 12.316 143.654 12.148C143.782 11.972 143.846 11.756 143.846 11.5C143.846 11.156 143.734 10.872 143.51 10.648C143.294 10.416 142.994 10.184 142.61 9.952L141.134 9.064C140.59 8.744 140.206 8.416 139.982 8.08C139.758 7.744 139.646 7.356 139.646 6.916C139.646 6.284 139.886 5.784 140.366 5.416C140.854 5.048 141.51 4.864 142.334 4.864C142.662 4.864 142.986 4.896 143.306 4.96C143.626 5.024 143.918 5.12 144.182 5.248C144.446 5.368 144.654 5.516 144.806 5.692C144.966 5.868 145.046 6.072 145.046 6.304V7.708H144.71C144.574 6.876 144.318 6.284 143.942 5.932C143.566 5.58 143.074 5.404 142.466 5.404C142.178 5.404 141.926 5.452 141.71 5.548C141.502 5.644 141.342 5.78 141.23 5.956C141.118 6.124 141.062 6.328 141.062 6.568C141.062 6.904 141.174 7.176 141.398 7.384C141.63 7.592 141.934 7.808 142.31 8.032L143.786 8.908C144.33 9.228 144.726 9.544 144.974 9.856C145.23 10.16 145.358 10.532 145.358 10.972C145.358 11.66 145.098 12.204 144.578 12.604C144.058 13.004 143.314 13.204 142.346 13.204ZM149.073 13.204C148.745 13.204 148.421 13.172 148.101 13.108C147.781 13.044 147.489 12.952 147.225 12.832C146.961 12.704 146.749 12.552 146.589 12.376C146.437 12.192 146.361 11.988 146.361 11.764V10.36H146.697C146.825 11.192 147.081 11.784 147.465 12.136C147.857 12.488 148.389 12.664 149.061 12.664C149.365 12.664 149.629 12.62 149.853 12.532C150.085 12.444 150.261 12.316 150.381 12.148C150.509 11.972 150.573 11.756 150.573 11.5C150.573 11.156 150.461 10.872 150.237 10.648C150.021 10.416 149.721 10.184 149.337 9.952L147.861 9.064C147.317 8.744 146.933 8.416 146.709 8.08C146.485 7.744 146.373 7.356 146.373 6.916C146.373 6.284 146.613 5.784 147.093 5.416C147.581 5.048 148.237 4.864 149.061 4.864C149.389 4.864 149.713 4.896 150.033 4.96C150.353 5.024 150.645 5.12 150.909 5.248C151.173 5.368 151.381 5.516 151.533 5.692C151.693 5.868 151.773 6.072 151.773 6.304V7.708H151.437C151.301 6.876 151.045 6.284 150.669 5.932C150.293 5.58 149.801 5.404 149.193 5.404C148.905 5.404 148.653 5.452 148.437 5.548C148.229 5.644 148.069 5.78 147.957 5.956C147.845 6.124 147.789 6.328 147.789 6.568C147.789 6.904 147.901 7.176 148.125 7.384C148.357 7.592 148.661 7.808 149.037 8.032L150.513 8.908C151.057 9.228 151.453 9.544 151.701 9.856C151.957 10.16 152.085 10.532 152.085 10.972C152.085 11.66 151.825 12.204 151.305 12.604C150.785 13.004 150.041 13.204 149.073 13.204Z" fill="#33517F"/>
<path d="M247.588 13.12L244.792 6.484C244.6 6.036 244.412 5.724 244.228 5.548C244.052 5.364 243.844 5.256 243.604 5.224V4.984C243.636 4.984 243.716 4.98 243.844 4.972C243.964 4.964 244.052 4.96 244.108 4.96C244.388 4.96 244.672 4.992 244.96 5.056C245.256 5.12 245.536 5.26 245.8 5.476C246.064 5.692 246.292 6.028 246.484 6.484L248.38 10.972L250.912 5.08H251.524L248.068 13.12H247.588ZM252.757 13V6.64C252.757 6.28 252.705 5.992 252.601 5.776C252.505 5.552 252.277 5.44 251.917 5.44H251.797V5.08H257.089C257.369 5.08 257.581 5.128 257.725 5.224C257.869 5.312 257.969 5.432 258.025 5.584C258.081 5.728 258.109 5.88 258.109 6.04V7.06H257.749C257.749 6.548 257.617 6.18 257.353 5.956C257.097 5.732 256.729 5.62 256.249 5.62H254.317V8.62H257.437V9.16H254.317V12.46H256.369C256.809 12.46 257.181 12.364 257.485 12.172C257.797 11.972 258.057 11.612 258.265 11.092L258.589 11.212L258.241 12.16C258.153 12.416 258.037 12.62 257.893 12.772C257.757 12.924 257.525 13 257.197 13H252.757ZM265.521 13.12C265.241 13.12 264.973 13.064 264.717 12.952C264.461 12.84 264.209 12.66 263.961 12.412C263.721 12.156 263.469 11.812 263.205 11.38L262.005 9.376H261.525V13H259.953V6.64C259.953 6.28 259.901 5.992 259.797 5.776C259.701 5.552 259.473 5.44 259.113 5.44H258.993V5.08H262.305C262.521 5.08 262.769 5.096 263.049 5.128C263.337 5.152 263.625 5.208 263.913 5.296C264.201 5.376 264.469 5.496 264.717 5.656C264.965 5.816 265.165 6.028 265.317 6.292C265.469 6.548 265.545 6.868 265.545 7.252C265.545 7.676 265.449 8.024 265.257 8.296C265.072 8.56 264.833 8.768 264.537 8.92C264.241 9.072 263.929 9.192 263.601 9.28L264.861 11.38C265.165 11.892 265.445 12.232 265.701 12.4C265.957 12.568 266.173 12.668 266.349 12.7V13C266.285 13.032 266.169 13.06 266.001 13.084C265.841 13.108 265.681 13.12 265.521 13.12ZM261.525 8.896H262.245C262.437 8.896 262.629 8.868 262.821 8.812C263.013 8.756 263.185 8.664 263.337 8.536C263.497 8.408 263.625 8.236 263.721 8.02C263.817 7.804 263.865 7.54 263.865 7.228C263.865 6.916 263.817 6.656 263.721 6.448C263.633 6.232 263.509 6.06 263.349 5.932C263.197 5.796 263.025 5.7 262.833 5.644C262.649 5.588 262.461 5.56 262.269 5.56C262.205 5.56 262.109 5.564 261.98 5.572C261.861 5.58 261.709 5.604 261.525 5.644V8.896ZM269.379 13V9.832L267.255 6.64C267.119 6.432 266.959 6.232 266.775 6.04C266.599 5.848 266.415 5.684 266.223 5.548C266.031 5.412 265.843 5.336 265.659 5.32V5.08H266.967C267.271 5.08 267.543 5.148 267.783 5.284C268.031 5.42 268.251 5.588 268.443 5.788C268.635 5.988 268.795 6.192 268.923 6.4L270.555 8.86L272.883 5.08H273.663L270.939 9.508V13H269.379ZM279.96 13.204C279.632 13.204 279.308 13.172 278.988 13.108C278.668 13.044 278.376 12.952 278.112 12.832C277.848 12.704 277.636 12.552 277.476 12.376C277.324 12.192 277.248 11.988 277.248 11.764V10.36H277.584C277.712 11.192 277.968 11.784 278.352 12.136C278.744 12.488 279.276 12.664 279.948 12.664C280.252 12.664 280.516 12.62 280.74 12.532C280.972 12.444 281.148 12.316 281.268 12.148C281.396 11.972 281.46 11.756 281.46 11.5C281.46 11.156 281.348 10.872 281.124 10.648C280.908 10.416 280.608 10.184 280.224 9.952L278.748 9.064C278.204 8.744 277.82 8.416 277.596 8.08C277.372 7.744 277.26 7.356 277.26 6.916C277.26 6.284 277.5 5.784 277.98 5.416C278.468 5.048 279.124 4.864 279.948 4.864C280.276 4.864 280.6 4.896 280.92 4.96C281.24 5.024 281.532 5.12 281.796 5.248C282.06 5.368 282.268 5.516 282.42 5.692C282.58 5.868 282.66 6.072 282.66 6.304V7.708H282.324C282.188 6.876 281.932 6.284 281.556 5.932C281.18 5.58 280.688 5.404 280.08 5.404C279.792 5.404 279.54 5.452 279.324 5.548C279.116 5.644 278.956 5.78 278.844 5.956C278.732 6.124 278.676 6.328 278.676 6.568C278.676 6.904 278.788 7.176 279.012 7.384C279.244 7.592 279.548 7.808 279.924 8.032L281.4 8.908C281.944 9.228 282.34 9.544 282.588 9.856C282.844 10.16 282.972 10.532 282.972 10.972C282.972 11.66 282.712 12.204 282.192 12.604C281.672 13.004 280.928 13.204 279.96 13.204ZM284.55 13V6.64C284.55 6.28 284.498 5.992 284.394 5.776C284.298 5.552 284.07 5.44 283.71 5.44H283.59V5.08H285.03C285.31 5.08 285.526 5.128 285.678 5.224C285.838 5.32 285.95 5.48 286.014 5.704C286.078 5.928 286.11 6.24 286.11 6.64V12.46H290.25V13H284.55ZM292.13 13C291.85 13 291.63 12.956 291.47 12.868C291.318 12.772 291.21 12.612 291.146 12.388C291.082 12.156 291.05 11.84 291.05 11.44V5.08H292.61V11.44C292.61 11.8 292.658 12.092 292.754 12.316C292.858 12.532 293.09 12.64 293.45 12.64H293.57V13H292.13ZM298.416 13.24C297.792 13.24 297.216 13.132 296.688 12.916C296.168 12.692 295.712 12.384 295.32 11.992C294.936 11.6 294.636 11.144 294.42 10.624C294.204 10.096 294.096 9.528 294.096 8.92C294.096 8.152 294.26 7.46 294.588 6.844C294.916 6.228 295.376 5.74 295.968 5.38C296.568 5.02 297.264 4.84 298.056 4.84C298.808 4.84 299.424 4.94 299.904 5.14C300.384 5.332 300.736 5.556 300.96 5.812C301.12 6.012 301.212 6.272 301.236 6.592C301.26 6.912 301.272 7.208 301.272 7.48H300.912C300.76 6.744 300.48 6.212 300.072 5.884C299.664 5.548 299.112 5.38 298.416 5.38C297.936 5.38 297.528 5.476 297.192 5.668C296.864 5.86 296.592 6.124 296.376 6.46C296.168 6.796 296.016 7.176 295.92 7.6C295.824 8.024 295.776 8.464 295.776 8.92C295.776 9.888 295.892 10.652 296.124 11.212C296.364 11.772 296.684 12.172 297.084 12.412C297.484 12.644 297.928 12.76 298.416 12.76C298.776 12.76 299.084 12.732 299.34 12.676C299.596 12.62 299.828 12.544 300.036 12.448V10.312C300.036 10.144 300.06 9.976 300.108 9.808C300.164 9.64 300.272 9.484 300.432 9.34C300.592 9.188 300.824 9.068 301.128 8.98C301.44 8.892 301.852 8.848 302.364 8.848V9.148C302.092 9.148 301.896 9.248 301.776 9.448C301.656 9.648 301.596 9.928 301.596 10.288V12.436C301.132 12.716 300.64 12.92 300.12 13.048C299.6 13.176 299.032 13.24 298.416 13.24ZM303.628 13V6.64C303.628 6.28 303.576 5.992 303.472 5.776C303.376 5.552 303.148 5.44 302.788 5.44H302.668V5.08H304.108C304.388 5.08 304.604 5.128 304.756 5.224C304.916 5.32 305.028 5.48 305.092 5.704C305.156 5.928 305.188 6.24 305.188 6.64V8.62H308.428V5.08H309.988V11.44C309.988 11.8 310.036 12.092 310.132 12.316C310.236 12.532 310.468 12.64 310.828 12.64H310.948V13H309.508C309.228 13 309.008 12.956 308.848 12.868C308.696 12.772 308.588 12.612 308.524 12.388C308.46 12.156 308.428 11.84 308.428 11.44V9.16H305.188V13H303.628ZM313.909 13V5.62H313.057C312.633 5.62 312.297 5.728 312.049 5.944C311.801 6.152 311.677 6.524 311.677 7.06H311.317V6.04C311.317 5.88 311.345 5.728 311.401 5.584C311.457 5.432 311.557 5.312 311.701 5.224C311.853 5.128 312.065 5.08 312.337 5.08H317.977V5.62H315.469V13H313.909ZM319.167 13V6.64C319.167 6.28 319.115 5.992 319.011 5.776C318.915 5.552 318.687 5.44 318.327 5.44H318.207V5.08H319.647C319.927 5.08 320.143 5.128 320.295 5.224C320.455 5.32 320.567 5.48 320.631 5.704C320.695 5.928 320.727 6.24 320.727 6.64V12.46H324.867V13H319.167ZM326.766 13V9.832L324.642 6.64C324.506 6.432 324.346 6.232 324.162 6.04C323.986 5.848 323.802 5.684 323.61 5.548C323.418 5.412 323.23 5.336 323.046 5.32V5.08H324.354C324.658 5.08 324.93 5.148 325.17 5.284C325.418 5.42 325.638 5.588 325.83 5.788C326.022 5.988 326.182 6.192 326.31 6.4L327.942 8.86L330.27 5.08H331.05L328.326 9.508V13H326.766ZM336.098 13C335.818 13 335.598 12.956 335.438 12.868C335.286 12.772 335.178 12.612 335.114 12.388C335.05 12.156 335.018 11.84 335.018 11.44V5.08H336.578V11.44C336.578 11.8 336.626 12.092 336.722 12.316C336.826 12.532 337.058 12.64 337.418 12.64H337.538V13H336.098ZM344.579 13.036L339.491 7.06V13H338.891V6.52C338.891 6.216 338.815 5.96 338.663 5.752C338.519 5.544 338.235 5.44 337.811 5.44H337.751V5.08H338.591C339.047 5.08 339.415 5.14 339.695 5.26C339.983 5.38 340.219 5.56 340.403 5.8L344.531 10.6V5.08H345.131V13.036H344.579ZM350.427 13.24C349.587 13.24 348.871 13.06 348.279 12.7C347.687 12.34 347.235 11.852 346.923 11.236C346.619 10.62 346.467 9.928 346.467 9.16C346.467 8.552 346.563 7.988 346.755 7.468C346.955 6.94 347.235 6.48 347.595 6.088C347.955 5.696 348.375 5.392 348.855 5.176C349.335 4.952 349.859 4.84 350.427 4.84C351.179 4.84 351.783 4.94 352.239 5.14C352.703 5.332 353.047 5.556 353.271 5.812C353.431 6.02 353.523 6.288 353.547 6.616C353.571 6.944 353.583 7.284 353.583 7.636H353.223C353.071 6.908 352.791 6.352 352.383 5.968C351.983 5.576 351.451 5.38 350.787 5.38C350.299 5.38 349.855 5.492 349.455 5.716C349.055 5.94 348.735 6.328 348.495 6.88C348.263 7.424 348.147 8.184 348.147 9.16C348.147 9.616 348.195 10.056 348.291 10.48C348.387 10.904 348.539 11.284 348.747 11.62C348.963 11.956 349.235 12.22 349.563 12.412C349.899 12.604 350.307 12.7 350.787 12.7C351.339 12.7 351.851 12.556 352.323 12.268C352.795 11.972 353.175 11.544 353.463 10.984L353.883 11.308C353.507 11.972 353.047 12.46 352.503 12.772C351.959 13.084 351.267 13.24 350.427 13.24ZM355.308 13V6.64C355.308 6.28 355.256 5.992 355.152 5.776C355.056 5.552 354.828 5.44 354.468 5.44H354.348V5.08H355.788C356.068 5.08 356.284 5.128 356.436 5.224C356.596 5.32 356.708 5.48 356.772 5.704C356.836 5.928 356.868 6.24 356.868 6.64V12.46H361.008V13H355.308ZM364.688 13.12C363.968 13.12 363.368 12.988 362.888 12.724C362.408 12.46 362.048 12.064 361.808 11.536C361.568 11 361.448 10.336 361.448 9.544V6.64C361.448 6.296 361.404 6.016 361.316 5.8C361.228 5.584 361.028 5.464 360.716 5.44H360.608V5.08H361.928C362.208 5.08 362.424 5.128 362.576 5.224C362.736 5.32 362.848 5.48 362.912 5.704C362.976 5.928 363.008 6.24 363.008 6.64L363.02 9.904C363.028 10.736 363.188 11.392 363.5 11.872C363.82 12.344 364.296 12.58 364.928 12.58C365.472 12.58 365.916 12.472 366.26 12.256C366.604 12.04 366.856 11.708 367.016 11.26C367.184 10.812 367.268 10.24 367.268 9.544V5.08H367.868V9.544C367.868 10.296 367.764 10.94 367.556 11.476C367.356 12.004 367.024 12.412 366.56 12.7C366.096 12.98 365.472 13.12 364.688 13.12ZM369.816 13V6.64C369.816 6.28 369.764 5.992 369.66 5.776C369.564 5.552 369.336 5.44 368.976 5.44H368.856V5.08H372.12C373.768 5.08 375.004 5.428 375.828 6.124C376.66 6.82 377.076 7.776 377.076 8.992C377.076 9.784 376.896 10.48 376.536 11.08C376.184 11.68 375.664 12.152 374.976 12.496C374.288 12.832 373.44 13 372.432 13H369.816ZM372.396 12.52C372.956 12.52 373.452 12.38 373.884 12.1C374.316 11.82 374.656 11.42 374.904 10.9C375.152 10.38 375.276 9.76 375.276 9.04C375.276 8.336 375.152 7.724 374.904 7.204C374.664 6.684 374.324 6.28 373.884 5.992C373.452 5.704 372.948 5.56 372.372 5.56C372.196 5.56 372.044 5.564 371.916 5.572C371.788 5.58 371.608 5.604 371.376 5.644V12.436C371.552 12.468 371.688 12.492 371.784 12.508C371.888 12.516 371.984 12.52 372.072 12.52C372.16 12.52 372.268 12.52 372.396 12.52ZM378.581 13V6.64C378.581 6.28 378.529 5.992 378.425 5.776C378.329 5.552 378.101 5.44 377.741 5.44H377.621V5.08H382.913C383.193 5.08 383.405 5.128 383.549 5.224C383.693 5.312 383.793 5.432 383.849 5.584C383.905 5.728 383.933 5.88 383.933 6.04V7.06H383.573C383.573 6.548 383.441 6.18 383.177 5.956C382.921 5.732 382.553 5.62 382.073 5.62H380.141V8.62H383.261V9.16H380.141V12.46H382.193C382.633 12.46 383.005 12.364 383.309 12.172C383.621 11.972 383.881 11.612 384.089 11.092L384.413 11.212L384.065 12.16C383.977 12.416 383.861 12.62 383.717 12.772C383.581 12.924 383.349 13 383.021 13H378.581ZM385.777 13V6.64C385.777 6.28 385.725 5.992 385.621 5.776C385.525 5.552 385.297 5.44 384.937 5.44H384.817V5.08H388.081C389.729 5.08 390.965 5.428 391.789 6.124C392.621 6.82 393.037 7.776 393.037 8.992C393.037 9.784 392.857 10.48 392.497 11.08C392.145 11.68 391.625 12.152 390.937 12.496C390.249 12.832 389.401 13 388.393 13H385.777ZM388.357 12.52C388.917 12.52 389.413 12.38 389.845 12.1C390.277 11.82 390.617 11.42 390.865 10.9C391.113 10.38 391.237 9.76 391.237 9.04C391.237 8.336 391.113 7.724 390.865 7.204C390.625 6.684 390.285 6.28 389.845 5.992C389.413 5.704 388.909 5.56 388.333 5.56C388.157 5.56 388.005 5.564 387.877 5.572C387.749 5.58 387.569 5.604 387.337 5.644V12.436C387.513 12.468 387.649 12.492 387.745 12.508C387.849 12.516 387.945 12.52 388.033 12.52C388.121 12.52 388.229 12.52 388.357 12.52Z" fill="#33517F"/>
<path d="M68.276 191.204C67.948 191.204 67.624 191.172 67.304 191.108C66.984 191.044 66.692 190.952 66.428 190.832C66.164 190.704 65.952 190.552 65.792 190.376C65.64 190.192 65.564 189.988 65.564 189.764V188.36H65.9C66.028 189.192 66.284 189.784 66.668 190.136C67.06 190.488 67.592 190.664 68.264 190.664C68.568 190.664 68.832 190.62 69.056 190.532C69.288 190.444 69.464 190.316 69.584 190.148C69.712 189.972 69.776 189.756 69.776 189.5C69.776 189.156 69.664 188.872 69.44 188.648C69.224 188.416 68.924 188.184 68.54 187.952L67.064 187.064C66.52 186.744 66.136 186.416 65.912 186.08C65.688 185.744 65.576 185.356 65.576 184.916C65.576 184.284 65.816 183.784 66.296 183.416C66.784 183.048 67.44 182.864 68.264 182.864C68.592 182.864 68.916 182.896 69.236 182.96C69.556 183.024 69.848 183.12 70.112 183.248C70.376 183.368 70.584 183.516 70.736 183.692C70.896 183.868 70.976 184.072 70.976 184.304V185.708H70.64C70.504 184.876 70.248 184.284 69.872 183.932C69.496 183.58 69.004 183.404 68.396 183.404C68.108 183.404 67.856 183.452 67.64 183.548C67.432 183.644 67.272 183.78 67.16 183.956C67.048 184.124 66.992 184.328 66.992 184.568C66.992 184.904 67.104 185.176 67.328 185.384C67.56 185.592 67.864 185.808 68.24 186.032L69.716 186.908C70.26 187.228 70.656 187.544 70.904 187.856C71.16 188.16 71.288 188.532 71.288 188.972C71.288 189.66 71.028 190.204 70.508 190.604C69.988 191.004 69.244 191.204 68.276 191.204ZM72.8666 191V184.64C72.8666 184.28 72.8146 183.992 72.7106 183.776C72.6146 183.552 72.3866 183.44 72.0266 183.44H71.9066V183.08H73.3466C73.6266 183.08 73.8426 183.128 73.9946 183.224C74.1546 183.32 74.2666 183.48 74.3306 183.704C74.3946 183.928 74.4266 184.24 74.4266 184.64V190.46H78.5666V191H72.8666ZM80.446 191C80.166 191 79.946 190.956 79.786 190.868C79.634 190.772 79.526 190.612 79.462 190.388C79.398 190.156 79.366 189.84 79.366 189.44V183.08H80.926V189.44C80.926 189.8 80.974 190.092 81.07 190.316C81.174 190.532 81.406 190.64 81.766 190.64H81.886V191H80.446ZM86.7322 191.24C86.1082 191.24 85.5322 191.132 85.0042 190.916C84.4842 190.692 84.0282 190.384 83.6362 189.992C83.2522 189.6 82.9522 189.144 82.7362 188.624C82.5202 188.096 82.4122 187.528 82.4122 186.92C82.4122 186.152 82.5762 185.46 82.9042 184.844C83.2322 184.228 83.6922 183.74 84.2842 183.38C84.8842 183.02 85.5802 182.84 86.3722 182.84C87.1242 182.84 87.7402 182.94 88.2202 183.14C88.7002 183.332 89.0522 183.556 89.2762 183.812C89.4362 184.012 89.5282 184.272 89.5522 184.592C89.5762 184.912 89.5882 185.208 89.5882 185.48H89.2282C89.0762 184.744 88.7962 184.212 88.3882 183.884C87.9802 183.548 87.4282 183.38 86.7322 183.38C86.2522 183.38 85.8442 183.476 85.5082 183.668C85.1802 183.86 84.9082 184.124 84.6922 184.46C84.4842 184.796 84.3322 185.176 84.2362 185.6C84.1402 186.024 84.0922 186.464 84.0922 186.92C84.0922 187.888 84.2082 188.652 84.4402 189.212C84.6802 189.772 85.0002 190.172 85.4002 190.412C85.8002 190.644 86.2442 190.76 86.7322 190.76C87.0922 190.76 87.4002 190.732 87.6562 190.676C87.9122 190.62 88.1442 190.544 88.3522 190.448V188.312C88.3522 188.144 88.3762 187.976 88.4242 187.808C88.4802 187.64 88.5882 187.484 88.7482 187.34C88.9082 187.188 89.1402 187.068 89.4442 186.98C89.7562 186.892 90.1682 186.848 90.6802 186.848V187.148C90.4082 187.148 90.2122 187.248 90.0922 187.448C89.9722 187.648 89.9122 187.928 89.9122 188.288V190.436C89.4482 190.716 88.9562 190.92 88.4362 191.048C87.9162 191.176 87.3482 191.24 86.7322 191.24ZM91.9447 191V184.64C91.9447 184.28 91.8927 183.992 91.7887 183.776C91.6927 183.552 91.4647 183.44 91.1047 183.44H90.9847V183.08H92.4247C92.7047 183.08 92.9207 183.128 93.0727 183.224C93.2327 183.32 93.3447 183.48 93.4087 183.704C93.4727 183.928 93.5047 184.24 93.5047 184.64V186.62H96.7447V183.08H98.3047V189.44C98.3047 189.8 98.3527 190.092 98.4487 190.316C98.5527 190.532 98.7847 190.64 99.1447 190.64H99.2647V191H97.8247C97.5447 191 97.3247 190.956 97.1647 190.868C97.0127 190.772 96.9047 190.612 96.8407 190.388C96.7767 190.156 96.7447 189.84 96.7447 189.44V187.16H93.5047V191H91.9447ZM102.225 191V183.62H101.373C100.949 183.62 100.613 183.728 100.365 183.944C100.117 184.152 99.9934 184.524 99.9934 185.06H99.6334V184.04C99.6334 183.88 99.6614 183.728 99.7174 183.584C99.7734 183.432 99.8734 183.312 100.017 183.224C100.169 183.128 100.381 183.08 100.653 183.08H106.293V183.62H103.785V191H102.225ZM107.484 191V184.64C107.484 184.28 107.432 183.992 107.328 183.776C107.232 183.552 107.004 183.44 106.644 183.44H106.524V183.08H107.964C108.244 183.08 108.46 183.128 108.612 183.224C108.772 183.32 108.884 183.48 108.948 183.704C109.012 183.928 109.044 184.24 109.044 184.64V190.46H113.184V191H107.484ZM115.082 191V187.832L112.958 184.64C112.822 184.432 112.662 184.232 112.478 184.04C112.302 183.848 112.118 183.684 111.926 183.548C111.734 183.412 111.546 183.336 111.362 183.32V183.08H112.67C112.974 183.08 113.246 183.148 113.486 183.284C113.734 183.42 113.954 183.588 114.146 183.788C114.338 183.988 114.498 184.192 114.626 184.4L116.258 186.86L118.586 183.08H119.366L116.642 187.508V191H115.082ZM124.415 191C124.135 191 123.915 190.956 123.755 190.868C123.603 190.772 123.495 190.612 123.431 190.388C123.367 190.156 123.335 189.84 123.335 189.44V183.08H124.895V189.44C124.895 189.8 124.943 190.092 125.039 190.316C125.143 190.532 125.375 190.64 125.735 190.64H125.855V191H124.415ZM132.895 191.036L127.807 185.06V191H127.207V184.52C127.207 184.216 127.131 183.96 126.979 183.752C126.835 183.544 126.551 183.44 126.127 183.44H126.067V183.08H126.907C127.363 183.08 127.731 183.14 128.011 183.26C128.299 183.38 128.535 183.56 128.719 183.8L132.847 188.6V183.08H133.447V191.036H132.895ZM138.744 191.24C137.904 191.24 137.188 191.06 136.596 190.7C136.004 190.34 135.552 189.852 135.24 189.236C134.936 188.62 134.784 187.928 134.784 187.16C134.784 186.552 134.88 185.988 135.072 185.468C135.272 184.94 135.552 184.48 135.912 184.088C136.272 183.696 136.692 183.392 137.172 183.176C137.652 182.952 138.176 182.84 138.744 182.84C139.496 182.84 140.1 182.94 140.556 183.14C141.02 183.332 141.364 183.556 141.588 183.812C141.748 184.02 141.84 184.288 141.864 184.616C141.888 184.944 141.9 185.284 141.9 185.636H141.54C141.388 184.908 141.108 184.352 140.7 183.968C140.3 183.576 139.768 183.38 139.104 183.38C138.616 183.38 138.172 183.492 137.772 183.716C137.372 183.94 137.052 184.328 136.812 184.88C136.58 185.424 136.464 186.184 136.464 187.16C136.464 187.616 136.512 188.056 136.608 188.48C136.704 188.904 136.856 189.284 137.064 189.62C137.28 189.956 137.552 190.22 137.88 190.412C138.216 190.604 138.624 190.7 139.104 190.7C139.656 190.7 140.168 190.556 140.64 190.268C141.112 189.972 141.492 189.544 141.78 188.984L142.2 189.308C141.824 189.972 141.364 190.46 140.82 190.772C140.276 191.084 139.584 191.24 138.744 191.24ZM143.624 191V184.64C143.624 184.28 143.572 183.992 143.468 183.776C143.372 183.552 143.144 183.44 142.784 183.44H142.664V183.08H144.104C144.384 183.08 144.6 183.128 144.752 183.224C144.912 183.32 145.024 183.48 145.088 183.704C145.152 183.928 145.184 184.24 145.184 184.64V190.46H149.324V191H143.624ZM153.004 191.12C152.284 191.12 151.684 190.988 151.204 190.724C150.724 190.46 150.364 190.064 150.124 189.536C149.884 189 149.764 188.336 149.764 187.544V184.64C149.764 184.296 149.72 184.016 149.632 183.8C149.544 183.584 149.344 183.464 149.032 183.44H148.924V183.08H150.244C150.524 183.08 150.74 183.128 150.892 183.224C151.052 183.32 151.164 183.48 151.228 183.704C151.292 183.928 151.324 184.24 151.324 184.64L151.336 187.904C151.344 188.736 151.504 189.392 151.816 189.872C152.136 190.344 152.612 190.58 153.244 190.58C153.788 190.58 154.232 190.472 154.576 190.256C154.92 190.04 155.172 189.708 155.332 189.26C155.5 188.812 155.584 188.24 155.584 187.544V183.08H156.184V187.544C156.184 188.296 156.08 188.94 155.872 189.476C155.672 190.004 155.34 190.412 154.876 190.7C154.412 190.98 153.788 191.12 153.004 191.12ZM158.132 191V184.64C158.132 184.28 158.08 183.992 157.976 183.776C157.88 183.552 157.652 183.44 157.292 183.44H157.172V183.08H160.436C162.084 183.08 163.32 183.428 164.144 184.124C164.976 184.82 165.392 185.776 165.392 186.992C165.392 187.784 165.212 188.48 164.852 189.08C164.5 189.68 163.98 190.152 163.292 190.496C162.604 190.832 161.756 191 160.748 191H158.132ZM160.712 190.52C161.272 190.52 161.768 190.38 162.2 190.1C162.632 189.82 162.972 189.42 163.22 188.9C163.468 188.38 163.592 187.76 163.592 187.04C163.592 186.336 163.468 185.724 163.22 185.204C162.98 184.684 162.64 184.28 162.2 183.992C161.768 183.704 161.264 183.56 160.688 183.56C160.512 183.56 160.36 183.564 160.232 183.572C160.104 183.58 159.924 183.604 159.692 183.644V190.436C159.868 190.468 160.004 190.492 160.1 190.508C160.204 190.516 160.3 190.52 160.388 190.52C160.476 190.52 160.584 190.52 160.712 190.52ZM166.898 191V184.64C166.898 184.28 166.846 183.992 166.742 183.776C166.646 183.552 166.418 183.44 166.058 183.44H165.938V183.08H171.23C171.51 183.08 171.722 183.128 171.866 183.224C172.01 183.312 172.11 183.432 172.166 183.584C172.222 183.728 172.25 183.88 172.25 184.04V185.06H171.89C171.89 184.548 171.758 184.18 171.494 183.956C171.238 183.732 170.87 183.62 170.39 183.62H168.458V186.62H171.578V187.16H168.458V190.46H170.51C170.95 190.46 171.322 190.364 171.626 190.172C171.938 189.972 172.198 189.612 172.406 189.092L172.73 189.212L172.382 190.16C172.294 190.416 172.178 190.62 172.034 190.772C171.898 190.924 171.666 191 171.338 191H166.898ZM174.093 191V184.64C174.093 184.28 174.041 183.992 173.937 183.776C173.841 183.552 173.613 183.44 173.253 183.44H173.133V183.08H176.397C178.045 183.08 179.281 183.428 180.105 184.124C180.937 184.82 181.353 185.776 181.353 186.992C181.353 187.784 181.173 188.48 180.813 189.08C180.461 189.68 179.941 190.152 179.253 190.496C178.565 190.832 177.717 191 176.709 191H174.093ZM176.673 190.52C177.233 190.52 177.729 190.38 178.161 190.1C178.593 189.82 178.933 189.42 179.181 188.9C179.429 188.38 179.553 187.76 179.553 187.04C179.553 186.336 179.429 185.724 179.181 185.204C178.941 184.684 178.601 184.28 178.161 183.992C177.729 183.704 177.225 183.56 176.649 183.56C176.473 183.56 176.321 183.564 176.193 183.572C176.065 183.58 175.885 183.604 175.653 183.644V190.436C175.829 190.468 175.965 190.492 176.061 190.508C176.165 190.516 176.261 190.52 176.349 190.52C176.437 190.52 176.545 190.52 176.673 190.52Z" fill="#33517F"/>
<path d="M292.028 191C291.748 191 291.528 190.956 291.368 190.868C291.216 190.772 291.108 190.612 291.044 190.388C290.98 190.156 290.948 189.84 290.948 189.44V183.08H292.508V189.44C292.508 189.8 292.556 190.092 292.652 190.316C292.756 190.532 292.988 190.64 293.348 190.64H293.468V191H292.028ZM300.509 191.036L295.421 185.06V191H294.821V184.52C294.821 184.216 294.745 183.96 294.593 183.752C294.449 183.544 294.165 183.44 293.741 183.44H293.681V183.08H294.521C294.977 183.08 295.345 183.14 295.625 183.26C295.913 183.38 296.149 183.56 296.333 183.8L300.461 188.6V183.08H301.061V191.036H300.509ZM306.357 191.24C305.517 191.24 304.801 191.06 304.209 190.7C303.617 190.34 303.165 189.852 302.853 189.236C302.549 188.62 302.397 187.928 302.397 187.16C302.397 186.552 302.493 185.988 302.685 185.468C302.885 184.94 303.165 184.48 303.525 184.088C303.885 183.696 304.305 183.392 304.785 183.176C305.265 182.952 305.789 182.84 306.357 182.84C307.109 182.84 307.713 182.94 308.169 183.14C308.633 183.332 308.977 183.556 309.201 183.812C309.361 184.02 309.453 184.288 309.477 184.616C309.501 184.944 309.513 185.284 309.513 185.636H309.153C309.001 184.908 308.721 184.352 308.313 183.968C307.913 183.576 307.381 183.38 306.717 183.38C306.229 183.38 305.785 183.492 305.385 183.716C304.985 183.94 304.665 184.328 304.425 184.88C304.193 185.424 304.077 186.184 304.077 187.16C304.077 187.616 304.125 188.056 304.221 188.48C304.317 188.904 304.469 189.284 304.677 189.62C304.893 189.956 305.165 190.22 305.493 190.412C305.829 190.604 306.237 190.7 306.717 190.7C307.269 190.7 307.781 190.556 308.253 190.268C308.725 189.972 309.105 189.544 309.393 188.984L309.813 189.308C309.437 189.972 308.977 190.46 308.433 190.772C307.889 191.084 307.197 191.24 306.357 191.24ZM311.238 191V184.64C311.238 184.28 311.186 183.992 311.082 183.776C310.986 183.552 310.758 183.44 310.398 183.44H310.278V183.08H311.718C311.998 183.08 312.214 183.128 312.366 183.224C312.526 183.32 312.638 183.48 312.702 183.704C312.766 183.928 312.798 184.24 312.798 184.64V190.46H316.938V191H311.238ZM320.617 191.12C319.897 191.12 319.297 190.988 318.817 190.724C318.337 190.46 317.977 190.064 317.737 189.536C317.497 189 317.377 188.336 317.377 187.544V184.64C317.377 184.296 317.333 184.016 317.245 183.8C317.157 183.584 316.957 183.464 316.645 183.44H316.537V183.08H317.857C318.137 183.08 318.353 183.128 318.505 183.224C318.665 183.32 318.777 183.48 318.841 183.704C318.905 183.928 318.937 184.24 318.937 184.64L318.949 187.904C318.957 188.736 319.117 189.392 319.429 189.872C319.749 190.344 320.225 190.58 320.857 190.58C321.401 190.58 321.845 190.472 322.189 190.256C322.533 190.04 322.785 189.708 322.945 189.26C323.113 188.812 323.197 188.24 323.197 187.544V183.08H323.797V187.544C323.797 188.296 323.693 188.94 323.485 189.476C323.285 190.004 322.953 190.412 322.489 190.7C322.025 190.98 321.401 191.12 320.617 191.12ZM325.745 191V184.64C325.745 184.28 325.693 183.992 325.589 183.776C325.493 183.552 325.265 183.44 324.905 183.44H324.785V183.08H328.049C329.697 183.08 330.933 183.428 331.757 184.124C332.589 184.82 333.005 185.776 333.005 186.992C333.005 187.784 332.825 188.48 332.465 189.08C332.113 189.68 331.593 190.152 330.905 190.496C330.217 190.832 329.369 191 328.361 191H325.745ZM328.325 190.52C328.885 190.52 329.381 190.38 329.813 190.1C330.245 189.82 330.585 189.42 330.833 188.9C331.081 188.38 331.205 187.76 331.205 187.04C331.205 186.336 331.081 185.724 330.833 185.204C330.593 184.684 330.253 184.28 329.813 183.992C329.381 183.704 328.877 183.56 328.301 183.56C328.125 183.56 327.973 183.564 327.845 183.572C327.717 183.58 327.537 183.604 327.305 183.644V190.436C327.481 190.468 327.617 190.492 327.713 190.508C327.817 190.516 327.913 190.52 328.001 190.52C328.089 190.52 328.197 190.52 328.325 190.52ZM334.511 191V184.64C334.511 184.28 334.459 183.992 334.355 183.776C334.259 183.552 334.031 183.44 333.671 183.44H333.551V183.08H338.843C339.123 183.08 339.335 183.128 339.479 183.224C339.623 183.312 339.723 183.432 339.779 183.584C339.835 183.728 339.863 183.88 339.863 184.04V185.06H339.503C339.503 184.548 339.371 184.18 339.107 183.956C338.851 183.732 338.483 183.62 338.003 183.62H336.071V186.62H339.191V187.16H336.071V190.46H338.123C338.563 190.46 338.935 190.364 339.239 190.172C339.551 189.972 339.811 189.612 340.019 189.092L340.343 189.212L339.995 190.16C339.907 190.416 339.791 190.62 339.647 190.772C339.511 190.924 339.279 191 338.951 191H334.511ZM341.706 191V184.64C341.706 184.28 341.654 183.992 341.55 183.776C341.454 183.552 341.226 183.44 340.866 183.44H340.746V183.08H344.01C345.658 183.08 346.894 183.428 347.718 184.124C348.55 184.82 348.966 185.776 348.966 186.992C348.966 187.784 348.786 188.48 348.426 189.08C348.074 189.68 347.554 190.152 346.866 190.496C346.178 190.832 345.33 191 344.322 191H341.706ZM344.286 190.52C344.846 190.52 345.342 190.38 345.774 190.1C346.206 189.82 346.546 189.42 346.794 188.9C347.042 188.38 347.166 187.76 347.166 187.04C347.166 186.336 347.042 185.724 346.794 185.204C346.554 184.684 346.214 184.28 345.774 183.992C345.342 183.704 344.838 183.56 344.262 183.56C344.086 183.56 343.934 183.564 343.806 183.572C343.678 183.58 343.498 183.604 343.266 183.644V190.436C343.442 190.468 343.578 190.492 343.674 190.508C343.778 190.516 343.874 190.52 343.962 190.52C344.05 190.52 344.158 190.52 344.286 190.52Z" fill="#33517F"/>
</g>
<defs>
<filter id="filter0_dddd_210_26" x="0.237305" y="-3" width="421.763" height="403" filterUnits="userSpaceOnUse" color-interpolation-filters="sRGB">
<feFlood flood-opacity="0" result="BackgroundImageFix"/>
<feColorMatrix in="SourceAlpha" type="matrix" values="0 0 0 0 0 0 0 0 0 0 0 0 0 0 0 0 0 0 127 0" result="hardAlpha"/>
<feOffset dy="3"/>
<feGaussianBlur stdDeviation="3.5"/>
<feColorMatrix type="matrix" values="0 0 0 0 0 0 0 0 0 0 0 0 0 0 0 0 0 0 0.1 0"/>
<feBlend mode="normal" in2="BackgroundImageFix" result="effect1_dropShadow_210_26"/>
<feColorMatrix in="SourceAlpha" type="matrix" values="0 0 0 0 0 0 0 0 0 0 0 0 0 0 0 0 0 0 127 0" result="hardAlpha"/>
<feOffset dy="12"/>
<feGaussianBlur stdDeviation="6"/>
<feColorMatrix type="matrix" values="0 0 0 0 0 0 0 0 0 0 0 0 0 0 0 0 0 0 0.09 0"/>
<feBlend mode="normal" in2="effect1_dropShadow_210_26" result="effect2_dropShadow_210_26"/>
<feColorMatrix in="SourceAlpha" type="matrix" values="0 0 0 0 0 0 0 0 0 0 0 0 0 0 0 0 0 0 127 0" result="hardAlpha"/>
<feOffset dy="27"/>
<feGaussianBlur stdDeviation="8"/>
<feColorMatrix type="matrix" values="0 0 0 0 0 0 0 0 0 0 0 0 0 0 0 0 0 0 0.05 0"/>
<feBlend mode="normal" in2="effect2_dropShadow_210_26" result="effect3_dropShadow_210_26"/>
<feColorMatrix in="SourceAlpha" type="matrix" values="0 0 0 0 0 0 0 0 0 0 0 0 0 0 0 0 0 0 127 0" result="hardAlpha"/>
<feOffset dy="49"/>
<feGaussianBlur stdDeviation="10"/>
<feColorMatrix type="matrix" values="0 0 0 0 0 0 0 0 0 0 0 0 0 0 0 0 0 0 0.01 0"/>
<feBlend mode="normal" in2="effect3_dropShadow_210_26" result="effect4_dropShadow_210_26"/>
<feBlend mode="normal" in="SourceGraphic" in2="effect4_dropShadow_210_26" result="shape"/>
</filter>
</defs>
</svg>
