<svg width="455" height="337" viewBox="0 0 455 337" fill="none" xmlns="http://www.w3.org/2000/svg">
<g clip-path="url(#clip0_667_1064)">
<path d="M-4.51318 29.61H453.954" stroke="#41527F" stroke-width="0.544835" stroke-miterlimit="10"/>
<path d="M-4.51318 208.913H453.954" stroke="#41527F" stroke-width="0.544835" stroke-miterlimit="10"/>
<path d="M156.924 69.156L116.911 136.35L76.897 69.156H156.924Z" fill="#BAAEFF"/>
<path d="M76.897 69.1561L49.125 62.0714L116.912 136.351L76.897 69.1561Z" fill="#D7D4FF"/>
<path d="M156.924 69.1561L184.698 62.0714L116.912 136.351L156.924 69.1561Z" fill="#AB7FEF"/>
<path d="M141.465 29.9298H116.911H92.3594L76.897 69.1561H116.911H156.926L141.465 29.9298Z" fill="#DFD4FF"/>
<path d="M156.926 69.1561L184.698 62.0714L158.806 29.9298H141.466L156.926 69.1561Z" fill="#CDAEFF"/>
<path d="M76.897 69.1558L92.3594 29.9296H75.0174L49.125 62.0712L76.897 69.1558Z" fill="#BFAEFF"/>
<path d="M92.568 29.9276H92.123V94.427H92.568V29.9276Z" fill="#9A8FDB"/>
<path d="M141.9 23.4404H141.455V94.1799H141.9V23.4404Z" fill="#9A8FDB"/>
<path d="M140.322 24.5811H143.035L141.638 21.5699L140.322 24.5811Z" fill="#9A8FDB"/>
<path d="M141.905 93.6332H92.3105V94.425H141.905V93.6332Z" fill="#9A8FDB"/>
<path d="M85.14 17V10.64C85.14 10.28 85.088 9.992 84.984 9.776C84.888 9.552 84.66 9.44 84.3 9.44H84.18V9.08H89.472C89.752 9.08 89.964 9.128 90.108 9.224C90.252 9.312 90.352 9.432 90.408 9.584C90.464 9.728 90.492 9.88 90.492 10.04V11.06H90.132C90.132 10.548 90 10.18 89.736 9.956C89.48 9.732 89.112 9.62 88.632 9.62H86.7V12.62H89.82V13.16H86.7V16.46H88.752C89.192 16.46 89.564 16.364 89.868 16.172C90.18 15.972 90.44 15.612 90.648 15.092L90.972 15.212L90.624 16.16C90.536 16.416 90.42 16.62 90.276 16.772C90.14 16.924 89.908 17 89.58 17H85.14ZM91.3993 17L94.3513 13.268L92.6473 10.64C92.5193 10.432 92.3633 10.232 92.1793 10.04C91.9953 9.84 91.8033 9.676 91.6033 9.548C91.4113 9.412 91.2233 9.336 91.0393 9.32V9.08H92.3593C92.6633 9.08 92.9353 9.148 93.1753 9.284C93.4233 9.42 93.6433 9.588 93.8353 9.788C94.0273 9.988 94.1873 10.192 94.3153 10.4L95.3593 12.008L97.6753 9.08H98.4553L95.7073 12.548L97.5913 15.44C97.7273 15.648 97.8833 15.852 98.0593 16.052C98.2433 16.244 98.4353 16.404 98.6353 16.532C98.8353 16.66 99.0233 16.736 99.1993 16.76V17H97.8793C97.5833 17 97.3113 16.932 97.0633 16.796C96.8153 16.66 96.5953 16.492 96.4033 16.292C96.2113 16.084 96.0513 15.88 95.9233 15.68L94.7113 13.808L92.1793 17H91.3993ZM102.982 17.24C102.142 17.24 101.426 17.06 100.834 16.7C100.242 16.34 99.7901 15.852 99.4781 15.236C99.1741 14.62 99.0221 13.928 99.0221 13.16C99.0221 12.552 99.1181 11.988 99.3101 11.468C99.5101 10.94 99.7901 10.48 100.15 10.088C100.51 9.696 100.93 9.392 101.41 9.176C101.89 8.952 102.414 8.84 102.982 8.84C103.734 8.84 104.338 8.94 104.794 9.14C105.258 9.332 105.602 9.556 105.826 9.812C105.986 10.02 106.078 10.288 106.102 10.616C106.126 10.944 106.138 11.284 106.138 11.636H105.778C105.626 10.908 105.346 10.352 104.938 9.968C104.538 9.576 104.006 9.38 103.342 9.38C102.854 9.38 102.41 9.492 102.01 9.716C101.61 9.94 101.29 10.328 101.05 10.88C100.818 11.424 100.702 12.184 100.702 13.16C100.702 13.616 100.75 14.056 100.846 14.48C100.942 14.904 101.094 15.284 101.302 15.62C101.518 15.956 101.79 16.22 102.118 16.412C102.454 16.604 102.862 16.7 103.342 16.7C103.894 16.7 104.406 16.556 104.878 16.268C105.35 15.972 105.73 15.544 106.018 14.984L106.438 15.308C106.062 15.972 105.602 16.46 105.058 16.772C104.514 17.084 103.822 17.24 102.982 17.24ZM107.863 17V10.64C107.863 10.28 107.811 9.992 107.707 9.776C107.611 9.552 107.383 9.44 107.023 9.44H106.903V9.08H112.195C112.475 9.08 112.687 9.128 112.831 9.224C112.975 9.312 113.075 9.432 113.131 9.584C113.187 9.728 113.215 9.88 113.215 10.04V11.06H112.855C112.855 10.548 112.723 10.18 112.459 9.956C112.203 9.732 111.835 9.62 111.355 9.62H109.423V12.62H112.543V13.16H109.423V16.46H111.475C111.915 16.46 112.287 16.364 112.591 16.172C112.903 15.972 113.163 15.612 113.371 15.092L113.695 15.212L113.347 16.16C113.259 16.416 113.143 16.62 112.999 16.772C112.863 16.924 112.631 17 112.303 17H107.863ZM115.058 17V10.64C115.058 10.28 115.006 9.992 114.902 9.776C114.806 9.552 114.578 9.44 114.218 9.44H114.098V9.08H115.538C115.818 9.08 116.034 9.128 116.186 9.224C116.346 9.32 116.458 9.48 116.522 9.704C116.586 9.928 116.618 10.24 116.618 10.64V16.46H120.758V17H115.058ZM121.703 17V10.64C121.703 10.28 121.651 9.992 121.547 9.776C121.451 9.552 121.223 9.44 120.863 9.44H120.743V9.08H122.183C122.463 9.08 122.679 9.128 122.831 9.224C122.991 9.32 123.103 9.48 123.167 9.704C123.231 9.928 123.263 10.24 123.263 10.64V16.46H127.403V17H121.703ZM128.347 17V10.64C128.347 10.28 128.295 9.992 128.191 9.776C128.095 9.552 127.867 9.44 127.507 9.44H127.387V9.08H132.679C132.959 9.08 133.171 9.128 133.315 9.224C133.459 9.312 133.559 9.432 133.615 9.584C133.671 9.728 133.699 9.88 133.699 10.04V11.06H133.339C133.339 10.548 133.207 10.18 132.943 9.956C132.687 9.732 132.319 9.62 131.839 9.62H129.907V12.62H133.027V13.16H129.907V16.46H131.959C132.399 16.46 132.771 16.364 133.075 16.172C133.387 15.972 133.647 15.612 133.855 15.092L134.179 15.212L133.831 16.16C133.743 16.416 133.627 16.62 133.483 16.772C133.347 16.924 133.115 17 132.787 17H128.347ZM141.266 17.036L136.178 11.06V17H135.578V10.52C135.578 10.216 135.502 9.96 135.35 9.752C135.206 9.544 134.922 9.44 134.498 9.44H134.438V9.08H135.278C135.734 9.08 136.102 9.14 136.382 9.26C136.67 9.38 136.906 9.56 137.09 9.8L141.218 14.6V9.08H141.818V17.036H141.266ZM145.495 17V9.62H144.643C144.219 9.62 143.883 9.728 143.635 9.944C143.387 10.152 143.263 10.524 143.263 11.06H142.903V10.04C142.903 9.88 142.931 9.728 142.987 9.584C143.043 9.432 143.143 9.312 143.287 9.224C143.439 9.128 143.651 9.08 143.923 9.08H149.563V9.62H147.055V17H145.495Z" fill="#33517F"/>
<path d="M361.943 67.4106L321.93 129.812L281.916 67.4106H361.943Z" fill="#BAAEFF"/>
<path d="M281.916 67.4106L254.144 60.6401L321.93 129.812L281.916 67.4106Z" fill="#D7D4FF"/>
<path d="M361.942 67.4106L389.716 60.6401L321.93 129.812L361.942 67.4106Z" fill="#AB7FEF"/>
<path d="M346.482 29.9225H321.93H297.378L281.916 67.4107H321.93H361.944L346.482 29.9225Z" fill="#DFD4FF"/>
<path d="M361.944 67.4107L389.716 60.6403L363.824 29.9225H346.482L361.944 67.4107Z" fill="#CDAEFF"/>
<path d="M281.916 67.4107L297.378 29.9225H280.036L254.144 60.6403L281.916 67.4107Z" fill="#BFAEFF"/>
<path d="M297.587 91.5612H297.142L314.717 29.9186H315.162L297.587 91.5612Z" fill="#9A8FDB"/>
<path d="M346.918 23.7202H346.473V91.3269H346.918V23.7202Z" fill="#9A8FDB"/>
<path d="M345.339 24.8099H348.053L346.656 21.9332L345.339 24.8099Z" fill="#9A8FDB"/>
<path d="M346.923 90.804H297.329V91.5613H346.923V90.804Z" fill="#9A8FDB"/>
<path d="M291.588 17.12L288.792 10.484C288.6 10.036 288.412 9.724 288.228 9.548C288.052 9.364 287.844 9.256 287.604 9.224V8.984C287.636 8.984 287.716 8.98 287.844 8.972C287.964 8.964 288.052 8.96 288.108 8.96C288.388 8.96 288.672 8.992 288.96 9.056C289.256 9.12 289.536 9.26 289.8 9.476C290.064 9.692 290.292 10.028 290.484 10.484L292.38 14.972L294.912 9.08H295.524L292.068 17.12H291.588ZM296.757 17V10.64C296.757 10.28 296.705 9.992 296.601 9.776C296.505 9.552 296.277 9.44 295.917 9.44H295.797V9.08H301.089C301.369 9.08 301.581 9.128 301.725 9.224C301.869 9.312 301.969 9.432 302.025 9.584C302.081 9.728 302.109 9.88 302.109 10.04V11.06H301.749C301.749 10.548 301.617 10.18 301.353 9.956C301.097 9.732 300.729 9.62 300.249 9.62H298.317V12.62H301.437V13.16H298.317V16.46H300.369C300.809 16.46 301.181 16.364 301.485 16.172C301.797 15.972 302.057 15.612 302.265 15.092L302.589 15.212L302.241 16.16C302.153 16.416 302.037 16.62 301.893 16.772C301.757 16.924 301.525 17 301.197 17H296.757ZM309.521 17.12C309.241 17.12 308.973 17.064 308.717 16.952C308.461 16.84 308.209 16.66 307.961 16.412C307.721 16.156 307.469 15.812 307.205 15.38L306.005 13.376H305.525V17H303.953V10.64C303.953 10.28 303.901 9.992 303.797 9.776C303.701 9.552 303.473 9.44 303.113 9.44H302.993V9.08H306.305C306.521 9.08 306.769 9.096 307.049 9.128C307.337 9.152 307.625 9.208 307.913 9.296C308.201 9.376 308.469 9.496 308.717 9.656C308.965 9.816 309.165 10.028 309.317 10.292C309.469 10.548 309.545 10.868 309.545 11.252C309.545 11.676 309.449 12.024 309.257 12.296C309.072 12.56 308.833 12.768 308.537 12.92C308.241 13.072 307.929 13.192 307.601 13.28L308.861 15.38C309.165 15.892 309.445 16.232 309.701 16.4C309.957 16.568 310.173 16.668 310.349 16.7V17C310.285 17.032 310.169 17.06 310.001 17.084C309.841 17.108 309.681 17.12 309.521 17.12ZM305.525 12.896H306.245C306.437 12.896 306.629 12.868 306.821 12.812C307.013 12.756 307.185 12.664 307.337 12.536C307.497 12.408 307.625 12.236 307.721 12.02C307.817 11.804 307.865 11.54 307.865 11.228C307.865 10.916 307.817 10.656 307.721 10.448C307.633 10.232 307.509 10.06 307.349 9.932C307.197 9.796 307.025 9.7 306.833 9.644C306.649 9.588 306.461 9.56 306.269 9.56C306.205 9.56 306.109 9.564 305.98 9.572C305.861 9.58 305.709 9.604 305.525 9.644V12.896ZM313.379 17V13.832L311.255 10.64C311.119 10.432 310.959 10.232 310.775 10.04C310.599 9.848 310.415 9.684 310.223 9.548C310.031 9.412 309.843 9.336 309.659 9.32V9.08H310.967C311.271 9.08 311.543 9.148 311.783 9.284C312.031 9.42 312.251 9.588 312.443 9.788C312.635 9.988 312.795 10.192 312.923 10.4L314.555 12.86L316.883 9.08H317.663L314.939 13.508V17H313.379ZM325.424 17.24C324.8 17.24 324.224 17.132 323.696 16.916C323.176 16.692 322.72 16.384 322.328 15.992C321.944 15.6 321.644 15.144 321.428 14.624C321.212 14.096 321.104 13.528 321.104 12.92C321.104 12.152 321.268 11.46 321.596 10.844C321.924 10.228 322.384 9.74 322.976 9.38C323.576 9.02 324.272 8.84 325.064 8.84C325.816 8.84 326.432 8.94 326.912 9.14C327.392 9.332 327.744 9.556 327.968 9.812C328.128 10.012 328.22 10.272 328.244 10.592C328.268 10.912 328.28 11.208 328.28 11.48H327.92C327.768 10.744 327.488 10.212 327.08 9.884C326.672 9.548 326.12 9.38 325.424 9.38C324.944 9.38 324.536 9.476 324.2 9.668C323.872 9.86 323.6 10.124 323.384 10.46C323.176 10.796 323.024 11.176 322.928 11.6C322.832 12.024 322.784 12.464 322.784 12.92C322.784 13.888 322.9 14.652 323.132 15.212C323.372 15.772 323.692 16.172 324.092 16.412C324.492 16.644 324.936 16.76 325.424 16.76C325.784 16.76 326.092 16.732 326.348 16.676C326.604 16.62 326.836 16.544 327.044 16.448V14.312C327.044 14.144 327.068 13.976 327.116 13.808C327.172 13.64 327.28 13.484 327.44 13.34C327.6 13.188 327.832 13.068 328.136 12.98C328.448 12.892 328.86 12.848 329.372 12.848V13.148C329.1 13.148 328.904 13.248 328.784 13.448C328.664 13.648 328.604 13.928 328.604 14.288V16.436C328.14 16.716 327.648 16.92 327.128 17.048C326.608 17.176 326.04 17.24 325.424 17.24ZM333.9 17.24C333.108 17.24 332.412 17.056 331.812 16.688C331.22 16.312 330.76 15.808 330.432 15.176C330.104 14.544 329.94 13.832 329.94 13.04C329.94 12.248 330.104 11.536 330.432 10.904C330.76 10.272 331.22 9.772 331.812 9.404C332.412 9.028 333.108 8.84 333.9 8.84C334.7 8.84 335.392 9.028 335.976 9.404C336.568 9.772 337.028 10.272 337.356 10.904C337.684 11.536 337.848 12.248 337.848 13.04C337.848 13.832 337.684 14.544 337.356 15.176C337.028 15.808 336.568 16.312 335.976 16.688C335.392 17.056 334.7 17.24 333.9 17.24ZM333.9 16.7C334.388 16.7 334.8 16.56 335.136 16.28C335.48 15.992 335.74 15.576 335.916 15.032C336.1 14.48 336.192 13.816 336.192 13.04C336.192 12.256 336.1 11.592 335.916 11.048C335.74 10.504 335.48 10.092 335.136 9.812C334.8 9.524 334.388 9.38 333.9 9.38C333.42 9.38 333.008 9.524 332.664 9.812C332.328 10.092 332.068 10.504 331.884 11.048C331.708 11.592 331.62 12.256 331.62 13.04C331.62 13.816 331.708 14.48 331.884 15.032C332.068 15.576 332.328 15.992 332.664 16.28C333.008 16.56 333.42 16.7 333.9 16.7ZM342.701 17.24C341.909 17.24 341.213 17.056 340.613 16.688C340.021 16.312 339.561 15.808 339.233 15.176C338.905 14.544 338.741 13.832 338.741 13.04C338.741 12.248 338.905 11.536 339.233 10.904C339.561 10.272 340.021 9.772 340.613 9.404C341.213 9.028 341.909 8.84 342.701 8.84C343.501 8.84 344.193 9.028 344.777 9.404C345.369 9.772 345.829 10.272 346.157 10.904C346.485 11.536 346.649 12.248 346.649 13.04C346.649 13.832 346.485 14.544 346.157 15.176C345.829 15.808 345.369 16.312 344.777 16.688C344.193 17.056 343.501 17.24 342.701 17.24ZM342.701 16.7C343.189 16.7 343.601 16.56 343.937 16.28C344.281 15.992 344.541 15.576 344.717 15.032C344.901 14.48 344.993 13.816 344.993 13.04C344.993 12.256 344.901 11.592 344.717 11.048C344.541 10.504 344.281 10.092 343.937 9.812C343.601 9.524 343.189 9.38 342.701 9.38C342.221 9.38 341.809 9.524 341.465 9.812C341.129 10.092 340.869 10.504 340.685 11.048C340.509 11.592 340.421 12.256 340.421 13.04C340.421 13.816 340.509 14.48 340.685 15.032C340.869 15.576 341.129 15.992 341.465 16.28C341.809 16.56 342.221 16.7 342.701 16.7ZM348.167 17V10.64C348.167 10.28 348.115 9.992 348.011 9.776C347.915 9.552 347.687 9.44 347.327 9.44H347.207V9.08H350.471C352.119 9.08 353.355 9.428 354.179 10.124C355.011 10.82 355.427 11.776 355.427 12.992C355.427 13.784 355.247 14.48 354.887 15.08C354.535 15.68 354.015 16.152 353.327 16.496C352.639 16.832 351.791 17 350.783 17H348.167ZM350.747 16.52C351.307 16.52 351.803 16.38 352.235 16.1C352.667 15.82 353.007 15.42 353.255 14.9C353.503 14.38 353.627 13.76 353.627 13.04C353.627 12.336 353.503 11.724 353.255 11.204C353.015 10.684 352.675 10.28 352.235 9.992C351.803 9.704 351.299 9.56 350.723 9.56C350.547 9.56 350.395 9.564 350.267 9.572C350.139 9.58 349.959 9.604 349.727 9.644V16.436C349.903 16.468 350.039 16.492 350.135 16.508C350.239 16.516 350.335 16.52 350.423 16.52C350.511 16.52 350.619 16.52 350.747 16.52Z" fill="#33517F"/>
<path d="M155.471 241.391L115.458 289.929L75.4438 241.391H155.471Z" fill="#BAAEFF"/>
<path d="M75.4439 241.391L47.6719 235.565L115.458 289.929L75.4439 241.391Z" fill="#D7D4FF"/>
<path d="M155.471 241.391L183.245 235.565L115.458 289.929L155.471 241.391Z" fill="#AB7FEF"/>
<path d="M140.012 209.133H115.458H90.9063L75.4438 241.391H115.458H155.473L140.012 209.133Z" fill="#DFD4FF"/>
<path d="M155.473 241.391L183.245 235.565L157.352 209.133H140.012L155.473 241.391Z" fill="#CDAEFF"/>
<path d="M75.4439 241.392L90.9063 209.134H73.5642L47.6719 235.565L75.4439 241.392Z" fill="#BFAEFF"/>
<path d="M90.2597 257.782H89.4243L90.8827 209.106H91.7181L90.2597 257.782Z" fill="#9A8FDB"/>
<path d="M90.2597 257.782H89.4243L120.206 304.965L120.963 304.852L90.2597 257.782Z" fill="#9A8FDB"/>
<path d="M122.554 303.1L117.979 305.333L121.782 307.148L122.554 303.1Z" fill="#9A8FDB"/>
<path d="M104.14 196V189.64C104.14 189.28 104.088 188.992 103.984 188.776C103.888 188.552 103.66 188.44 103.3 188.44H103.18V188.08H106.42C106.796 188.08 107.188 188.104 107.596 188.152C108.012 188.192 108.396 188.284 108.748 188.428C109.108 188.564 109.4 188.772 109.624 189.052C109.848 189.332 109.96 189.708 109.96 190.18C109.96 190.524 109.82 190.864 109.54 191.2C109.268 191.528 108.852 191.764 108.292 191.908C108.82 191.956 109.228 192.072 109.516 192.256C109.812 192.44 110.02 192.668 110.14 192.94C110.26 193.204 110.32 193.492 110.32 193.804C110.32 194.26 110.216 194.632 110.008 194.92C109.808 195.208 109.536 195.432 109.192 195.592C108.848 195.744 108.464 195.852 108.04 195.916C107.624 195.972 107.204 196 106.78 196H104.14ZM106.6 195.52C107.264 195.52 107.768 195.376 108.112 195.088C108.464 194.8 108.64 194.392 108.64 193.864C108.64 193.312 108.468 192.9 108.124 192.628C107.788 192.348 107.28 192.208 106.6 192.208H105.7V195.4C105.788 195.424 105.912 195.452 106.072 195.484C106.232 195.508 106.408 195.52 106.6 195.52ZM105.7 191.668H106.6C106.928 191.668 107.216 191.62 107.464 191.524C107.72 191.42 107.92 191.256 108.064 191.032C108.208 190.8 108.28 190.496 108.28 190.12C108.28 189.72 108.188 189.408 108.004 189.184C107.828 188.96 107.596 188.8 107.308 188.704C107.028 188.608 106.732 188.56 106.42 188.56C106.332 188.56 106.232 188.564 106.12 188.572C106.016 188.58 105.876 188.604 105.7 188.644V191.668ZM118.188 196.048C117.924 196.048 117.644 196.016 117.348 195.952C117.06 195.88 116.78 195.732 116.508 195.508C116.244 195.284 116.016 194.944 115.824 194.488L115.548 193.816H112.356L111.372 196H110.748L114.288 188.08H114.828L117.516 194.488C117.66 194.84 117.836 195.12 118.044 195.328C118.252 195.536 118.492 195.656 118.764 195.688V195.988C118.7 196.004 118.608 196.016 118.488 196.024C118.376 196.04 118.276 196.048 118.188 196.048ZM112.608 193.276H115.32L114 190.144L112.608 193.276ZM119.562 196V189.64C119.562 189.28 119.51 188.992 119.406 188.776C119.31 188.552 119.082 188.44 118.722 188.44H118.602V188.08H121.866C123.514 188.08 124.75 188.428 125.574 189.124C126.406 189.82 126.822 190.776 126.822 191.992C126.822 192.784 126.642 193.48 126.282 194.08C125.93 194.68 125.41 195.152 124.722 195.496C124.034 195.832 123.186 196 122.178 196H119.562ZM122.142 195.52C122.702 195.52 123.198 195.38 123.63 195.1C124.062 194.82 124.402 194.42 124.65 193.9C124.898 193.38 125.022 192.76 125.022 192.04C125.022 191.336 124.898 190.724 124.65 190.204C124.41 189.684 124.07 189.28 123.63 188.992C123.198 188.704 122.694 188.56 122.118 188.56C121.942 188.56 121.79 188.564 121.662 188.572C121.534 188.58 121.354 188.604 121.122 188.644V195.436C121.298 195.468 121.434 195.492 121.53 195.508C121.634 195.516 121.73 195.52 121.818 195.52C121.906 195.52 122.014 195.52 122.142 195.52Z" fill="#33517F"/>
<path d="M366.786 255.381L326.774 332.086L286.759 255.381H366.786Z" fill="#BAAEFF"/>
<path d="M286.759 255.381L258.987 247.056L326.774 332.086L286.759 255.381Z" fill="#D7D4FF"/>
<path d="M366.787 255.381L394.561 247.056L326.774 332.086L366.787 255.381Z" fill="#AB7FEF"/>
<path d="M351.328 209.295L326.774 209.297H302.222L286.759 255.381L326.774 255.379H366.788L351.328 209.295Z" fill="#DFD4FF"/>
<path d="M366.789 255.379L394.561 247.055L368.668 209.297L351.328 209.295L366.789 255.379Z" fill="#CDAEFF"/>
<path d="M286.759 255.38L302.222 209.297H284.88L258.987 247.055L286.759 255.38Z" fill="#BFAEFF"/>
<path d="M301.577 254.06H300.742L302.2 209.197H303.035L301.577 254.06Z" fill="#9A8FDB"/>
<path d="M301.577 254.06H300.742L331.523 317.484L332.28 317.374L301.577 254.06Z" fill="#9A8FDB"/>
<path d="M333.871 315.621L329.296 317.855L333.101 319.669L333.871 315.621Z" fill="#9A8FDB"/>
<path d="M301.588 195.12L298.792 188.484C298.6 188.036 298.412 187.724 298.228 187.548C298.052 187.364 297.844 187.256 297.604 187.224V186.984C297.636 186.984 297.716 186.98 297.844 186.972C297.964 186.964 298.052 186.96 298.108 186.96C298.388 186.96 298.672 186.992 298.96 187.056C299.256 187.12 299.536 187.26 299.8 187.476C300.064 187.692 300.292 188.028 300.484 188.484L302.38 192.972L304.912 187.08H305.524L302.068 195.12H301.588ZM306.757 195V188.64C306.757 188.28 306.705 187.992 306.601 187.776C306.505 187.552 306.277 187.44 305.917 187.44H305.797V187.08H311.089C311.369 187.08 311.581 187.128 311.725 187.224C311.869 187.312 311.969 187.432 312.025 187.584C312.081 187.728 312.109 187.88 312.109 188.04V189.06H311.749C311.749 188.548 311.617 188.18 311.353 187.956C311.097 187.732 310.729 187.62 310.249 187.62H308.317V190.62H311.437V191.16H308.317V194.46H310.369C310.809 194.46 311.181 194.364 311.485 194.172C311.797 193.972 312.057 193.612 312.265 193.092L312.589 193.212L312.241 194.16C312.153 194.416 312.037 194.62 311.893 194.772C311.757 194.924 311.525 195 311.197 195H306.757ZM319.521 195.12C319.241 195.12 318.973 195.064 318.717 194.952C318.461 194.84 318.209 194.66 317.961 194.412C317.721 194.156 317.469 193.812 317.205 193.38L316.005 191.376H315.525V195H313.953V188.64C313.953 188.28 313.901 187.992 313.797 187.776C313.701 187.552 313.473 187.44 313.113 187.44H312.993V187.08H316.305C316.521 187.08 316.769 187.096 317.049 187.128C317.337 187.152 317.625 187.208 317.913 187.296C318.201 187.376 318.469 187.496 318.717 187.656C318.965 187.816 319.165 188.028 319.317 188.292C319.469 188.548 319.545 188.868 319.545 189.252C319.545 189.676 319.449 190.024 319.257 190.296C319.072 190.56 318.833 190.768 318.537 190.92C318.241 191.072 317.929 191.192 317.601 191.28L318.861 193.38C319.165 193.892 319.445 194.232 319.701 194.4C319.957 194.568 320.173 194.668 320.349 194.7V195C320.285 195.032 320.169 195.06 320.001 195.084C319.841 195.108 319.681 195.12 319.521 195.12ZM315.525 190.896H316.245C316.437 190.896 316.629 190.868 316.821 190.812C317.013 190.756 317.185 190.664 317.337 190.536C317.497 190.408 317.625 190.236 317.721 190.02C317.817 189.804 317.865 189.54 317.865 189.228C317.865 188.916 317.817 188.656 317.721 188.448C317.633 188.232 317.509 188.06 317.349 187.932C317.197 187.796 317.025 187.7 316.833 187.644C316.649 187.588 316.461 187.56 316.269 187.56C316.205 187.56 316.109 187.564 315.98 187.572C315.861 187.58 315.709 187.604 315.525 187.644V190.896ZM323.379 195V191.832L321.255 188.64C321.119 188.432 320.959 188.232 320.775 188.04C320.599 187.848 320.415 187.684 320.223 187.548C320.031 187.412 319.843 187.336 319.659 187.32V187.08H320.967C321.271 187.08 321.543 187.148 321.783 187.284C322.031 187.42 322.251 187.588 322.443 187.788C322.635 187.988 322.795 188.192 322.923 188.4L324.555 190.86L326.883 187.08H327.663L324.939 191.508V195H323.379ZM331.824 195V188.64C331.824 188.28 331.772 187.992 331.668 187.776C331.572 187.552 331.344 187.44 330.984 187.44H330.864V187.08H334.104C334.48 187.08 334.872 187.104 335.28 187.152C335.696 187.192 336.08 187.284 336.432 187.428C336.792 187.564 337.084 187.772 337.308 188.052C337.532 188.332 337.644 188.708 337.644 189.18C337.644 189.524 337.504 189.864 337.224 190.2C336.952 190.528 336.536 190.764 335.976 190.908C336.504 190.956 336.912 191.072 337.2 191.256C337.496 191.44 337.704 191.668 337.824 191.94C337.944 192.204 338.004 192.492 338.004 192.804C338.004 193.26 337.9 193.632 337.692 193.92C337.492 194.208 337.22 194.432 336.876 194.592C336.532 194.744 336.148 194.852 335.724 194.916C335.308 194.972 334.888 195 334.464 195H331.824ZM334.284 194.52C334.948 194.52 335.452 194.376 335.796 194.088C336.148 193.8 336.324 193.392 336.324 192.864C336.324 192.312 336.152 191.9 335.808 191.628C335.472 191.348 334.964 191.208 334.284 191.208H333.384V194.4C333.472 194.424 333.596 194.452 333.756 194.484C333.916 194.508 334.092 194.52 334.284 194.52ZM333.384 190.668H334.284C334.612 190.668 334.9 190.62 335.148 190.524C335.404 190.42 335.604 190.256 335.748 190.032C335.892 189.8 335.964 189.496 335.964 189.12C335.964 188.72 335.872 188.408 335.688 188.184C335.512 187.96 335.28 187.8 334.992 187.704C334.712 187.608 334.416 187.56 334.104 187.56C334.016 187.56 333.916 187.564 333.804 187.572C333.7 187.58 333.56 187.604 333.384 187.644V190.668ZM345.872 195.048C345.608 195.048 345.328 195.016 345.032 194.952C344.744 194.88 344.464 194.732 344.192 194.508C343.928 194.284 343.7 193.944 343.508 193.488L343.232 192.816H340.04L339.056 195H338.432L341.972 187.08H342.512L345.2 193.488C345.344 193.84 345.52 194.12 345.728 194.328C345.936 194.536 346.176 194.656 346.448 194.688V194.988C346.384 195.004 346.292 195.016 346.172 195.024C346.06 195.04 345.96 195.048 345.872 195.048ZM340.292 192.276H343.004L341.684 189.144L340.292 192.276ZM347.245 195V188.64C347.245 188.28 347.193 187.992 347.089 187.776C346.993 187.552 346.765 187.44 346.405 187.44H346.285V187.08H349.549C351.197 187.08 352.433 187.428 353.257 188.124C354.089 188.82 354.505 189.776 354.505 190.992C354.505 191.784 354.325 192.48 353.965 193.08C353.613 193.68 353.093 194.152 352.405 194.496C351.717 194.832 350.869 195 349.861 195H347.245ZM349.825 194.52C350.385 194.52 350.881 194.38 351.313 194.1C351.745 193.82 352.085 193.42 352.333 192.9C352.581 192.38 352.705 191.76 352.705 191.04C352.705 190.336 352.581 189.724 352.333 189.204C352.093 188.684 351.753 188.28 351.313 187.992C350.881 187.704 350.377 187.56 349.801 187.56C349.625 187.56 349.473 187.564 349.345 187.572C349.217 187.58 349.037 187.604 348.805 187.644V194.436C348.981 194.468 349.117 194.492 349.213 194.508C349.317 194.516 349.413 194.52 349.501 194.52C349.589 194.52 349.697 194.52 349.825 194.52Z" fill="#33517F"/>
</g>
<defs>
<clipPath id="clip0_667_1064">
<rect width="454.029" height="337" fill="white"/>
</clipPath>
</defs>
</svg>
