<svg width="20" height="20" viewBox="0 0 20 20" fill="none" xmlns="http://www.w3.org/2000/svg">
<path d="M18.0402 4.82L12.2802 0.789999C10.7102 -0.310001 8.30023 -0.250001 6.79023 0.919999L1.78023 4.83C0.780234 5.61 -0.00976562 7.21 -0.00976562 8.47V15.37C-0.00976562 17.92 2.06023 20 4.61023 20H15.3902C17.9402 20 20.0102 17.93 20.0102 15.38V8.6C20.0102 7.25 19.1402 5.59 18.0402 4.82ZM10.7502 16C10.7502 16.41 10.4102 16.75 10.0002 16.75C9.59023 16.75 9.25023 16.41 9.25023 16V13C9.25023 12.59 9.59023 12.25 10.0002 12.25C10.4102 12.25 10.7502 12.59 10.7502 13V16Z" fill="white"/>
</svg>
