<svg width="110" height="60" viewBox="0 0 110 60" fill="none" xmlns="http://www.w3.org/2000/svg">
<path d="M47.5862 6.20691H12.4138L0 18.6207L30 53.793L60 18.6207L47.5862 6.20691Z" fill="#00C3FF"/>
<path d="M47.5862 6.20691L30 53.793L60 18.6207L47.5862 6.20691Z" fill="#87DAFF"/>
<path d="M12.4138 6.20691L17.002 18.6207H0L12.4138 6.20691Z" fill="#00AAF0"/>
<path d="M29.9999 6.20691L17.002 18.6207H42.9979L29.9999 6.20691Z" fill="#87DAFF"/>
<path d="M42.998 18.6207H60.0001L47.5863 6.20691L42.998 18.6207Z" fill="#A5E9FF"/>
<path d="M0 18.6207H17.002L30 53.793L0 18.6207Z" fill="#0096DC"/>
<path d="M100.483 18.7587H73.5172L64 28.2759L87 55.2413L110 28.2759L100.483 18.7587Z" fill="#00C3FF"/>
<path d="M100.483 18.7587L87 55.2413L110 28.2759L100.483 18.7587Z" fill="#87DAFF"/>
<path d="M73.5172 18.7587L77.0349 28.2759H64L73.5172 18.7587Z" fill="#00AAF0"/>
<path d="M87.0003 18.7587L77.0352 28.2759H96.9654L87.0003 18.7587Z" fill="#87DAFF"/>
<path d="M96.9648 28.2759H110L100.482 18.7587L96.9648 28.2759Z" fill="#A5E9FF"/>
<path d="M64 28.2759H77.0349L87 55.2413L64 28.2759Z" fill="#0096DC"/>
</svg>
