<svg width="44" height="60" viewBox="0 0 44 60" fill="none" xmlns="http://www.w3.org/2000/svg">
<path d="M27.013 17.8775L26.7855 17.6832H17.1521L16.9859 17.8775C7.60945 20.1334 0.641602 28.5733 0.641602 38.6421C0.641602 50.4377 10.2037 60 21.9994 60C33.795 60 43.3574 50.4377 43.3574 38.6421C43.3574 28.5733 36.3895 20.1334 27.013 17.8775ZM21.9994 55.448C12.7178 55.448 5.19352 47.9237 5.19352 38.6421C5.19352 29.3604 12.7178 21.8362 21.9994 21.8362C31.2811 21.8362 38.8052 29.3604 38.8052 38.6421C38.8052 47.9237 31.2811 55.448 21.9994 55.448Z" fill="#FFE07D"/>
<path d="M5.50957 41.896C5.30297 40.8432 5.19363 39.7555 5.19363 38.6421C5.19363 37.5267 5.30332 36.4371 5.51062 35.3825C6.82652 26.7903 13.2632 19.8851 21.6075 17.8775L21.7738 17.6832H17.1521L16.9859 17.8775C7.60945 20.1334 0.641602 28.5733 0.641602 38.6421C0.641602 50.4377 10.2037 60 21.9994 60C22.7803 60 23.5509 59.9569 24.3102 59.8752C14.6771 58.8387 6.96211 51.3984 5.50957 41.896Z" fill="#FFD064"/>
<path d="M29.2142 1.52483L29.1795 1.00007C28.7777 0.578311 28.2205 0.3396 27.638 0.3396H16.3638C15.7812 0.3396 15.2241 0.578311 14.8223 1.00007V1.52483L17.7347 6.31698H26.7318L29.2142 1.52483Z" fill="#C3DDFF"/>
<path d="M16.3637 0.339478C15.7812 0.339478 15.2241 0.578188 14.8223 0.999946V1.52471L16.2863 3.93362L18.8084 0.339478H16.3637Z" fill="#A4CCFF"/>
<path d="M22.001 0.339478L17.9492 6.31698L18.2019 6.56295H25.6441L26.0526 6.31698L22.001 0.339478Z" fill="#DBEAFF"/>
<path d="M14.8218 1L10.7743 5.24816C10.4998 5.53633 10.3467 5.91895 10.3467 6.31691L10.6145 6.56301H17.5264L17.9488 6.31691L14.8218 1Z" fill="#DBEAFF"/>
<path d="M14.6135 6.31703L16.428 3.73117L14.8218 1L10.7743 5.24816C10.4998 5.53633 10.3467 5.91895 10.3467 6.31691L10.6145 6.56301H14.7411L14.6135 6.31703Z" fill="#C3DDFF"/>
<path d="M33.6549 6.31703C33.6549 5.91906 33.5018 5.53645 33.2273 5.24828L29.1796 1L26.0527 6.31691L26.3635 6.56301H33.4505L33.6549 6.31703Z" fill="#DBEAFF"/>
<path d="M10.3467 6.31702C10.3467 6.76362 10.5059 7.19569 10.796 7.53542L17.3067 15.1635H26.6945L33.2052 7.53542C33.4952 7.19569 33.6545 6.76362 33.6545 6.31702H10.3467Z" fill="#A4CCFF"/>
<path d="M10.3467 6.31702C10.3467 6.76362 10.5059 7.19569 10.796 7.53542L17.3067 15.1635H19.2035L14.6135 6.31702H10.3467Z" fill="#8BB3EA"/>
<path d="M20.2837 15.1635H23.7182L26.0526 6.31702H17.9492L20.2837 15.1635Z" fill="#C3DDFF"/>
<path d="M26.3666 14.8033H17.6336C17.0948 14.8033 16.6582 15.24 16.6582 15.7787V17.1492C16.6582 17.6879 17.0948 18.1246 17.6336 18.1246H26.3666C26.9053 18.1246 27.342 17.6879 27.342 17.1492V15.7787C27.342 15.24 26.9052 14.8033 26.3666 14.8033Z" fill="#EDF4FF"/>
<path d="M19.4791 17.1491V15.7786C19.4791 15.2399 19.9158 14.8032 20.4545 14.8032H17.6336C17.0948 14.8032 16.6582 15.2399 16.6582 15.7786V17.1491C16.6582 17.6878 17.0948 18.1244 17.6336 18.1244H20.4545C19.9159 18.1244 19.4791 17.6878 19.4791 17.1491Z" fill="#DBEAFF"/>
<path d="M6.98544 3.22148L5.30087 1.53691C4.94919 1.18535 4.94919 0.615234 5.30087 0.263672C5.65243 -0.0878906 6.22255 -0.0878906 6.57411 0.263672L8.25868 1.94824C8.61036 2.2998 8.61036 2.86992 8.25868 3.22148C7.907 3.57305 7.337 3.57305 6.98544 3.22148Z" fill="#C3DDFF"/>
<path d="M37.3243 12.5585L35.6397 10.874C35.2881 10.5224 35.2881 9.95227 35.6397 9.60071C35.9913 9.24915 36.5614 9.24915 36.913 9.60071L38.5976 11.2853C38.9492 11.6368 38.9492 12.207 38.5976 12.5585C38.2459 12.9102 37.6759 12.9101 37.3243 12.5585Z" fill="#C3DDFF"/>
<path d="M6.03766 7.31144H3.65524C3.15801 7.31144 2.75488 6.90832 2.75488 6.41109C2.75488 5.91387 3.15801 5.51074 3.65524 5.51074H6.03766C6.53488 5.51074 6.93801 5.91387 6.93801 6.41109C6.93801 6.90832 6.53488 7.31144 6.03766 7.31144Z" fill="#C3DDFF"/>
<path d="M40.2436 7.31144H37.8613C37.3641 7.31144 36.9609 6.90832 36.9609 6.41109C36.9609 5.91387 37.3641 5.51074 37.8613 5.51074H40.2436C40.7408 5.51074 41.1439 5.91387 41.1439 6.41109C41.1439 6.90832 40.7407 7.31144 40.2436 7.31144Z" fill="#C3DDFF"/>
<path d="M5.30087 12.5585C4.94919 12.207 4.94919 11.6368 5.30087 11.2853L6.98544 9.60071C7.337 9.24915 7.90712 9.24915 8.25868 9.60071C8.61036 9.95227 8.61036 10.5224 8.25868 10.874L6.57411 12.5585C6.22243 12.9102 5.65243 12.9101 5.30087 12.5585Z" fill="#C3DDFF"/>
<path d="M35.6397 3.22148C35.2881 2.86992 35.2881 2.2998 35.6397 1.94824L37.3243 0.263672C37.6759 -0.0878906 38.246 -0.0878906 38.5976 0.263672C38.9492 0.615234 38.9492 1.18535 38.5976 1.53691L36.913 3.22148C36.5613 3.57305 35.9913 3.57305 35.6397 3.22148Z" fill="#C3DDFF"/>
</svg>
