<svg width="24" height="24" viewBox="0 0 24 24" fill="none" xmlns="http://www.w3.org/2000/svg">
<path d="M15.576 12C15.576 13.98 13.976 15.58 11.996 15.58C10.016 15.58 8.41602 13.98 8.41602 12C8.41602 10.02 10.016 8.42004 11.996 8.42004C13.976 8.42004 15.576 10.02 15.576 12Z" stroke="#99A8BF" stroke-width="1.5" stroke-linecap="round" stroke-linejoin="round"/>
<path d="M11.994 20.2701C15.524 20.2701 18.814 18.1901 21.104 14.5901C22.004 13.1801 22.004 10.8101 21.104 9.40009C18.814 5.80009 15.524 3.72009 11.994 3.72009C8.46398 3.72009 5.17398 5.80009 2.88398 9.40009C1.98398 10.8101 1.98398 13.1801 2.88398 14.5901C5.17398 18.1901 8.46398 20.2701 11.994 20.2701Z" stroke="#99A8BF" stroke-width="1.5" stroke-linecap="round" stroke-linejoin="round"/>
</svg>
