<svg width="113" height="64" viewBox="0 0 113 64" fill="none" xmlns="http://www.w3.org/2000/svg">
<g clip-path="url(#clip0_232_1081)">
<path d="M0.870117 26.5602H51.0095V39.5595H0.870117V26.5602Z" fill="#CBD1D6"/>
<path d="M61.9922 26.5602H112.132V39.5595H61.9922V26.5602Z" fill="#CBD1D6"/>
<path d="M43.7843 52.9337C43.6039 52.9354 43.4274 52.8811 43.2793 52.7781C43.1312 52.6751 43.0188 52.5287 42.9577 52.359C42.8965 52.1893 42.8897 52.0049 42.9382 51.8312C42.9867 51.6575 43.088 51.5032 43.2281 51.3896L51.4603 44.5513C51.5466 44.4682 51.6492 44.4038 51.7615 44.3621C51.8739 44.3204 51.9937 44.3025 52.1133 44.3093C52.233 44.3161 52.35 44.3475 52.4569 44.4017C52.5638 44.4558 52.6584 44.5314 52.7347 44.6239C52.8109 44.7163 52.8673 44.8234 52.9001 44.9386C52.933 45.0538 52.9417 45.1746 52.9257 45.2933C52.9096 45.412 52.8692 45.5261 52.8069 45.6285C52.7447 45.7308 52.6619 45.8192 52.5638 45.8881L44.3316 52.7263C44.1788 52.8569 43.9853 52.9302 43.7843 52.9337Z" fill="black"/>
<path d="M52.7342 54.8041C52.5974 54.804 52.4625 54.7717 52.3405 54.7097C52.2186 54.6476 52.113 54.5577 52.0323 54.4473C51.9517 54.3368 51.8983 54.2088 51.8764 54.0738C51.8545 53.9388 51.8649 53.8006 51.9065 53.6703L54.5131 45.5505C54.5895 45.3389 54.7451 45.1652 54.947 45.0658C55.149 44.9665 55.3816 44.9494 55.5959 45.0179C55.8103 45.0865 55.9897 45.2354 56.0965 45.4335C56.2032 45.6315 56.229 45.8632 56.1683 46.0799L53.5662 54.2019C53.5095 54.3776 53.3983 54.5307 53.2487 54.639C53.0991 54.7472 52.9189 54.8051 52.7342 54.8041Z" fill="black"/>
<path d="M61.0601 54.8041C60.877 54.804 60.6987 54.7461 60.5505 54.6388C60.4023 54.5315 60.2918 54.3801 60.2346 54.2063L57.5707 46.0843C57.5288 45.9744 57.5096 45.8571 57.5144 45.7396C57.5191 45.622 57.5477 45.5067 57.5984 45.4005C57.649 45.2943 57.7207 45.1996 57.8091 45.1219C57.8975 45.0442 58.0007 44.9853 58.1126 44.9487C58.2244 44.9121 58.3425 44.8985 58.4598 44.9089C58.577 44.9192 58.6909 44.9533 58.7946 45.0089C58.8983 45.0646 58.9896 45.1407 59.063 45.2326C59.1364 45.3246 59.1903 45.4304 59.2216 45.5438L61.8855 53.6659C61.9284 53.7964 61.9397 53.9352 61.9186 54.0709C61.8975 54.2066 61.8445 54.3354 61.7639 54.4466C61.6834 54.5579 61.5776 54.6485 61.4552 54.7111C61.3329 54.7736 61.1975 54.8062 61.0601 54.8063V54.8041Z" fill="black"/>
<path d="M69.214 52.9335C68.9984 52.9354 68.7898 52.8568 68.6292 52.713L61.0988 45.8747C60.9323 45.7186 60.834 45.5034 60.8249 45.2754C60.8158 45.0475 60.8968 44.8251 61.0504 44.6563C61.2039 44.4875 61.4177 44.3858 61.6456 44.3732C61.8735 44.3605 62.0972 44.4379 62.2685 44.5887L69.7989 51.4269C69.9283 51.545 70.019 51.6994 70.0591 51.8699C70.0992 52.0404 70.0869 52.2191 70.0236 52.3824C69.9604 52.5458 69.8493 52.6862 69.7048 52.7854C69.5603 52.8845 69.3893 52.9377 69.214 52.938V52.9335Z" fill="black"/>
<path d="M44.4364 27.4292H0.86957C0.638946 27.4292 0.417767 27.3376 0.254691 27.1746C0.0916152 27.0116 0 26.7905 0 26.56C0 26.3295 0.0916152 26.1085 0.254691 25.9455C0.417767 25.7825 0.638946 25.6909 0.86957 25.6909H44.4364C44.667 25.6909 44.8882 25.7825 45.0512 25.9455C45.2143 26.1085 45.3059 26.3295 45.3059 26.56C45.3059 26.7905 45.2143 27.0116 45.0512 27.1746C44.8882 27.3376 44.667 27.4292 44.4364 27.4292Z" fill="black"/>
<path d="M51.0089 40.4285H0.86957C0.638946 40.4285 0.417767 40.337 0.254691 40.174C0.0916152 40.011 0 39.7899 0 39.5594C0 39.3289 0.0916152 39.1079 0.254691 38.9449C0.417767 38.7819 0.638946 38.6903 0.86957 38.6903H50.1393V26.558C50.1393 26.3275 50.2309 26.1064 50.394 25.9434C50.5571 25.7804 50.7783 25.6888 51.0089 25.6888C51.2395 25.6888 51.4607 25.7804 51.6238 25.9434C51.7869 26.1064 51.8785 26.3275 51.8785 26.558V39.5572C51.8788 39.6715 51.8565 39.7848 51.8129 39.8905C51.7693 39.9962 51.7053 40.0923 51.6246 40.1732C51.5438 40.2541 51.4478 40.3184 51.3422 40.3622C51.2365 40.406 51.1233 40.4285 51.0089 40.4285Z" fill="black"/>
<path d="M112.131 40.4284H61.9916C61.761 40.4284 61.5398 40.3369 61.3768 40.1739C61.2137 40.0109 61.1221 39.7898 61.1221 39.5593V26.56C61.1221 26.3295 61.2137 26.1085 61.3768 25.9455C61.5398 25.7825 61.761 25.6909 61.9916 25.6909H112.131C112.362 25.6909 112.583 25.7825 112.746 25.9455C112.909 26.1085 113.001 26.3295 113.001 26.56C113.001 26.7905 112.909 27.0116 112.746 27.1746C112.583 27.3376 112.362 27.4292 112.131 27.4292H62.8612V38.6924H112.131C112.362 38.6924 112.583 38.784 112.746 38.947C112.909 39.1099 113.001 39.331 113.001 39.5615C113.001 39.792 112.909 40.0131 112.746 40.1761C112.583 40.3391 112.362 40.4306 112.131 40.4306V40.4284Z" fill="black"/>
<ellipse cx="97.9331" cy="30.1177" rx="1.88333" ry="1.88235" fill="#929292"/>
<ellipse cx="39.5503" cy="35.7647" rx="1.88333" ry="1.88235" fill="#929292"/>
<ellipse cx="5.64993" cy="30.1177" rx="1.88333" ry="1.88235" fill="#929292"/>
</g>
<defs>
<clipPath id="clip0_232_1081">
<rect width="113" height="64" fill="white"/>
</clipPath>
</defs>
</svg>
