<svg width="60" height="60" viewBox="0 0 60 60" fill="none" xmlns="http://www.w3.org/2000/svg">
<g clip-path="url(#clip0_231_737)">
<path d="M13.5892 60C13.2029 60 12.8173 59.8603 12.5152 59.581L1.95504 49.8166C1.6384 49.5241 1.45898 49.1152 1.45898 48.6872V27.3455C1.45898 26.9135 1.64203 26.5009 1.96418 26.2077L12.5242 16.5979C12.825 16.3241 13.2069 16.1873 13.5893 16.1873C13.9714 16.1873 14.3532 16.324 14.6538 16.5979L25.2139 26.2077C25.5357 26.501 25.7194 26.9134 25.7194 27.3455V48.6872C25.7194 49.1152 25.5396 49.5239 25.223 49.8166L14.6629 59.581C14.361 59.8603 13.9751 60 13.5892 60Z" fill="#FEFAC8"/>
<path d="M13.5889 51.9627V59.8778C13.9746 59.8778 14.3608 59.7381 14.6625 59.4587L25.2227 49.6943C25.5393 49.4018 25.7191 48.9929 25.7191 48.565L19.4387 46.5532L13.5889 51.9627Z" fill="#EFBA50"/>
<path d="M1.45898 27.2232C1.45898 26.7913 1.64203 26.3788 1.96418 26.0856L12.5242 16.4757C12.825 16.202 13.2069 16.0651 13.5893 16.0651V23.9332L7.73906 29.257L1.45898 27.2232Z" fill="#EFBA50"/>
<path d="M13.5892 51.9627V59.8778C13.2032 59.8778 12.8173 59.7381 12.5152 59.4587L1.95504 49.6943C1.6384 49.4018 1.45898 48.9929 1.45898 48.565L7.73895 46.5532L13.5892 51.9627Z" fill="#F9D984"/>
<path d="M7.73895 46.5313V29.2351L1.45898 27.2233V48.565L7.73895 46.5313Z" fill="#E5AE36"/>
<path d="M19.4395 29.2572V46.5535L25.7198 48.565V27.2233L19.4395 29.2572Z" fill="#E5AE36"/>
<path d="M34.9511 26.8413C34.5107 26.8413 34.0927 26.6427 33.8122 26.2996L20.3208 9.81234C19.9073 9.30703 19.8691 8.58856 20.2265 8.04152L25.0414 0.670195C25.3146 0.251836 25.7783 0 26.2746 0H43.6278C44.1242 0 44.5876 0.251836 44.8613 0.670195L49.6757 8.04152C50.0333 8.58867 49.9949 9.30703 49.5814 9.81234L36.0901 26.2995C35.8095 26.6427 35.3916 26.8413 34.9511 26.8413Z" fill="#37C4B3"/>
<path d="M25.6039 0.164734C25.3799 0.279929 25.1846 0.451492 25.042 0.670046L20.2268 8.04161C20.0446 8.32063 19.9656 8.64454 19.9867 8.96223H31.3504L25.6039 0.164734Z" fill="#53E7D3"/>
<path d="M38.5527 8.962H49.9168C49.9377 8.64442 49.8591 8.32063 49.6765 8.04138L44.8615 0.670046C44.7189 0.451492 44.5238 0.280046 44.2996 0.164734L38.5527 8.962Z" fill="#53E7D3"/>
<path d="M34.9512 26.8444L40.8138 8.96204H29.125L34.9512 26.8444Z" fill="#53E7D3"/>
<path d="M34.9429 0L29.0889 8.96203H40.8139L34.9598 0H34.9429Z" fill="#B9F5ED"/>
<path opacity="0.1" d="M24.2551 9.81234C23.8415 9.30703 23.8032 8.58856 24.1605 8.04152L28.9756 0.670195C29.2488 0.251836 29.7126 0 30.2088 0H26.2746C25.7783 0 25.3146 0.251836 25.0414 0.670195L20.2265 8.04152C19.8691 8.58867 19.9073 9.30703 20.3208 9.81234L33.8123 26.2996C34.0928 26.6427 24.2551 9.81234 24.2551 9.81234Z" fill="black"/>
<path opacity="0.1" d="M5.34074 48.6643V27.2788C5.34074 26.8459 5.52414 26.4326 5.84687 26.1388L13.5563 19.1233V16.0981C13.1733 16.0981 12.7905 16.2351 12.4892 16.5094L1.90762 26.1389C1.58488 26.4327 1.40137 26.8461 1.40137 27.2789V48.6643C1.40137 49.093 1.58113 49.5026 1.89836 49.7958L12.48 59.5803C12.7827 59.8601 13.1693 60.0002 13.5564 60.0002V56.9329L5.83797 49.7958C5.52027 49.5026 5.34074 49.093 5.34074 48.6643Z" fill="black"/>
<path d="M25.7106 27.2788C25.7106 26.8459 25.5266 26.4325 25.2041 26.1388L14.6224 16.5092C14.3212 16.2348 13.9385 16.0979 13.5557 16.0979V23.982L19.4175 29.3167L25.7106 27.2788Z" fill="#F9D984"/>
</g>
<defs>
<clipPath id="clip0_231_737">
<rect width="60" height="60" fill="white"/>
</clipPath>
</defs>
</svg>
