<svg width="60" height="60" viewBox="0 0 60 60" fill="none" xmlns="http://www.w3.org/2000/svg">
<path d="M0 19.2125L30.1549 17.872L60 19.2125L30 54.2334L0 19.2125Z" fill="#FFB04C"/>
<path d="M60 19.2125H0L9.57586 5.76654H50.4241L60 19.2125Z" fill="#FFDB6C"/>
<path d="M50.4238 5.76654V19.2125H59.9997L50.4238 5.76654Z" fill="#FFC866"/>
<path d="M50.3707 19.3043L30 54.2334L59.7383 19.518C59.8411 19.3979 59.7559 19.2125 59.5977 19.2125H50.5304C50.4647 19.2125 50.4037 19.2474 50.3707 19.3043Z" fill="#F7A05E"/>
<path d="M9.57617 5.76654H50.4245L30.0003 54.2334L9.57617 5.76654Z" fill="#FFDB6C"/>
<path d="M44.7583 19.2125L50.4245 5.76654H9.57617L15.2423 19.2125H44.7583Z" fill="#FFF2BB"/>
<path d="M15.2422 19.2125L30.0002 5.76654L44.7582 19.2125H15.2422Z" fill="#FFEB8A"/>
</svg>
