<svg width="115" height="48" viewBox="0 0 115 48" fill="none" xmlns="http://www.w3.org/2000/svg">
<g clip-path="url(#clip0_231_980)">
<path d="M0.885742 15.5714H51.9125V28.8307H0.885742V15.5714Z" fill="#CBD1D6"/>
<path d="M63.0889 15.5714H114.116V28.8307H63.0889V15.5714Z" fill="#CBD1D6"/>
<path d="M44.5596 42.4724C44.376 42.4742 44.1964 42.4187 44.0456 42.3137C43.8949 42.2087 43.7805 42.0593 43.7183 41.8862C43.6561 41.7132 43.6492 41.525 43.6985 41.3479C43.7478 41.1707 43.851 41.0133 43.9936 40.8974L52.3715 33.9224C52.4593 33.8376 52.5637 33.7719 52.678 33.7294C52.7924 33.6869 52.9143 33.6686 53.0361 33.6755C53.1578 33.6825 53.2769 33.7145 53.3857 33.7698C53.4945 33.825 53.5907 33.9021 53.6684 33.9964C53.746 34.0906 53.8033 34.1999 53.8368 34.3174C53.8702 34.4349 53.8791 34.5581 53.8628 34.6792C53.8464 34.8003 53.8053 34.9167 53.7419 35.0211C53.6786 35.1255 53.5943 35.2157 53.4945 35.2859L45.1166 42.2609C44.9611 42.3941 44.7641 42.4689 44.5596 42.4724Z" fill="black"/>
<path d="M53.6675 44.3802C53.5283 44.3801 53.391 44.3471 53.2669 44.2838C53.1428 44.2206 53.0353 44.1289 52.9532 44.0162C52.8712 43.9035 52.8168 43.773 52.7946 43.6353C52.7723 43.4976 52.7828 43.3566 52.8252 43.2237L55.4779 34.9414C55.5557 34.7256 55.714 34.5485 55.9195 34.4472C56.1251 34.3459 56.3618 34.3283 56.5799 34.3983C56.7981 34.4682 56.9807 34.6201 57.0893 34.8221C57.198 35.0242 57.2242 35.2605 57.1625 35.4815L54.5143 43.7659C54.4566 43.9452 54.3434 44.1013 54.1911 44.2117C54.0389 44.3222 53.8555 44.3812 53.6675 44.3802Z" fill="black"/>
<path d="M62.1404 44.3803C61.9541 44.3801 61.7727 44.3211 61.6218 44.2116C61.471 44.1022 61.3585 43.9478 61.3004 43.7705L58.5893 35.486C58.5467 35.3739 58.5271 35.2543 58.532 35.1344C58.5368 35.0145 58.5659 34.8969 58.6174 34.7886C58.669 34.6803 58.742 34.5836 58.8319 34.5044C58.9219 34.4252 59.0269 34.3651 59.1407 34.3277C59.2546 34.2904 59.3748 34.2766 59.4941 34.2871C59.6134 34.2977 59.7293 34.3324 59.8348 34.3892C59.9404 34.4459 60.0333 34.5235 60.108 34.6173C60.1827 34.7111 60.2376 34.8191 60.2694 34.9348L62.9804 43.2193C63.0241 43.3524 63.0356 43.4939 63.0141 43.6324C62.9926 43.7708 62.9387 43.9021 62.8567 44.0156C62.7748 44.1291 62.6671 44.2216 62.5426 44.2853C62.4181 44.3491 62.2802 44.3824 62.1404 44.3825V44.3803Z" fill="black"/>
<path d="M70.4387 42.4722C70.2192 42.4741 70.0069 42.3939 69.8435 42.2472L62.1798 35.2722C62.0104 35.113 61.9103 34.8934 61.9011 34.6609C61.8919 34.4284 61.9743 34.2016 62.1305 34.0294C62.2868 33.8573 62.5044 33.7535 62.7363 33.7406C62.9682 33.7277 63.1959 33.8067 63.3702 33.9605L71.0339 40.9355C71.1656 41.0559 71.2579 41.2134 71.2988 41.3873C71.3396 41.5612 71.327 41.7434 71.2626 41.9101C71.1983 42.0767 71.0852 42.2199 70.9382 42.3211C70.7911 42.4222 70.617 42.4764 70.4387 42.4767V42.4722Z" fill="black"/>
<path d="M45.2229 16.4578H0.884961C0.650255 16.4578 0.425161 16.3644 0.259199 16.1982C0.0932367 16.0319 0 15.8064 0 15.5713C0 15.3362 0.0932367 15.1107 0.259199 14.9445C0.425161 14.7782 0.650255 14.6848 0.884961 14.6848H45.2229C45.4576 14.6848 45.6827 14.7782 45.8486 14.9445C46.0146 15.1107 46.1078 15.3362 46.1078 15.5713C46.1078 15.8064 46.0146 16.0319 45.8486 16.1982C45.6827 16.3644 45.4576 16.4578 45.2229 16.4578Z" fill="black"/>
<path d="M51.9117 29.7171H0.884961C0.650255 29.7171 0.425161 29.6237 0.259199 29.4575C0.0932367 29.2912 0 29.0657 0 28.8306C0 28.5955 0.0932367 28.37 0.259199 28.2038C0.425161 28.0375 0.650255 27.9441 0.884961 27.9441H51.0268V15.5691C51.0268 15.334 51.12 15.1085 51.286 14.9423C51.4519 14.776 51.677 14.6826 51.9117 14.6826C52.1464 14.6826 52.3715 14.776 52.5375 14.9423C52.7034 15.1085 52.7967 15.334 52.7967 15.5691V28.8284C52.797 28.945 52.7743 29.0605 52.73 29.1683C52.6856 29.2761 52.6205 29.3741 52.5383 29.4567C52.4561 29.5392 52.3584 29.6047 52.2509 29.6494C52.1434 29.6941 52.0281 29.7171 51.9117 29.7171Z" fill="black"/>
<path d="M114.116 29.7171H63.0891C62.8544 29.7171 62.6293 29.6237 62.4633 29.4574C62.2973 29.2912 62.2041 29.0657 62.2041 28.8306V15.5713C62.2041 15.3362 62.2973 15.1107 62.4633 14.9445C62.6293 14.7782 62.8544 14.6848 63.0891 14.6848H114.116C114.351 14.6848 114.576 14.7782 114.742 14.9445C114.908 15.1107 115.001 15.3362 115.001 15.5713C115.001 15.8064 114.908 16.0319 114.742 16.1982C114.576 16.3644 114.351 16.4578 114.116 16.4578H63.974V27.9463H114.116C114.351 27.9463 114.576 28.0397 114.742 28.206C114.908 28.3722 115.001 28.5977 115.001 28.8328C115.001 29.0679 114.908 29.2934 114.742 29.4597C114.576 29.6259 114.351 29.7193 114.116 29.7193V29.7171Z" fill="black"/>
</g>
<defs>
<clipPath id="clip0_231_980">
<rect width="115" height="48" fill="white"/>
</clipPath>
</defs>
</svg>
