<svg width="24" height="24" viewBox="0 0 24 24" fill="none" xmlns="http://www.w3.org/2000/svg">
<path d="M7.2 2H9.8C13 2 15 4 15 7.2V11.25H8.75C8.34 11.25 8 11.59 8 12C8 12.41 8.34 12.75 8.75 12.75H15V16.8C15 20 13 22 9.8 22H7.21C4.01 22 2.01 20 2.01 16.8V7.2C2 4 4 2 7.2 2Z" fill="white"/>
<path d="M19.4405 11.25L17.3705 9.17997C17.2205 9.02997 17.1505 8.83997 17.1505 8.64997C17.1505 8.45997 17.2205 8.25997 17.3705 8.11997C17.6605 7.82997 18.1405 7.82997 18.4305 8.11997L21.7805 11.47C22.0705 11.76 22.0705 12.24 21.7805 12.53L18.4305 15.88C18.1405 16.17 17.6605 16.17 17.3705 15.88C17.0805 15.59 17.0805 15.11 17.3705 14.82L19.4405 12.75H15.0005V11.25H19.4405Z" fill="white"/>
</svg>
