<svg width="24" height="25" viewBox="0 0 24 25" fill="none" xmlns="http://www.w3.org/2000/svg">
<path d="M5 10.4572H7C9 10.4572 10 9.45715 10 7.45715V5.45715C10 3.45715 9 2.45715 7 2.45715H5C3 2.45715 2 3.45715 2 5.45715V7.45715C2 9.45715 3 10.4572 5 10.4572Z" stroke="#33517F" stroke-width="2" stroke-miterlimit="10" stroke-linecap="round" stroke-linejoin="round"/>
<path d="M17 10.4572H19C21 10.4572 22 9.45715 22 7.45715V5.45715C22 3.45715 21 2.45715 19 2.45715H17C15 2.45715 14 3.45715 14 5.45715V7.45715C14 9.45715 15 10.4572 17 10.4572Z" stroke="#33517F" stroke-width="2" stroke-miterlimit="10" stroke-linecap="round" stroke-linejoin="round"/>
<path d="M17 22.4572H19C21 22.4572 22 21.4572 22 19.4572V17.4572C22 15.4572 21 14.4572 19 14.4572H17C15 14.4572 14 15.4572 14 17.4572V19.4572C14 21.4572 15 22.4572 17 22.4572Z" stroke="#33517F" stroke-width="2" stroke-miterlimit="10" stroke-linecap="round" stroke-linejoin="round"/>
<path d="M5 22.4572H7C9 22.4572 10 21.4572 10 19.4572V17.4572C10 15.4572 9 14.4572 7 14.4572H5C3 14.4572 2 15.4572 2 17.4572V19.4572C2 21.4572 3 22.4572 5 22.4572Z" stroke="#33517F" stroke-width="2" stroke-miterlimit="10" stroke-linecap="round" stroke-linejoin="round"/>
</svg>
