<svg width="58" height="34" viewBox="0 0 58 34" fill="none" xmlns="http://www.w3.org/2000/svg">
<path d="M28.9996 18.875C39.3974 18.875 48.4705 16.9925 53.338 14.1959C48.4808 11.3909 39.4143 9.5 28.9996 9.5C18.5849 9.5 9.51832 11.3909 4.66113 14.1959C9.52863 16.9925 18.6018 18.875 28.9996 18.875Z" fill="#86878C"/>
<path d="M29 18.875C44.533 18.875 57.125 14.6777 57.125 9.5C57.125 4.32233 44.533 0.125 29 0.125C13.467 0.125 0.875 4.32233 0.875 9.5C0.875 14.6777 13.467 18.875 29 18.875Z" fill="#86878C"/>
<path d="M29 18.875C44.4553 18.875 56.9844 15.0974 56.9844 10.4375C56.9844 5.7776 44.4553 2 29 2C13.5447 2 1.01562 5.7776 1.01562 10.4375C1.01562 15.0974 13.5447 18.875 29 18.875Z" fill="#AEAEAF"/>
<path d="M29.0001 18.875C42.6032 18.875 53.9489 15.6556 56.5598 11.3787C53.9573 7.09812 42.6098 3.875 29.0001 3.875C15.3904 3.875 4.04293 7.09812 1.44043 11.3787C4.05137 15.6556 15.397 18.875 29.0001 18.875Z" fill="#86878C"/>
<path d="M2.1748 12.3228C5.76824 16.1206 16.4182 18.875 28.9995 18.875C41.5807 18.875 52.2307 16.1206 55.8242 12.3228C52.2486 8.51562 41.6014 5.75 28.9995 5.75C16.3976 5.75 5.75043 8.51562 2.1748 12.3228Z" fill="#AEAEAF"/>
<path d="M40.25 29.345C36.8047 29.8466 33.0003 30.125 29 30.125C13.4666 30.125 0.875 25.9278 0.875 20.75V24.5C0.875 29.6778 13.4666 33.875 29 33.875C44.5334 33.875 57.125 29.6778 57.125 24.5V20.75C57.125 24.0894 51.8872 27.0209 44 28.6822L40.25 29.345Z" fill="#86878C"/>
<path d="M44 28.6822L40.25 29.345C36.8047 29.8466 33.0003 30.125 29 30.125C13.4666 30.125 0.875 25.9278 0.875 20.75V22.625C0.875 27.8028 13.4666 32 29 32C44.5334 32 57.125 27.8028 57.125 22.625V20.75C57.125 24.0894 51.8872 27.0209 44 28.6822Z" fill="#66676C"/>
<path d="M40.25 25.595C36.8047 26.0966 33.0003 26.375 29 26.375C13.4666 26.375 0.875 22.1778 0.875 17V20.75C0.875 25.9278 13.4666 30.125 29 30.125C44.5334 30.125 57.125 25.9278 57.125 20.75V17C57.125 20.3394 51.8872 23.2709 44 24.9322L40.25 25.595Z" fill="#86878C"/>
<path d="M44 24.9322L40.25 25.595C36.8047 26.0966 33.0003 26.375 29 26.375C13.4666 26.375 0.875 22.1778 0.875 17V18.875C0.875 24.0528 13.4666 28.25 29 28.25C44.5334 28.25 57.125 24.0528 57.125 18.875V17C57.125 20.3394 51.8872 23.2709 44 24.9322Z" fill="#66676C"/>
<path d="M40.25 21.845C36.8047 22.3466 33.0003 22.625 29 22.625C13.4666 22.625 0.875 18.4278 0.875 13.25V17C0.875 22.1778 13.4666 26.375 29 26.375C44.5334 26.375 57.125 22.1778 57.125 17V13.25C57.125 16.5894 51.8872 19.5209 44 21.1822L40.25 21.845Z" fill="#86878C"/>
<path d="M44 21.1822L40.25 21.845C36.8047 22.3466 33.0003 22.625 29 22.625C13.4666 22.625 0.875 18.4278 0.875 13.25V15.125C0.875 20.3028 13.4666 24.5 29 24.5C44.5334 24.5 57.125 20.3028 57.125 15.125V13.25C57.125 16.5894 51.8872 19.5209 44 21.1822Z" fill="#66676C"/>
<path d="M40.25 18.095C36.8047 18.5966 33.0003 18.875 29 18.875C13.4666 18.875 0.875 14.6778 0.875 9.5V13.25C0.875 18.4278 13.4666 22.625 29 22.625C44.5334 22.625 57.125 18.4278 57.125 13.25V9.5C57.125 12.8394 51.8872 15.7709 44 17.4322L40.25 18.095Z" fill="#86878C"/>
<path d="M44 17.4322L40.25 18.095C36.8047 18.5966 33.0003 18.875 29 18.875C13.4666 18.875 0.875 14.6778 0.875 9.5V11.375C0.875 16.5528 13.4666 20.75 29 20.75C44.5334 20.75 57.125 16.5528 57.125 11.375V9.5C57.125 12.8394 51.8872 15.7709 44 17.4322Z" fill="#66676C"/>
<path d="M29.0004 18.875C40.5213 18.875 50.4016 16.5613 54.7488 13.2556C50.412 9.94438 40.5335 7.625 29.0004 7.625C17.4673 7.625 7.58883 9.94438 3.25195 13.2556C7.59914 16.5613 17.4795 18.875 29.0004 18.875Z" fill="#86878C"/>
<path d="M29.0001 18.875C39.3886 18.875 48.4551 16.9963 53.3254 14.2034C48.4729 11.3966 39.4195 9.5 29.0001 9.5C18.5807 9.5 9.5273 11.3966 4.6748 14.2034C9.54512 16.9963 18.6117 18.875 29.0001 18.875Z" fill="#AEAEAF"/>
<path d="M44 17.4321C42.8075 17.6834 41.555 17.9056 40.25 18.0949V33.0949C41.555 32.9046 42.8075 32.6834 44 32.4321V17.4321Z" fill="#AEAEAF"/>
<path d="M28.9996 18.875C38.1796 18.875 46.3302 17.4088 51.463 15.1409C46.3461 12.8581 38.2086 11.375 28.9996 11.375C19.7905 11.375 11.653 12.8581 6.53613 15.1409C11.6689 17.4088 19.8196 18.875 28.9996 18.875Z" fill="#E6E8EF"/>
</svg>
