<svg width="60" height="60" viewBox="0 0 60 60" fill="none" xmlns="http://www.w3.org/2000/svg">
<g clip-path="url(#clip0_230_583)">
<path d="M45.3352 53.4868C44.9619 53.4868 44.5888 53.3453 44.3041 53.062L32.4983 41.3149C32.225 41.0428 32.0713 40.674 32.0713 40.2892C32.0713 39.9045 32.2249 39.5355 32.4983 39.2634L44.3043 27.5164C44.5889 27.2332 44.962 27.0915 45.3353 27.0915C45.7083 27.0915 46.0814 27.2331 46.3661 27.5164L58.172 39.2634C58.4453 39.5355 58.599 39.9045 58.599 40.2892C58.599 40.674 58.4454 41.0428 58.172 41.3149L46.3659 53.062C46.0813 53.3453 45.708 53.4868 45.3352 53.4868Z" fill="#E28883"/>
<path d="M32.4989 41.3149L44.3048 53.062C44.5672 53.3231 44.9048 53.4623 45.2482 53.4826L45.2483 40.3764H32.0762C32.0975 40.7293 32.2462 41.0636 32.4989 41.3149Z" fill="#E8A09C"/>
<path opacity="0.1" d="M36.4514 41.3149C36.1781 41.0428 36.0244 40.674 36.0244 40.2892C36.0244 39.9045 36.178 39.5356 36.4514 39.2634L47.3116 28.4575L46.3659 27.5166C46.0813 27.2333 45.7082 27.0916 45.3352 27.0916C44.9619 27.0916 44.5888 27.2332 44.3041 27.5166L32.4983 39.2636C32.225 39.5357 32.0713 39.9046 32.0713 40.2893C32.0713 40.6741 32.2249 41.0429 32.4983 41.315L44.3043 53.0622C44.5889 53.3454 44.962 53.487 45.3353 53.487C45.7083 53.487 46.0814 53.3454 46.3661 53.0622L47.3118 52.1213L36.4514 41.3149Z" fill="black"/>
<path d="M58.172 39.2634L46.3661 27.5163C46.094 27.2456 45.7411 27.1058 45.3848 27.0938V40.2396H58.5965C58.5839 39.8732 58.4336 39.5238 58.172 39.2634Z" fill="#E8A09C"/>
<path d="M13.5892 60C13.2029 60 12.8173 59.8603 12.5152 59.5809L1.95504 49.8165C1.6384 49.524 1.45898 49.1152 1.45898 48.6872V27.3455C1.45898 26.9135 1.64203 26.5009 1.96418 26.2077L12.5242 16.5979C12.825 16.3241 13.2069 16.1872 13.5893 16.1872C13.9714 16.1872 14.3532 16.324 14.6538 16.5979L25.2139 26.2077C25.5357 26.501 25.7194 26.9134 25.7194 27.3455V48.6872C25.7194 49.1152 25.5396 49.5239 25.223 49.8165L14.6629 59.5809C14.361 59.8603 13.9751 60 13.5892 60Z" fill="#FEFAC8"/>
<path d="M13.5889 51.9627V59.8778C13.9746 59.8778 14.3608 59.7381 14.6625 59.4587L25.2227 49.6943C25.5393 49.4018 25.7191 48.9929 25.7191 48.565L19.4387 46.5532L13.5889 51.9627Z" fill="#EFBA50"/>
<path d="M1.45898 27.2232C1.45898 26.7913 1.64203 26.3788 1.96418 26.0856L12.5242 16.4757C12.825 16.202 13.2069 16.0651 13.5893 16.0651V23.9332L7.73906 29.257L1.45898 27.2232Z" fill="#EFBA50"/>
<path d="M13.5892 51.9627V59.8778C13.2032 59.8778 12.8173 59.7381 12.5152 59.4587L1.95504 49.6943C1.6384 49.4018 1.45898 48.9929 1.45898 48.5649L7.73895 46.5532L13.5892 51.9627Z" fill="#F9D984"/>
<path d="M7.73895 46.5313V29.2351L1.45898 27.2232V48.565L7.73895 46.5313Z" fill="#E5AE36"/>
<path d="M19.4395 29.2571V46.5534L25.7198 48.565V27.2232L19.4395 29.2571Z" fill="#E5AE36"/>
<path d="M34.9511 26.8413C34.5107 26.8413 34.0927 26.6427 33.8122 26.2996L20.3208 9.81234C19.9073 9.30703 19.8691 8.58856 20.2265 8.04152L25.0414 0.670195C25.3146 0.251836 25.7783 0 26.2746 0H43.6278C44.1242 0 44.5876 0.251836 44.8613 0.670195L49.6757 8.04152C50.0333 8.58867 49.9949 9.30703 49.5814 9.81234L36.0901 26.2995C35.8095 26.6427 35.3916 26.8413 34.9511 26.8413Z" fill="#37C4B3"/>
<path d="M25.6039 0.164764C25.3799 0.27996 25.1846 0.451522 25.042 0.670077L20.2268 8.04164C20.0446 8.32066 19.9656 8.64457 19.9867 8.96227H31.3504L25.6039 0.164764Z" fill="#53E7D3"/>
<path d="M38.5527 8.96203H49.9168C49.9377 8.64445 49.8591 8.32066 49.6765 8.04141L44.8615 0.670077C44.7189 0.451522 44.5238 0.280077 44.2996 0.164764L38.5527 8.96203Z" fill="#53E7D3"/>
<path d="M45.3352 45.5325C45.1487 45.5325 44.962 45.4617 44.8196 45.32L40.2789 40.802C40.1423 40.6659 40.0654 40.4814 40.0654 40.2891C40.0654 40.0966 40.1423 39.9123 40.2789 39.7763L44.8196 35.2582C44.962 35.1166 45.1487 35.0459 45.3352 35.0459C45.5216 35.0459 45.7082 35.1166 45.8506 35.2582L50.3914 39.7763C50.528 39.9123 50.6048 40.0969 50.6048 40.2891C50.6048 40.4815 50.528 40.6658 50.3914 40.802L45.8506 45.32C45.7081 45.4617 45.5217 45.5325 45.3352 45.5325Z" fill="#F5BFB6"/>
<path d="M34.9512 26.8444L40.8138 8.96204H29.125L34.9512 26.8444Z" fill="#53E7D3"/>
<path d="M34.9429 0L29.0889 8.96203H40.8139L34.9598 0H34.9429Z" fill="#B9F5ED"/>
<path opacity="0.1" d="M24.2551 9.81234C23.8415 9.30703 23.8032 8.58856 24.1605 8.04152L28.9756 0.670195C29.2488 0.251836 29.7126 0 30.2088 0H26.2746C25.7783 0 25.3146 0.251836 25.0414 0.670195L20.2265 8.04152C19.8691 8.58867 19.9073 9.30703 20.3208 9.81234L33.8123 26.2996C34.0928 26.6427 24.2551 9.81234 24.2551 9.81234Z" fill="black"/>
<path opacity="0.1" d="M5.34074 48.6642V27.2788C5.34074 26.8459 5.52414 26.4326 5.84687 26.1388L13.5563 19.1232V16.098C13.1733 16.098 12.7905 16.235 12.4892 16.5094L1.90762 26.1389C1.58488 26.4327 1.40137 26.846 1.40137 27.2789V48.6642C1.40137 49.093 1.58113 49.5026 1.89836 49.7958L12.48 59.5802C12.7827 59.8601 13.1693 60.0001 13.5564 60.0001V56.9328L5.83797 49.7958C5.52027 49.5026 5.34074 49.093 5.34074 48.6642Z" fill="black"/>
<path d="M25.7106 27.2788C25.7106 26.8459 25.5266 26.4326 25.2041 26.1388L14.6224 16.5093C14.3212 16.2348 13.9385 16.0979 13.5557 16.0979V23.9821L19.4175 29.3167L25.7106 27.2788Z" fill="#F9D984"/>
</g>
<defs>
<clipPath id="clip0_230_583">
<rect width="60" height="60" fill="white"/>
</clipPath>
</defs>
</svg>
