<svg width="48" height="48" viewBox="0 0 48 48" fill="none" xmlns="http://www.w3.org/2000/svg">
<circle cx="24" cy="24" r="24" fill="#FDFFFF"/>
<path d="M23.4 34.8C29.696 34.8 34.8 29.696 34.8 23.4C34.8 17.104 29.696 12 23.4 12C17.104 12 12 17.104 12 23.4C12 29.696 17.104 34.8 23.4 34.8Z" stroke="#747474" stroke-width="1.8" stroke-linecap="round" stroke-linejoin="round"/>
<path d="M36.0001 36L33.6001 33.6" stroke="#747474" stroke-width="1.8" stroke-linecap="round" stroke-linejoin="round"/>
<path d="M22.7492 20.2508L25.0355 21.5L22.7492 22.7492L21.5 25.0355L20.2508 22.7492L17.9645 21.5L20.2508 20.2508L21.5 17.9645L22.7492 20.2508Z" fill="#747474" stroke="#747474" stroke-width="0.5" stroke-linecap="round" stroke-linejoin="round"/>
<path d="M25.8706 25.3718L27.2424 26.1213L25.8706 26.8709L25.1211 28.2426L24.3716 26.8709L22.9998 26.1213L24.3716 25.3718L25.1211 24L25.8706 25.3718Z" fill="#747474" stroke="#747474" stroke-width="0.5" stroke-linecap="round" stroke-linejoin="round"/>
</svg>
