<svg width="60" height="60" viewBox="0 0 60 60" fill="none" xmlns="http://www.w3.org/2000/svg">
<path d="M35.4766 43.2894L38.968 39.798L46.2107 47.0407L42.7193 50.5321L35.4766 43.2894Z" fill="#77899B"/>
<path d="M35.4766 43.2894L37.2222 41.5437L44.465 48.7865L42.7194 50.5322L35.4766 43.2894Z" fill="#5F7080"/>
<path d="M24.4795 48.1395C35.1649 48.1395 43.8271 39.4773 43.8271 28.7919C43.8271 18.1065 35.1649 9.44421 24.4795 9.44421C13.7941 9.44421 5.13184 18.1065 5.13184 28.7919C5.13184 39.4773 13.7941 48.1395 24.4795 48.1395Z" fill="#4677D5"/>
<path fill-rule="evenodd" clip-rule="evenodd" d="M26.0394 48.0758C30.459 47.7206 34.78 45.8538 38.161 42.4728C45.7167 34.9171 45.7167 22.6668 38.161 15.1111C34.78 11.7302 30.4591 9.86349 26.0394 9.50818C21.6196 9.86337 17.2987 11.7302 13.9177 15.1111C6.36206 22.6668 6.36206 34.9171 13.9177 42.4728C17.2987 45.8538 21.6198 47.7206 26.0394 48.0758Z" fill="#5C85DA"/>
<path fill-rule="evenodd" clip-rule="evenodd" d="M54.5196 55.3394L51.0276 58.8315C50.5633 59.2958 49.8038 59.2956 49.3395 58.8315L42.1285 51.6203C41.6643 51.156 41.6642 50.3965 42.1285 49.9322L45.6205 46.4402C46.0847 45.976 46.8443 45.976 47.3086 46.4402L54.5196 53.6513C54.9839 54.1156 54.9839 54.8752 54.5196 55.3394Z" fill="#5C85DA"/>
<path fill-rule="evenodd" clip-rule="evenodd" d="M52.7735 57.0854L51.0276 58.8314C50.5633 59.2957 49.8038 59.2955 49.3395 58.8314L42.1285 51.6202C41.6643 51.1559 41.6642 50.3964 42.1285 49.9321L43.8744 48.1862L52.7735 57.0854Z" fill="#4677D5"/>
<path d="M24.4796 43.8545C32.7984 43.8545 39.5421 37.1108 39.5421 28.7919C39.5421 20.4731 32.7984 13.7294 24.4796 13.7294C16.1607 13.7294 9.41699 20.4731 9.41699 28.7919C9.41699 37.1108 16.1607 43.8545 24.4796 43.8545Z" fill="#E5EAF1"/>
<path fill-rule="evenodd" clip-rule="evenodd" d="M26.0395 43.7731C29.3595 43.4296 32.5872 41.9866 35.1312 39.4427C41.0134 33.5604 41.0134 24.0233 35.1312 18.1411C32.5872 15.5971 29.3595 14.1543 26.0395 13.8107C22.7196 14.1541 19.4919 15.5971 16.9479 18.1411C11.0655 24.0234 11.0655 33.5605 16.9479 39.4427C19.4919 41.9868 22.7196 43.4296 26.0395 43.7731Z" fill="#F3F5FB"/>
<path fill-rule="evenodd" clip-rule="evenodd" d="M31.041 17.8463C34.6554 17.2114 38.2949 14.3809 39.3031 9.58423C40.3112 14.3809 43.9507 17.2115 47.5652 17.8463C43.9507 18.4812 40.3112 21.3116 39.3031 26.1084C38.2949 21.3116 34.6553 18.4812 31.041 17.8463Z" fill="#83DEFF"/>
<path fill-rule="evenodd" clip-rule="evenodd" d="M48.631 29.1334C48.631 28.745 48.9457 28.4303 49.3341 28.4303C49.7225 28.4303 50.0372 28.745 50.0372 29.1334V31.4109H52.3148C52.7031 31.4109 53.0179 31.7257 53.0179 32.1141C53.0179 32.5024 52.7031 32.8172 52.3148 32.8172H50.0372V35.0946C50.0372 35.483 49.7225 35.7977 49.3341 35.7977C48.9457 35.7977 48.631 35.483 48.631 35.0946V32.8172H46.3536C45.9652 32.8172 45.6504 32.5024 45.6504 32.1141C45.6504 31.7257 45.9652 31.4109 46.3536 31.4109H48.631V29.1334ZM12.5499 1.52344C12.5499 1.13508 12.8646 0.820312 13.253 0.820312C13.6414 0.820312 13.9561 1.13508 13.9561 1.52344V3.80098H16.2337C16.622 3.80098 16.9368 4.11574 16.9368 4.5041C16.9368 4.89246 16.622 5.20723 16.2337 5.20723H13.9561V7.48465C13.9561 7.87301 13.6414 8.18777 13.253 8.18777C12.8646 8.18777 12.5499 7.87301 12.5499 7.48465V5.20723H10.2725C9.8841 5.20723 9.56934 4.89246 9.56934 4.5041C9.56934 4.11574 9.8841 3.80098 10.2725 3.80098H12.5499V1.52344ZM45.0753 1.52344C45.0753 1.13508 45.39 0.820312 45.7784 0.820312C46.1668 0.820312 46.4815 1.13508 46.4815 1.52344V3.80086H48.7591C49.1474 3.80086 49.4622 4.11562 49.4622 4.50398C49.4622 4.89234 49.1474 5.20711 48.7591 5.20711H46.4815V7.48453C46.4815 7.87289 46.1668 8.18766 45.7784 8.18766C45.39 8.18766 45.0753 7.87289 45.0753 7.48453V5.20711H42.7979C42.4095 5.20711 42.0947 4.89234 42.0947 4.50398C42.0947 4.11562 42.4095 3.80086 42.7979 3.80086H45.0753V1.52344Z" fill="#83DEFF"/>
<path fill-rule="evenodd" clip-rule="evenodd" d="M30.8065 22.1748L35.2617 27.1511L24.4805 39.1929L13.6992 27.1511L18.1546 22.1748H30.8065Z" fill="#ADE9FF"/>
<path fill-rule="evenodd" clip-rule="evenodd" d="M24.4805 39.1928L35.2617 27.151H28.1214L25.9581 34.3058L24.4805 39.1928Z" fill="#83DEFF"/>
<path fill-rule="evenodd" clip-rule="evenodd" d="M24.4805 39.1928L13.6992 27.151H20.8396L23.0029 34.3058L24.4805 39.1928Z" fill="#57CFFA"/>
<path fill-rule="evenodd" clip-rule="evenodd" d="M15.167 27.151H20.8398L23.0031 34.3059L23.7325 36.7181L15.167 27.151Z" fill="#83DEFF"/>
<path fill-rule="evenodd" clip-rule="evenodd" d="M30.8064 22.1748L35.2617 27.1511H13.6992L18.1546 22.1748H30.8064Z" fill="#83DEFF"/>
<path fill-rule="evenodd" clip-rule="evenodd" d="M30.8064 22.1748L35.2618 27.1511H28.1215L26.9277 22.1748H30.8064Z" fill="#ADE9FF"/>
<path fill-rule="evenodd" clip-rule="evenodd" d="M20.8396 27.1511H13.6992L18.1546 22.1748H22.0334L20.8396 27.1511Z" fill="#83DEFF"/>
<path fill-rule="evenodd" clip-rule="evenodd" d="M20.8398 27.1511H15.167L19.6222 22.1748H22.0336L20.8398 27.1511Z" fill="#ADE9FF"/>
</svg>
