<svg width="46" height="46" viewBox="0 0 46 46" fill="none" xmlns="http://www.w3.org/2000/svg">
<g clip-path="url(#clip0_231_760)">
<path fill-rule="evenodd" clip-rule="evenodd" d="M0.324081 45.7426L0.95317 46.0003L3.90859 45.9776L44.6586 45.6652C45.1425 45.6588 45.5217 45.2811 45.5317 44.8043L45.9346 26.0533C45.9397 25.8131 45.8467 25.5818 45.6769 25.412L20.5234 0.25847C20.3538 0.0892036 20.1234 -0.00405462 19.8846 0.000527432L1.09171 0.361431C0.615176 0.370865 0.230284 0.754679 0.228667 1.23849L0.227319 1.62096L0.229206 1.62284L0.16371 19.375C0.162632 19.661 0.384726 19.8985 0.670431 19.9152L8.19685 20.364L12.049 32.7096C12.1175 32.9293 12.3177 33.0813 12.5479 33.088L19.3849 33.2824L22.105 43.2605C22.1408 43.3925 22.2257 43.5065 22.3427 43.578C22.8556 43.8925 25.7806 45.8049 26.1181 45.8049L44.2719 45.665L44.2751 45.6682L3.90913 45.9776L15.9454 45.8825C16.2982 45.8798 16.554 45.5418 16.4613 45.2016L14.906 39.4959C14.7966 39.0948 14.3791 39.0725 14.0352 39.0886L7.74404 38.9105L3.84714 26.4195C3.78056 26.2058 3.58839 26.0551 3.36468 26.0417L0.708704 25.8834C0.402246 25.8638 0.138374 26.1128 0.137296 26.4201L0.0664086 45.1178C0.0658695 45.3518 0.158858 45.5771 0.324351 45.7429L0.324081 45.7426Z" fill="#89CFF0"/>
<path fill-rule="evenodd" clip-rule="evenodd" d="M0.323644 45.7426L0.952732 46.0002L3.91462 45.9746L15.1722 40.4756C14.8727 39.3773 14.9566 39.045 14.0342 39.0884L7.74306 38.9102L5.31538 31.1288L0.0767524 42.0772L0.065432 45.1178C0.064893 45.3517 0.157882 45.5771 0.323374 45.7428L0.323644 45.7426ZM20.6197 37.8148L45.7741 25.5279L20.5229 0.258453C20.427 0.162499 20.3119 0.0913429 20.1868 0.0482178L9.09207 23.2355L12.048 32.7093C12.1165 32.929 12.3168 33.081 12.5469 33.0878L19.3839 33.2821L20.6194 37.8148H20.6197Z" fill="#C2E6F7"/>
<path fill-rule="evenodd" clip-rule="evenodd" d="M45.7746 25.5277L31.2158 32.5924C31.988 26.4336 32.1341 18.3654 33.0726 12.8076L45.7743 25.5277H45.7746Z" fill="#89CFF0"/>
<path fill-rule="evenodd" clip-rule="evenodd" d="M33.0709 12.8057C28.356 13.6019 21.0144 13.8658 15.4998 14.3895C14.7101 14.4644 13.9214 14.5237 13.2188 14.6122L14.0573 12.9464L20.1875 0.0479736C20.3126 0.0910988 20.4277 0.162255 20.5236 0.258209L33.0711 12.8057H33.0709Z" fill="#89CFF0"/>
<path fill-rule="evenodd" clip-rule="evenodd" d="M20.1875 0.0482231L13.2187 14.6124L0.226722 1.6204C0.228609 1.19886 0.183597 0.904797 0.511618 0.594295C0.658783 0.456025 0.856889 0.366002 1.09138 0.36115L19.8843 0.000246312C19.988 -0.00190995 20.0907 0.0148011 20.1872 0.0479535L20.1875 0.0482231Z" fill="#C2E6F7"/>
<path fill-rule="evenodd" clip-rule="evenodd" d="M45.935 26.0529L45.5321 44.804C45.5137 45.6644 44.7399 45.6647 44.275 45.6682L31.2363 32.6295L45.7752 25.5279C45.8824 25.6802 45.9393 25.8637 45.9353 26.0532L45.935 26.0529Z" fill="#C2E6F7"/>
</g>
<defs>
<clipPath id="clip0_231_760">
<rect width="46" height="46" fill="white"/>
</clipPath>
</defs>
</svg>
