<svg width="94" height="60" viewBox="0 0 94 60" fill="none" xmlns="http://www.w3.org/2000/svg">
<g clip-path="url(#clip0_232_1094)">
<path d="M60.4414 36.9879L59.9708 36.5859H40.0396L39.6956 36.9879C20.2961 41.6552 5.87988 59.1172 5.87988 79.9491C5.87988 104.354 25.6636 124.138 50.0684 124.138C74.4731 124.138 94.2574 104.354 94.2574 79.9491C94.2574 59.1172 79.8411 41.6552 60.4414 36.9879ZM50.0684 114.72C30.8651 114.72 15.2976 99.1524 15.2976 79.9491C15.2976 60.7456 30.8651 45.1784 50.0684 45.1784C69.2719 45.1784 84.8391 60.7456 84.8391 79.9491C84.8391 99.1524 69.2719 114.72 50.0684 114.72Z" fill="#FFE07D"/>
<path d="M15.9515 86.6815C15.5241 84.5033 15.2979 82.2528 15.2979 79.9492C15.2979 77.6415 15.5248 75.3872 15.9537 73.2053C18.6763 55.4284 31.9935 41.1416 49.2576 36.9881L49.6017 36.5861H40.0396L39.6956 36.9881C20.2961 41.6553 5.87988 59.1173 5.87988 79.9492C5.87988 104.354 25.6636 124.138 50.0684 124.138C51.6841 124.138 53.2785 124.049 54.8494 123.88C34.9189 121.735 18.9568 106.342 15.9515 86.6815Z" fill="#FFD064"/>
<path d="M64.9961 3.15485L64.9243 2.06912C64.0929 1.19652 62.9403 0.702637 61.7351 0.702637H38.409C37.2038 0.702637 36.0511 1.19652 35.2197 2.06912V3.15485L41.2455 13.0696H59.8601L64.9961 3.15485Z" fill="#C3DDFF"/>
<path d="M38.409 0.702393C37.2037 0.702393 36.0511 1.19628 35.2197 2.06888V3.1546L38.2487 8.13855L43.4669 0.702393H38.409Z" fill="#A4CCFF"/>
<path d="M50.0724 0.702393L41.6895 13.0696L42.2122 13.5786H57.6099L58.4551 13.0696L50.0724 0.702393Z" fill="#DBEAFF"/>
<path d="M35.2189 2.06885L26.8447 10.8582C26.2769 11.4544 25.96 12.246 25.96 13.0694L26.514 13.5785H40.8146L41.6884 13.0694L35.2189 2.06885Z" fill="#DBEAFF"/>
<path d="M34.7878 13.0696L38.542 7.71955L35.2189 2.06885L26.8447 10.8582C26.2769 11.4544 25.96 12.246 25.96 13.0694L26.514 13.5785H35.0519L34.7878 13.0696Z" fill="#C3DDFF"/>
<path d="M74.1837 13.0697C74.1837 12.2463 73.8668 11.4547 73.299 10.8585L64.9246 2.06897L58.4551 13.0695L59.0981 13.5786H73.7609L74.1837 13.0697Z" fill="#DBEAFF"/>
<path d="M25.96 13.0696C25.96 13.9936 26.2895 14.8875 26.8895 15.5904L40.36 31.3727H59.7829L73.2534 15.5904C73.8534 14.8875 74.1829 13.9936 74.1829 13.0696H25.96Z" fill="#A4CCFF"/>
<path d="M25.96 13.0696C25.96 13.9936 26.2895 14.8875 26.8895 15.5904L40.36 31.3727H44.2844L34.7878 13.0696H25.96Z" fill="#8BB3EA"/>
<path d="M46.5194 31.3728H53.6254L58.4551 13.0697H41.6895L46.5194 31.3728Z" fill="#C3DDFF"/>
<path d="M59.1039 30.6277H41.0355C39.921 30.6277 39.0176 31.5311 39.0176 32.6457V35.4812C39.0176 36.5958 39.921 37.4992 41.0355 37.4992H59.1039C60.2185 37.4992 61.1219 36.5958 61.1219 35.4812V32.6457C61.1219 31.5311 60.2183 30.6277 59.1039 30.6277Z" fill="#EDF4FF"/>
<path d="M44.854 35.4809V32.6454C44.854 31.5308 45.7574 30.6274 46.872 30.6274H41.0355C39.921 30.6274 39.0176 31.5308 39.0176 32.6454V35.4809C39.0176 36.5955 39.921 37.4989 41.0355 37.4989H46.872C45.7576 37.4989 44.854 36.5955 44.854 35.4809Z" fill="#DBEAFF"/>
<path d="M19.0047 6.66514L15.5193 3.17982C14.7917 2.45245 14.7917 1.2729 15.5193 0.545528C16.2467 -0.181843 17.4263 -0.181843 18.1536 0.545528L21.639 4.03085C22.3666 4.75822 22.3666 5.93777 21.639 6.66514C20.9113 7.39251 19.732 7.39251 19.0047 6.66514Z" fill="#C3DDFF"/>
<path d="M81.7742 25.9831L78.2889 22.4978C77.5613 21.7704 77.5613 20.5909 78.2889 19.8635C79.0162 19.1362 80.1958 19.1362 80.9232 19.8635L84.4085 23.3488C85.1361 24.0762 85.1361 25.2558 84.4085 25.9831C83.6809 26.7107 82.5016 26.7105 81.7742 25.9831Z" fill="#C3DDFF"/>
<path d="M17.0439 15.1272H12.1148C11.086 15.1272 10.252 14.2932 10.252 13.2644C10.252 12.2357 11.086 11.4016 12.1148 11.4016H17.0439C18.0726 11.4016 18.9067 12.2357 18.9067 13.2644C18.9067 14.2932 18.0726 15.1272 17.0439 15.1272Z" fill="#C3DDFF"/>
<path d="M87.8151 15.1272H82.8862C81.8575 15.1272 81.0234 14.2932 81.0234 13.2644C81.0234 12.2357 81.8575 11.4016 82.8862 11.4016H87.8151C88.8439 11.4016 89.6779 12.2357 89.6779 13.2644C89.6779 14.2932 88.8436 15.1272 87.8151 15.1272Z" fill="#C3DDFF"/>
<path d="M15.5193 25.9831C14.7917 25.2558 14.7917 24.0762 15.5193 23.3488L19.0047 19.8635C19.732 19.1362 20.9116 19.1362 21.639 19.8635C22.3666 20.5909 22.3666 21.7704 21.639 22.4978L18.1536 25.9831C17.426 26.7107 16.2467 26.7105 15.5193 25.9831Z" fill="#C3DDFF"/>
<path d="M78.2889 6.66514C77.5613 5.93777 77.5613 4.75822 78.2889 4.03085L81.7742 0.545528C82.5016 -0.181843 83.6811 -0.181843 84.4085 0.545528C85.1361 1.2729 85.1361 2.45245 84.4085 3.17982L80.9232 6.66514C80.1956 7.39251 79.0162 7.39251 78.2889 6.66514Z" fill="#C3DDFF"/>
</g>
<defs>
<clipPath id="clip0_232_1094">
<rect width="94" height="60" fill="white"/>
</clipPath>
</defs>
</svg>
