<svg width="60" height="60" viewBox="0 0 60 60" fill="none" xmlns="http://www.w3.org/2000/svg">
<path d="M8.82102 16.9712L7.60156 20.0115L17.0102 29.4201L20.1727 28.323L8.82102 16.9712Z" fill="#7AD7EE"/>
<path d="M8.94789 17.3178L8.27441 17.9913L17.0096 26.7264C17.7535 27.4703 17.7535 28.6764 17.0096 29.4202L20.05 32.4606L22.7438 29.7668L10.2948 17.3178C9.92289 16.9458 9.31984 16.9458 8.94789 17.3178Z" fill="#4BC3EF"/>
<path d="M36.8867 47.9502L42.2744 53.3379C42.6466 53.7101 43.2491 53.7101 43.6214 53.3379C43.9937 52.9657 43.9936 52.3633 43.6214 51.991L38.2337 46.6033L36.8867 47.9502Z" fill="#B0A8AF"/>
<path d="M30.5188 42.1311L30.4482 42.8587L31.7917 44.2021L32.7969 44.5109L33.1386 45.5491L35.8866 48.297C36.6305 49.0409 37.8366 49.0409 38.5803 48.297L37.9655 46.218L32.1987 40.4512L30.5188 42.1311Z" fill="#DBD8DB"/>
<path d="M20.3971 28.7665L18.3766 30.7869C18.0047 31.1589 18.0047 31.7619 18.3766 32.1339L24.4377 38.1949L25.8229 38.2495L28.5249 35.5476L21.744 28.7666C21.3721 28.3945 20.769 28.3945 20.3971 28.7665Z" fill="#736572"/>
<path d="M30.8262 36.5015L22.4179 28.0932C22.0459 27.7212 21.4429 27.7212 21.0709 28.0932L20.3975 28.7667L25.1117 33.4809C26.2275 34.5967 26.2275 36.4058 25.1117 37.5216L24.4382 38.1951L26.7855 40.5424L30.8262 36.5015Z" fill="#615260"/>
<path d="M27.4303 10.4791L25.6749 12.2345C22.3326 15.5768 16.895 15.5768 13.5527 12.2345L7.74932 6.43125C6.4142 5.09614 4.24131 5.09614 2.90619 6.43125C1.57049 7.76696 1.57049 9.93985 2.90561 11.275L7.0299 15.3993C7.40209 15.7715 7.40209 16.3739 7.0299 16.7462C6.65771 17.1185 6.05525 17.1184 5.68295 16.7462L1.55865 12.6219C-0.519551 10.5437 -0.519551 7.16321 1.55865 5.085C3.63686 3.0068 7.01807 3.0061 9.09627 5.0843L14.8996 10.8877C17.4987 13.4868 21.729 13.4868 24.3281 10.8877L26.0834 9.13231C26.4556 8.76012 27.0581 8.76012 27.4304 9.13231C27.8027 9.5045 27.8024 10.107 27.4303 10.4791Z" fill="#615260"/>
<path d="M27.8438 40.2535L30.4488 42.8586C31.1916 42.1158 32.3945 42.1151 33.1388 42.8554L31.7921 44.202L33.1391 45.5489L34.4861 44.202L38.5809 48.2969C39.3248 47.553 39.3248 46.3469 38.5809 45.6031L35.833 42.8552L34.5282 42.7038L34.4861 41.5082L30.5375 37.5597L27.8438 40.2535Z" fill="#C9C5C9"/>
<path d="M33.1427 42.8586L34.4861 44.2021L35.833 42.8551L34.4861 41.5082L33.1387 42.8555C33.1398 42.8567 33.1414 42.8575 33.1427 42.8586Z" fill="#B8B2B8"/>
<path d="M31.8711 37.5466L27.8303 41.5874C27.4584 41.9593 26.8553 41.9593 26.4834 41.5874L25.7848 40.8888C25.4129 40.5169 25.4129 39.9138 25.7848 39.5419L29.1521 36.1746C29.524 35.8026 30.1271 35.8026 30.499 36.1746L31.8711 37.5466Z" fill="#ECEAEC"/>
<path d="M29.8256 35.5011L29.1521 36.1746C29.9098 36.9323 29.9098 38.1609 29.1521 38.9187L26.4834 41.5874L27.1318 42.2358C27.5037 42.6077 28.1068 42.6077 28.4787 42.2358L32.5195 38.195C32.8914 37.8231 32.8914 37.22 32.5195 36.8481L31.1725 35.5011C30.8006 35.1292 30.1975 35.1292 29.8256 35.5011Z" fill="#DBD8DB"/>
<path d="M6.5683 15.2022L4.90752 14.6238L4.23404 15.2973C3.86209 15.6692 3.86209 16.2723 4.23404 16.6442L7.60131 20.0115L8.94826 18.6645L8.79533 17.4292L6.5683 15.2022Z" fill="#736572"/>
<path d="M5.5807 13.9505L4.90723 14.624L8.94797 18.6647L10.2949 17.3177L6.92766 13.9505C6.5557 13.5785 5.95266 13.5785 5.5807 13.9505Z" fill="#615260"/>
<path d="M58.095 52.6644H26.6653C26.1392 52.6644 25.7129 53.0909 25.7129 53.6168V54.5692C25.7129 55.0952 26.1393 55.5216 26.6653 55.5216H59.0473V53.6168C59.0475 53.0909 58.621 52.6644 58.095 52.6644Z" fill="#FBBD80"/>
<path d="M44.761 49.8071C44.2346 49.8071 43.8086 49.3812 43.8086 48.8547C43.8086 47.4214 44.4987 46.6467 45.0019 46.0803C45.4307 45.5995 45.7135 45.2804 45.7135 44.5726C45.7135 43.8648 45.4307 43.5458 45.0019 43.0649C44.4987 42.4985 43.8086 41.7237 43.8086 40.2905C43.8086 38.8562 44.4978 38.0796 45.001 37.5132C45.4298 37.0305 45.7135 36.7115 45.7135 36.0009C45.7135 35.2903 45.4298 34.9713 45.001 34.4886L44.7777 34.2328C44.4373 33.8328 44.4857 33.2311 44.8866 32.8906C45.2875 32.5493 45.8883 32.5986 46.2288 32.9995L46.425 33.2228C46.9282 33.7901 47.6184 34.5658 47.6184 36.0009C47.6184 37.4352 46.9292 38.2118 46.426 38.7781C45.9972 39.2608 45.7135 39.5799 45.7135 40.2905C45.7135 40.9983 45.9962 41.3172 46.425 41.7982C46.9282 42.3646 47.6184 43.1394 47.6184 44.5726C47.6184 46.0058 46.9282 46.7806 46.425 47.347C45.9962 47.8278 45.7135 48.1469 45.7135 48.8547C45.7134 49.3812 45.2874 49.8071 44.761 49.8071Z" fill="#FCDBB2"/>
<path d="M50.3291 46.9499C50.263 46.9499 50.1952 46.9433 50.1273 46.9284C49.613 46.8178 49.2865 46.3109 49.3973 45.7965C49.4809 45.4068 49.5237 44.9957 49.5237 44.5734C49.5237 42.7439 48.748 41.599 48.1648 40.8968C47.8728 40.5443 47.8718 40.0337 48.1639 39.6812C48.5731 39.1874 49.146 38.3949 49.3971 37.2258C49.507 36.7124 50.0064 36.3803 50.5281 36.4948C51.0415 36.6046 51.3699 37.1114 51.2591 37.6258C51.0555 38.5763 50.6723 39.4534 50.0937 40.2886C50.9903 41.5805 51.4284 42.9895 51.4284 44.5736C51.4284 45.1307 51.3716 45.6766 51.2591 46.1985C51.1635 46.6449 50.7681 46.9499 50.3291 46.9499Z" fill="#F8EBCC"/>
<path d="M42.5298 45.5251C42.2564 45.5251 41.9848 45.4079 41.796 45.1809C40.5868 43.7253 39.999 42.1256 39.999 40.2904C39.999 38.4544 40.5878 36.8528 41.7988 35.3926C42.1336 34.9888 42.7354 34.9302 43.14 35.2679C43.5445 35.6036 43.6004 36.2035 43.2647 36.6091C42.6806 37.3131 41.9039 38.4609 41.9039 40.2904C41.9039 42.1181 42.6786 43.262 43.2619 43.9642C43.5976 44.3689 43.5418 44.9688 43.1372 45.3054C42.9595 45.4534 42.7438 45.5251 42.5298 45.5251Z" fill="#F8EBCC"/>
<path d="M59.0475 52.6644H58.0951C58.0951 53.7164 57.2423 54.5693 56.1902 54.5693H25.7129V55.5217C25.7129 56.0477 26.1393 56.4741 26.6653 56.4741H59.0473C59.5734 56.4741 59.9997 56.0476 59.9997 55.5217V53.6168C59.9998 53.0909 59.5734 52.6644 59.0475 52.6644Z" fill="#F4AA73"/>
</svg>
