<svg width="60" height="60" viewBox="0 0 60 60" fill="none" xmlns="http://www.w3.org/2000/svg">
<g clip-path="url(#clip0_231_1047)">
<path d="M5.87119 58.7946L2.03605 59.9326C0.83122 60.2901 -0.290299 59.1686 0.0676714 57.9637L1.20567 54.1291C2.4517 49.9286 4.72724 46.1063 7.82492 43.0082L37.7571 13.0764L46.9234 22.2427L16.9916 52.1749C13.8935 55.2726 10.0712 57.5481 5.87119 58.7946Z" fill="#DEECF1"/>
<path d="M3.30497 56.2285L0.319441 57.1147L0.0676714 57.9638C-0.290299 59.1687 0.83122 60.2902 2.03605 59.9322L5.87073 58.7942C10.0712 57.5482 13.8935 55.2727 16.9916 52.175L46.9234 22.2428L44.3576 19.677L14.4254 49.6088C11.3277 52.7069 7.50541 54.9824 3.30497 56.2285Z" fill="#A8D3D8"/>
<path d="M22.6996 24.9119L39.6689 29.9665C40.7515 30.2888 41.3681 31.4282 41.0454 32.5108V32.5112C40.7231 33.5938 39.5837 34.21 38.5007 33.8877L21.5314 28.8331C20.4488 28.5108 19.8326 27.3715 20.1549 26.2884C20.4776 25.2058 21.617 24.5892 22.6996 24.9119Z" fill="#8EBAC5"/>
<path d="M15.3843 32.2266L32.3536 37.2812C33.4362 37.6034 34.0524 38.7428 33.7301 39.8259C33.4074 40.9085 32.268 41.5251 31.1854 41.2024L14.2161 36.1478C13.1335 35.8255 12.5169 34.6861 12.8396 33.6035V33.603C13.1624 32.5204 14.3013 31.9043 15.3843 32.2266Z" fill="#8EBAC5"/>
<path d="M8.07086 39.5411L25.0401 44.5957C26.1227 44.9185 26.7389 46.0578 26.4166 47.1404C26.0939 48.2235 24.9545 48.8397 23.8719 48.5169L6.90265 43.4628C5.82004 43.1401 5.20343 42.0007 5.52616 40.9181C5.84888 39.835 6.98779 39.2189 8.07086 39.5411Z" fill="#8EBAC5"/>
<path d="M3.36012 47.4952L17.4244 51.7785C18.5006 52.1063 19.1104 53.2411 18.789 54.3196C18.4654 55.4067 17.3182 56.0229 16.2324 55.6924L2.1681 51.4091C1.0919 51.0813 0.482162 49.9461 0.803511 48.8681C1.12761 47.7804 2.27476 47.1643 3.36012 47.4952Z" fill="#8EBAC5"/>
<path d="M30.0138 17.5973L46.9831 22.6519C48.0661 22.9742 48.6823 24.1136 48.3596 25.1962V25.1966C48.0373 26.2793 46.8979 26.8954 45.8153 26.5731L28.846 21.5185C27.763 21.1963 27.1468 20.0569 27.4696 18.9738C27.7918 17.8912 28.9312 17.2746 30.0138 17.5973Z" fill="#8EBAC5"/>
<path d="M59.9993 26.7023L59.927 24.4968C59.9082 23.92 59.6706 23.3721 59.2623 22.9638L37.0365 0.738008C36.6282 0.329683 36.0803 0.0921044 35.5035 0.0733361L33.298 0.00146732C32.6699 -0.019132 32.0611 0.221194 31.6166 0.666139L28.7167 3.56607C28.2722 4.01056 28.0314 4.61938 28.052 5.24743L28.1239 7.45293C28.1426 8.02972 28.3802 8.57766 28.7885 8.98598L51.0143 31.2118C51.4226 31.6201 51.9706 31.8577 52.5478 31.8764L54.7529 31.9483C55.3814 31.9689 55.9902 31.7286 56.4347 31.2841L59.3346 28.3837C59.7791 27.9392 60.0194 27.3304 59.9993 26.7023Z" fill="#537983"/>
<path d="M59.9994 26.7022L59.9271 24.4967C59.9083 23.9199 59.6707 23.372 59.2624 22.9637L57.289 20.9902L57.3906 24.0934C57.4112 24.7219 57.1704 25.3307 56.7259 25.7752L53.826 28.6752C53.3815 29.1196 52.7727 29.36 52.1442 29.3398L49.041 29.2382L51.0149 31.2116C51.4228 31.62 51.9707 31.8575 52.5479 31.8763L54.753 31.9482C55.3815 31.9688 55.9903 31.728 56.4348 31.2835L59.3347 28.3836C59.7792 27.9391 60.0195 27.3303 59.9994 26.7022Z" fill="#3E5959"/>
</g>
<defs>
<clipPath id="clip0_231_1047">
<rect width="60" height="60" fill="white"/>
</clipPath>
</defs>
</svg>
