<svg width="60" height="60" viewBox="0 0 60 60" fill="none" xmlns="http://www.w3.org/2000/svg">
<g clip-path="url(#clip0_231_670)">
<path d="M29.9997 17.7839C16.454 17.7839 5.40128 14.1274 4.57034 9.47363H4.4873V51.108C4.4873 56.011 15.8724 60 29.9998 60C44.1272 60 55.5123 56.011 55.5123 51.108V9.47363H55.4293C54.598 14.1274 43.5453 17.7839 29.9997 17.7839Z" fill="#D4E1F4"/>
<path d="M29.9998 17.7839C43.5455 17.7839 54.5982 14.1274 55.4291 9.47366C55.5121 9.30744 55.5121 9.05819 55.5121 8.89196C55.5123 3.98899 44.1272 0 29.9998 0C15.8724 0 4.4873 3.98899 4.4873 8.89196C4.4873 9.05819 4.4873 9.30744 4.57034 9.47366C5.40144 14.1274 16.4541 17.7839 29.9998 17.7839Z" fill="#00BBD3"/>
<g clip-path="url(#clip1_231_670)">
<path d="M22.8302 34.3986H16.3423C16.0097 34.3986 15.7098 34.1989 15.5814 33.8921C15.4532 33.5853 15.5216 33.2314 15.7551 32.9947L22.3255 26.3331C22.4805 26.1759 22.692 26.0875 22.9127 26.0875H26.1566C26.4424 26.0875 26.7078 26.2354 26.8581 26.4784C27.0084 26.7215 27.0221 27.025 26.8945 27.2806L23.568 33.9423C23.4284 34.222 23.1428 34.3986 22.8302 34.3986Z" fill="#A0EBFF"/>
<path d="M42.6235 34.3986H36.1355C35.823 34.3986 35.5373 34.222 35.3977 33.9423L32.0712 27.2806C31.9436 27.025 31.9574 26.7215 32.1076 26.4784C32.2579 26.2354 32.5234 26.0875 32.8091 26.0875H36.053C36.2737 26.0875 36.4852 26.1759 36.6402 26.3331L43.2106 32.9947C43.4441 33.2315 43.5126 33.5854 43.3843 33.8921C43.256 34.1989 42.956 34.3986 42.6235 34.3986Z" fill="#73C8F0"/>
<path d="M21.9082 33.5524L26.1568 26.0875H32.8097L37.0453 33.5524H21.9082Z" fill="#D2F0FF"/>
<path d="M35.2426 33.5524L28.7279 48.2711C28.5629 48.6438 28.695 49.0812 29.0388 49.3003C29.1754 49.3874 29.3291 49.4297 29.4817 49.4297C29.7129 49.4297 29.9413 49.3326 30.103 49.1477L43.2437 34.1167C43.3826 33.9578 43.452 33.7556 43.4468 33.5524H35.2426V33.5524Z" fill="#0073AA"/>
<path d="M23.7221 33.5524H15.5179C15.5126 33.7556 15.582 33.9579 15.7209 34.1167L28.8617 49.1478C29.0233 49.3327 29.2518 49.4297 29.483 49.4297C29.6355 49.4297 29.7893 49.3875 29.9259 49.3004C30.2696 49.0813 30.4017 48.6439 30.2367 48.2712L23.7221 33.5524Z" fill="#41B4E6"/>
<path d="M21.9082 33.5524L28.7292 48.9388C28.8612 49.2372 29.1569 49.4297 29.4833 49.4297C29.8097 49.4297 30.1054 49.2372 30.2375 48.9388L37.0454 33.5524H21.9082Z" fill="#A0EBFF"/>
<path d="M29.4766 33.5524H37.0451L32.8095 26.0875H29.4766V33.5524Z" fill="#41B4E6"/>
<path d="M29.4824 49.4297C29.8088 49.4297 30.1045 49.2372 30.2366 48.9388L37.0444 33.5524H29.4824V49.4297Z" fill="#73C8F0"/>
</g>
</g>
<defs>
<clipPath id="clip0_231_670">
<rect width="60" height="60" fill="white"/>
</clipPath>
<clipPath id="clip1_231_670">
<rect width="27.931" height="27.931" fill="white" transform="translate(15.5176 23.7931)"/>
</clipPath>
</defs>
</svg>
