<svg width="18" height="19" viewBox="0 0 18 19" fill="none" xmlns="http://www.w3.org/2000/svg">
<path d="M15.8013 4.4225C14.5938 4.3025 13.3863 4.2125 12.1713 4.145V4.1375L12.0063 3.1625C11.8938 2.4725 11.7288 1.4375 9.97378 1.4375H8.00878C6.26128 1.4375 6.09627 2.4275 5.97627 3.155L5.81878 4.115C5.12128 4.16 4.42378 4.205 3.72628 4.2725L2.19628 4.4225C1.88128 4.4525 1.65628 4.73 1.68628 5.0375C1.71628 5.345 1.98628 5.57 2.30128 5.54L3.83128 5.39C7.76128 5 11.7213 5.15 15.6963 5.5475C15.7188 5.5475 15.7338 5.5475 15.7563 5.5475C16.0413 5.5475 16.2888 5.33 16.3188 5.0375C16.3413 4.73 16.1163 4.4525 15.8013 4.4225Z" fill="white"/>
<path d="M14.4218 6.605C14.2418 6.4175 13.9943 6.3125 13.7393 6.3125H4.25932C4.00432 6.3125 3.74932 6.4175 3.57682 6.605C3.40432 6.7925 3.30682 7.0475 3.32182 7.31L3.78682 15.005C3.86932 16.145 3.97432 17.57 6.59182 17.57H11.4068C14.0243 17.57 14.1293 16.1525 14.2118 15.005L14.6768 7.3175C14.6918 7.0475 14.5943 6.7925 14.4218 6.605ZM10.2443 13.8125H7.74682C7.43932 13.8125 7.18432 13.5575 7.18432 13.25C7.18432 12.9425 7.43932 12.6875 7.74682 12.6875H10.2443C10.5518 12.6875 10.8068 12.9425 10.8068 13.25C10.8068 13.5575 10.5518 13.8125 10.2443 13.8125ZM10.8743 10.8125H7.12432C6.81682 10.8125 6.56182 10.5575 6.56182 10.25C6.56182 9.9425 6.81682 9.6875 7.12432 9.6875H10.8743C11.1818 9.6875 11.4368 9.9425 11.4368 10.25C11.4368 10.5575 11.1818 10.8125 10.8743 10.8125Z" fill="white"/>
</svg>
