<svg width="116" height="50" viewBox="0 0 116 50" fill="none" xmlns="http://www.w3.org/2000/svg">
<path d="M0.807617 19.9478H47.3507V32.0209H0.807617V19.9478Z" fill="#CBD1D6"/>
<path d="M67.2422 19.9478H113.785V32.0209H67.2422V19.9478Z" fill="#CBD1D6"/>
<path d="M73.2392 13.7257C73.0833 13.7272 72.9303 13.6836 72.7986 13.6001C72.667 13.5166 72.5623 13.3968 72.4973 13.2551C72.4323 13.1134 72.4098 12.9559 72.4323 12.8016C72.4549 12.6473 72.5217 12.5029 72.6246 12.3858L79.8832 4.16013C80.026 4.00419 80.2243 3.91051 80.4354 3.89922C80.6466 3.88794 80.8537 3.95994 81.0123 4.09976C81.1709 4.23959 81.2683 4.43606 81.2836 4.64695C81.2989 4.85783 81.2308 5.0663 81.094 5.22752L73.8354 13.4532C73.7607 13.5379 73.669 13.6059 73.5663 13.6528C73.4636 13.6998 73.3521 13.7246 73.2392 13.7257Z" fill="black"/>
<path d="M77.2303 14.7746C77.0405 14.7749 76.8567 14.7084 76.7112 14.5866C76.5656 14.4649 76.4676 14.2957 76.4344 14.1089C76.4011 13.9221 76.4347 13.7295 76.5293 13.565C76.6239 13.4005 76.7735 13.2746 76.9517 13.2094L85.4191 10.1363C85.6166 10.0777 85.8291 10.0967 86.013 10.1897C86.1969 10.2826 86.3383 10.4423 86.4082 10.6361C86.4781 10.83 86.4713 11.0432 86.3891 11.2321C86.3069 11.4211 86.1556 11.5714 85.9661 11.6524L77.5048 14.7255C77.4169 14.7577 77.324 14.7743 77.2303 14.7746Z" fill="black"/>
<path d="M42.4537 13.7257C42.3376 13.7272 42.2226 13.7037 42.1165 13.6566C42.0105 13.6096 41.9158 13.5402 41.839 13.4532L34.5804 5.22752C34.4436 5.0663 34.3755 4.85783 34.3908 4.64695C34.4061 4.43606 34.5035 4.23959 34.6621 4.09976C34.8207 3.95994 35.0278 3.88794 35.239 3.89922C35.4501 3.91051 35.6484 4.00419 35.7912 4.16013L43.0498 12.3858C43.1527 12.5029 43.2195 12.6473 43.2421 12.8016C43.2647 12.9559 43.2421 13.1134 43.1771 13.2551C43.1121 13.3968 43.0074 13.5166 42.8758 13.6001C42.7441 13.6836 42.5911 13.7272 42.4352 13.7257H42.4537Z" fill="black"/>
<path d="M38.462 14.7745C38.3683 14.7741 38.2754 14.7575 38.1874 14.7253L29.72 11.6522C29.5203 11.5782 29.358 11.4283 29.2683 11.2351C29.1787 11.0419 29.169 10.8211 29.2415 10.6208C29.3139 10.4205 29.4626 10.257 29.655 10.1658C29.8475 10.0747 30.0682 10.0633 30.2691 10.1341L38.7365 13.2072C38.9144 13.2723 39.0637 13.3979 39.1583 13.5619C39.2529 13.726 39.2869 13.9181 39.2541 14.1047C39.2214 14.2912 39.1241 14.4604 38.9793 14.5824C38.8345 14.7045 38.6514 14.7718 38.462 14.7724V14.7745Z" fill="black"/>
<path d="M45.8893 44.4425C45.7218 44.4441 45.558 44.3936 45.4205 44.298C45.283 44.2023 45.1787 44.0663 45.1219 43.9087C45.0652 43.7511 45.0589 43.5798 45.1039 43.4185C45.1489 43.2572 45.2429 43.1138 45.373 43.0084L53.0148 36.6573C53.0948 36.5801 53.19 36.5202 53.2944 36.4815C53.3987 36.4428 53.5099 36.4261 53.6209 36.4325C53.732 36.4388 53.8406 36.468 53.9398 36.5183C54.0391 36.5686 54.1269 36.6388 54.1977 36.7246C54.2685 36.8104 54.3208 36.91 54.3513 37.017C54.3818 37.124 54.3899 37.2361 54.375 37.3464C54.3601 37.4566 54.3226 37.5626 54.2648 37.6577C54.207 37.7528 54.1302 37.8348 54.0391 37.8988L46.3974 44.2499C46.2555 44.3712 46.0759 44.4393 45.8893 44.4425Z" fill="black"/>
<path d="M54.1963 46.1796C54.0693 46.1795 53.9441 46.1494 53.8308 46.0918C53.7176 46.0342 53.6196 45.9507 53.5448 45.8481C53.4699 45.7455 53.4203 45.6267 53.4 45.5013C53.3797 45.3759 53.3893 45.2475 53.428 45.1265L55.8476 37.5851C55.9185 37.3886 56.0629 37.2273 56.2504 37.1351C56.4379 37.0428 56.6538 37.0269 56.8528 37.0905C57.0518 37.1542 57.2183 37.2926 57.3174 37.4765C57.4165 37.6604 57.4404 37.8756 57.3841 38.0768L54.9686 45.6203C54.916 45.7834 54.8127 45.9256 54.6739 46.0262C54.535 46.1267 54.3677 46.1805 54.1963 46.1796Z" fill="black"/>
<path d="M61.9248 46.1795C61.7549 46.1794 61.5894 46.1256 61.4518 46.026C61.3143 45.9263 61.2116 45.7857 61.1586 45.6243L58.6858 38.0809C58.6469 37.9788 58.6291 37.8699 58.6335 37.7607C58.6379 37.6516 58.6644 37.5444 58.7114 37.4458C58.7584 37.3472 58.825 37.2592 58.907 37.187C58.9891 37.1149 59.0849 37.0602 59.1888 37.0262C59.2926 36.9922 59.4022 36.9796 59.511 36.9892C59.6199 36.9988 59.7256 37.0304 59.8219 37.0821C59.9181 37.1338 60.0029 37.2045 60.071 37.2899C60.1391 37.3753 60.1892 37.4736 60.2182 37.5789L62.6911 45.1224C62.7309 45.2436 62.7414 45.3724 62.7218 45.4985C62.7022 45.6245 62.653 45.7441 62.5782 45.8475C62.5034 45.9508 62.4053 46.035 62.2917 46.0931C62.1781 46.1511 62.0524 46.1815 61.9248 46.1816V46.1795Z" fill="black"/>
<path d="M69.4941 44.4421C69.2939 44.4439 69.1003 44.3708 68.9512 44.2372L61.9609 37.8862C61.8064 37.7412 61.7151 37.5413 61.7067 37.3296C61.6983 37.1179 61.7735 36.9113 61.916 36.7546C62.0585 36.5978 62.2569 36.5033 62.4685 36.4916C62.68 36.4799 62.8877 36.5517 63.0467 36.6918L70.037 43.0428C70.1572 43.1525 70.2414 43.2959 70.2786 43.4543C70.3158 43.6126 70.3043 43.7785 70.2457 43.9303C70.187 44.082 70.0838 44.2124 69.9497 44.3045C69.8156 44.3966 69.6568 44.446 69.4941 44.4462V44.4421Z" fill="black"/>
<path d="M47.1542 20.8461H0.922755C0.678025 20.8461 0.443319 20.761 0.270269 20.6095C0.0972185 20.4581 0 20.2526 0 20.0384C0 19.8242 0.0972185 19.6188 0.270269 19.4673C0.443319 19.3158 0.678025 19.2307 0.922755 19.2307H47.1542C47.3989 19.2307 47.6336 19.3158 47.8067 19.4673C47.9797 19.6188 48.0769 19.8242 48.0769 20.0384C48.0769 20.2526 47.9797 20.4581 47.8067 20.6095C47.6336 20.761 47.3989 20.8461 47.1542 20.8461Z" fill="black"/>
<path d="M47.2711 32.3846H0.80585C0.592125 32.3846 0.387154 32.3028 0.236028 32.1574C0.0849018 32.0119 0 31.8147 0 31.609C0 31.4033 0.0849018 31.206 0.236028 31.0605C0.387154 30.9151 0.592125 30.8333 0.80585 30.8333H46.4652V20.0063C46.4652 19.8006 46.5501 19.6033 46.7012 19.4579C46.8524 19.3124 47.0573 19.2307 47.2711 19.2307C47.4848 19.2307 47.6898 19.3124 47.8409 19.4579C47.992 19.6033 48.0769 19.8006 48.0769 20.0063V31.607C48.0772 31.709 48.0565 31.8101 48.0162 31.9044C47.9758 31.9987 47.9165 32.0845 47.8416 32.1567C47.7668 32.2289 47.6778 32.2862 47.5799 32.3253C47.482 32.3644 47.3771 32.3846 47.2711 32.3846Z" fill="black"/>
<path d="M113.785 32.828H67.2418C67.0277 32.828 66.8224 32.7429 66.671 32.5915C66.5196 32.4402 66.4346 32.2348 66.4346 32.0208V19.9476C66.4346 19.7335 66.5196 19.5282 66.671 19.3768C66.8224 19.2254 67.0277 19.1404 67.2418 19.1404H113.785C113.999 19.1404 114.204 19.2254 114.356 19.3768C114.507 19.5282 114.592 19.7335 114.592 19.9476C114.592 20.1617 114.507 20.367 114.356 20.5184C114.204 20.6697 113.999 20.7548 113.785 20.7548H68.049V31.2156H113.785C113.999 31.2156 114.204 31.3007 114.356 31.452C114.507 31.6034 114.592 31.8087 114.592 32.0228C114.592 32.2369 114.507 32.4422 114.356 32.5936C114.204 32.745 113.999 32.83 113.785 32.83V32.828Z" fill="black"/>
</svg>
