<svg width="58" height="60" viewBox="0 0 58 60" fill="none" xmlns="http://www.w3.org/2000/svg">
<path d="M10.0897 4.302L8.0054 2.2177C7.65185 1.86403 7.65185 1.29075 8.0054 0.937075C8.35896 0.583638 8.93224 0.583638 9.28591 0.937075L11.3702 3.02137C11.7238 3.37504 11.7238 3.94832 11.3702 4.302C11.0167 4.65543 10.4436 4.65567 10.0897 4.302Z" fill="#DBEAFF"/>
<path d="M48.7128 15.8545L46.6285 13.7702C46.2749 13.4165 46.2749 12.8432 46.6285 12.4896C46.9821 12.1361 47.5554 12.1361 47.909 12.4896L49.9933 14.5739C50.347 14.9275 50.347 15.5008 49.9933 15.8545C49.6397 16.208 49.0665 16.2079 48.7128 15.8545Z" fill="#DBEAFF"/>
<path d="M8.76902 9.3012H5.82141C5.32137 9.3012 4.91602 8.89585 4.91602 8.39581C4.91602 7.89577 5.32137 7.49042 5.82141 7.49042H8.76902C9.26906 7.49042 9.67441 7.89577 9.67441 8.39581C9.67441 8.89585 9.26906 9.3012 8.76902 9.3012Z" fill="#DBEAFF"/>
<path d="M52.1782 9.3012H49.2306C48.7305 9.3012 48.3252 8.89585 48.3252 8.39581C48.3252 7.89577 48.7305 7.49042 49.2306 7.49042H52.1782C52.6782 7.49042 53.0836 7.89577 53.0836 8.39581C53.0836 8.89585 52.6784 9.3012 52.1782 9.3012Z" fill="#DBEAFF"/>
<path d="M8.0054 15.8544C7.65185 15.5008 7.65185 14.9275 8.0054 14.5738L10.0896 12.4895C10.4433 12.1361 11.0165 12.1361 11.3701 12.4895C11.7236 12.8432 11.7236 13.4165 11.3701 13.7701L9.28579 15.8544C8.93224 16.208 8.35907 16.2079 8.0054 15.8544Z" fill="#DBEAFF"/>
<path d="M46.6295 4.30206C46.2758 3.94839 46.2758 3.3751 46.6295 3.02143L48.7138 0.937136C49.0674 0.583699 49.6408 0.583699 49.9943 0.937136C50.348 1.29081 50.348 1.86409 49.9943 2.21776L47.91 4.30206C47.5562 4.65561 46.9831 4.6555 46.6295 4.30206Z" fill="#DBEAFF"/>
<path d="M38.9262 1.63102L38.8784 0.908906C38.3255 0.328359 37.559 0 36.7574 0H21.2441C20.4425 0 19.6759 0.328359 19.123 0.908789V1.6309L23.1306 8.2248H35.5105L38.9262 1.63102Z" fill="#C3DDFF"/>
<path d="M21.2441 0C20.4425 0 19.6759 0.328359 19.123 0.908789V1.6309L21.1375 4.94543L24.6079 0H21.2441Z" fill="#A4CCFF"/>
<path d="M29.0009 0L23.4258 8.22492L23.7734 8.56348H34.0138L34.5759 8.22492L29.0009 0Z" fill="#DBEAFF"/>
<path d="M19.1227 0.908813L13.5534 6.75436C13.1757 7.15081 12.9648 7.67733 12.9648 8.22495L13.3334 8.5635H22.8442L23.4254 8.22495L19.1227 0.908813Z" fill="#DBEAFF"/>
<path d="M18.8361 8.22495L21.3329 4.6669L19.1227 0.908936L13.5534 6.75448C13.1757 7.15093 12.9648 7.67745 12.9648 8.22507L13.3334 8.56362H19.0117L18.8361 8.22495Z" fill="#C3DDFF"/>
<path d="M45.0366 8.22495C45.0366 7.67733 44.8259 7.15081 44.4482 6.75436L38.8787 0.908813L34.5762 8.22483L35.0039 8.56338H44.7555L45.0366 8.22495Z" fill="#DBEAFF"/>
<path d="M12.9648 8.22491C12.9648 8.83945 13.184 9.43394 13.583 9.9014L26.7149 25.2869C27.2859 25.9559 28.1211 26.341 29.0004 26.341C29.8798 26.341 30.7151 25.9559 31.2859 25.2869L44.4179 9.9014C44.8169 9.43394 45.036 8.83945 45.036 8.22491H12.9648Z" fill="#A4CCFF"/>
<path d="M18.8361 8.22491H12.9648C12.9648 8.83945 13.184 9.43394 13.583 9.9014L26.7149 25.2869C27.1027 25.7413 27.6126 26.0643 28.1752 26.225L18.8361 8.22491Z" fill="#8BB3EA"/>
<path d="M29.0009 26.341C29.2829 26.341 29.5604 26.301 29.8261 26.225L34.5759 8.22491H23.4258L28.1756 26.225C28.4413 26.301 28.7187 26.341 29.0009 26.341Z" fill="#C3DDFF"/>
<path d="M8.24219 30.3464C8.37625 30.0746 8.46238 29.7736 8.48547 29.4526L8.9868 22.4992C9.08266 21.1687 8.08187 20.0124 6.75133 19.9164C5.73273 19.8429 4.8182 20.4134 4.40137 21.2813C4.66809 21.6667 4.25277 20.7593 8.24219 30.3464Z" fill="#FFCEBE"/>
<path d="M6.8023 22.1921C6.50922 21.3908 6.85176 20.5062 7.56578 20.1239C7.31477 20.0112 7.0416 19.9372 6.75133 19.9164C5.73273 19.8429 4.8182 20.4134 4.40137 21.2814C4.6682 21.6668 4.25277 20.7594 8.2423 30.3465C8.37637 30.0747 8.4625 29.7737 8.48559 29.4528L8.68059 26.7475C6.49797 21.5023 6.96672 22.6417 6.8023 22.1921Z" fill="#FFB1A0"/>
<path d="M14.1217 47.9444L14.2294 49.5296L24.3162 48.7906C24.1501 46.6423 23.7964 44.3957 23.2359 42.3149C22.6091 39.9879 22.1026 39.307 19.2924 35.8221H19.2922C18.3526 34.7015 17.6155 34.4126 12.1832 31.3809C10.2232 30.2869 9.08694 32.0964 9.08694 32.0964L5.05804 22.4142C4.99042 22.2129 4.28612 19.7338 1.96909 20.2895C-0.157862 20.8726 0.16827 23.1605 0.259794 23.5938L3.99444 37.3281C3.99444 37.3281 3.99468 37.3288 3.99491 37.3298C4.44643 39.4658 5.96612 40.6435 6.69784 41.0992L11.0509 43.5283C12.7193 44.4597 13.9836 46.0603 14.1217 47.9444Z" fill="#FFCEBE"/>
<path d="M16.4399 47.9445C16.3018 46.0586 15.0355 44.4585 13.3689 43.5283L9.016 41.0991C8.28417 40.6435 6.76448 39.4657 6.31296 37.3298C6.31272 37.3289 6.31249 37.328 6.31249 37.328L2.57796 23.5939C2.49557 23.2037 2.22393 21.3106 3.723 20.5116C3.28061 20.2442 2.70651 20.1125 1.96811 20.2896C-0.158839 20.8727 0.167294 23.1605 0.258817 23.5939L3.99347 37.3282C3.99347 37.3282 3.99358 37.3289 3.99393 37.3299C4.44546 39.4659 5.96515 40.6436 6.69698 41.0993L11.0499 43.5284C12.7184 44.4598 13.9829 46.0602 14.1209 47.9446L14.2285 49.5298L16.5363 49.3607L16.4399 47.9445Z" fill="#FFB1A0"/>
<path d="M14.2745 39.154C14.5361 39.154 14.7949 39.0362 14.9661 38.8122C15.2578 38.4306 15.1848 37.8848 14.8031 37.5931C14.7657 37.5645 11.0383 34.7162 9.46767 33.5256C8.81002 33.027 8.92029 32.4588 9.08658 32.0962L8.26884 30.1312L7.764 30.8819C7.12252 31.8166 6.76709 33.6611 8.41697 34.9117C9.98506 36.1003 13.7096 38.9464 13.7471 38.975C13.9046 39.0956 14.0903 39.154 14.2745 39.154Z" fill="#FFB1A0"/>
<path d="M49.7578 30.3464C49.6237 30.0746 49.5376 29.7736 49.5145 29.4526L49.0132 22.4992C48.9173 21.1687 49.9181 20.0124 51.2487 19.9164C52.2673 19.8429 53.1818 20.4134 53.5986 21.2813C53.3319 21.6667 53.7472 20.7593 49.7578 30.3464Z" fill="#FFCEBE"/>
<path d="M51.309 22.4992C51.2386 21.522 51.7608 20.6407 52.5696 20.2024C52.1787 19.9901 51.7255 19.8819 51.2487 19.9163C49.9181 20.0123 48.9173 21.1686 49.0132 22.4992L49.5145 29.4526C49.5376 29.7736 49.6237 30.0746 49.7578 30.3464L51.5622 26.0101L51.309 22.4992Z" fill="#FFB1A0"/>
<path d="M44.8549 45.375C43.8245 46.7262 43.8825 47.8932 43.7714 49.5296L33.6846 48.7906C33.8506 46.6423 34.2043 44.3957 34.7648 42.3149C35.3916 39.9879 35.8981 39.307 38.7083 35.8221H38.7085C39.6481 34.7015 40.3852 34.4126 45.8176 31.3809C47.7775 30.2869 48.9138 32.0964 48.9138 32.0964L52.9427 22.4142C53.0103 22.2129 53.7146 19.7338 56.0316 20.2895C58.1586 20.8726 57.8325 23.1605 57.7409 23.5938L54.0063 37.3281C54.0063 37.3281 54.0061 37.3288 54.0058 37.3298C53.5543 39.4658 52.0346 40.6435 51.3029 41.0992C46.2277 43.9314 45.977 43.9037 44.8549 45.375Z" fill="#FFCEBE"/>
<path d="M50.7675 32.5104L54.7964 22.8283C54.8525 22.6614 55.3475 20.9294 56.836 20.6594C56.6172 20.5054 56.3523 20.3778 56.0305 20.2895C53.7135 19.7338 53.0092 22.2131 52.9416 22.4143L49.1758 31.4641C50.1998 31.6084 50.7675 32.5104 50.7675 32.5104Z" fill="#FFB1A0"/>
<path d="M36.6188 42.7289C37.2456 40.4019 37.7521 39.7211 40.5624 36.2362H40.5626C41.5022 35.1156 42.2393 34.8266 47.6717 31.795C47.916 31.6586 48.1476 31.5674 48.3657 31.5121C47.8475 31.1028 46.9764 30.7336 45.8167 31.381C40.3844 34.4126 39.6473 34.7015 38.7077 35.8221H38.7074C35.8972 39.3071 35.3908 39.9879 34.7638 42.3149C34.2033 44.3957 33.8495 46.6423 33.6836 48.7907L35.5627 48.9284C35.7371 46.864 36.0822 44.7209 36.6188 42.7289Z" fill="#FFB1A0"/>
<path d="M43.7258 39.154C43.4642 39.154 43.2054 39.0362 43.0342 38.8122C42.7425 38.4306 42.8155 37.8848 43.1972 37.5931C43.2346 37.5645 46.962 34.7162 48.5326 33.5256C49.1903 33.027 49.08 32.4588 48.9137 32.0962L49.7315 30.1312L50.2363 30.8819C50.8778 31.8166 51.2332 33.6611 49.5833 34.9117C48.0152 36.1003 44.2907 38.9464 44.2532 38.975C44.0957 39.0956 43.9101 39.154 43.7258 39.154Z" fill="#FFB1A0"/>
<path d="M26.8509 52.4553L12.1865 53.5297L12.5932 59.0803C12.6311 59.5987 13.0629 60 13.5826 60H26.3506C26.9193 60 27.3683 59.5169 27.3268 58.9497L26.8509 52.4553Z" fill="#E5646E"/>
<path d="M16.7703 59.4617L16.3135 53.2274L12.1865 53.5297L12.5932 59.0803C12.6311 59.5987 13.0629 60 13.5826 60H16.9578C16.8527 59.8446 16.785 59.6613 16.7703 59.4617Z" fill="#DB4655"/>
<path d="M31.0744 52.465L30.5994 58.9498C30.5578 59.517 31.0068 60 31.5755 60H44.3435C44.8633 60 45.295 59.5988 45.333 59.0803L45.7389 53.5393L31.0744 52.465Z" fill="#E5646E"/>
<path d="M34.3215 58.9498L34.7767 52.7363L31.0744 52.465L30.5994 58.9498C30.5578 59.517 31.0068 60 31.5755 60H35.2976C34.7289 60 34.28 59.517 34.3215 58.9498Z" fill="#DB4655"/>
<path d="M45.7358 53.5811L45.9554 50.5828C45.9944 50.0499 45.594 49.5861 45.061 49.5471L32.3267 48.6141C31.7937 48.5751 31.33 48.9755 31.291 49.5085L31.0713 52.5067L45.7358 53.5811Z" fill="#EDF4FF"/>
<path d="M35.0132 49.5085C35.0332 49.2359 35.1646 48.9985 35.3593 48.8363L32.3268 48.6141C31.7939 48.5751 31.33 48.9755 31.291 49.5085L31.0713 52.5067L34.7736 52.778L35.0132 49.5085Z" fill="#DBEAFF"/>
<path d="M12.19 53.5811L11.9704 50.5828C11.9314 50.0499 12.3318 49.5861 12.8648 49.5471L25.5991 48.6141C26.132 48.5751 26.5958 48.9755 26.6348 49.5085L26.8545 52.5067L12.19 53.5811Z" fill="#EDF4FF"/>
<path d="M16.0754 49.9789C16.057 49.7283 16.1265 49.4921 16.2565 49.2986L12.8648 49.547C12.3318 49.586 11.9314 50.0498 11.9704 50.5827L12.19 53.581L16.317 53.2786L16.0754 49.9789Z" fill="#DBEAFF"/>
</svg>
